<svg xmlns="http://www.w3.org/2000/svg" width="20.159" height="20.648" viewBox="0 0 20.159 20.648">
  <g id="settings" transform="translate(0.051 -0.333)">
    <path id="Path_3104" data-name="Path 3104" d="M17.711,11.675l2.181,1.7a.512.512,0,0,1,.145.679l-2.084,3.587a.424.424,0,0,1-.63.194l-2.569-1.018a9.764,9.764,0,0,1-1.745,1.018l-.388,2.714a.463.463,0,0,1-.533.436H7.969a.5.5,0,0,1-.533-.436l-.388-2.714A7.934,7.934,0,0,1,5.3,16.813L2.734,17.831a.472.472,0,0,1-.63-.194L.02,14.05a.512.512,0,0,1,.145-.679l2.181-1.7Q2.3,11.093,2.3,10.657t.048-1.018L.165,7.943A.512.512,0,0,1,.02,7.264L2.1,3.678a.438.438,0,0,1,.63-.194L5.3,4.5A9.764,9.764,0,0,1,7.048,3.484L7.436.77A.5.5,0,0,1,7.969.333h4.12a.463.463,0,0,1,.533.436l.388,2.714A7.934,7.934,0,0,1,14.755,4.5l2.569-1.018a.472.472,0,0,1,.63.194l2.084,3.587a.512.512,0,0,1-.145.679l-2.181,1.7a6.294,6.294,0,0,1,.1,1.018A6.294,6.294,0,0,1,17.711,11.675Zm-7.682,2.617a3.474,3.474,0,0,0,2.545-1.066,3.627,3.627,0,0,0,0-5.138,3.569,3.569,0,0,0-5.089,0,3.627,3.627,0,0,0,0,5.138A3.474,3.474,0,0,0,10.029,14.292Z" fill="#bcbec1"/>
  </g>
</svg>
