<svg id="bx-support" xmlns="http://www.w3.org/2000/svg" width="41.248" height="41.248" viewBox="0 0 41.248 41.248">
  <path id="Path_3100" data-name="Path 3100" d="M24.624,4A20.647,20.647,0,0,0,4,24.624v8.544A3.99,3.99,0,0,0,8.125,37h2.062a2.062,2.062,0,0,0,2.062-2.062V24.329a2.062,2.062,0,0,0-2.062-2.062H8.315a16.475,16.475,0,0,1,32.619,0H39.061A2.062,2.062,0,0,0,37,24.329V37a4.129,4.129,0,0,1-4.125,4.125H28.749V39.061H20.5v6.187H32.873A8.258,8.258,0,0,0,41.123,37a3.99,3.99,0,0,0,4.125-3.83V24.624A20.647,20.647,0,0,0,24.624,4Z" transform="translate(-4 -4)" fill="#6e78f7"/>
</svg>
