<svg id="camera_outline" xmlns="http://www.w3.org/2000/svg" width="12.738" height="12.738" viewBox="0 0 12.738 12.738">
  <path id="Path_3107" data-name="Path 3107" d="M16.948,20.876a1.529,1.529,0,1,0-1.529-1.529A1.529,1.529,0,0,0,16.948,20.876Zm0,1.019A2.548,2.548,0,1,0,14.4,19.348,2.548,2.548,0,0,0,16.948,21.9Z" transform="translate(-10.579 -12.342)" fill="#1e7a98" fill-rule="evenodd"/>
  <path id="Path_3108" data-name="Path 3108" d="M2.486,12.5a9.545,9.545,0,0,0,3.073.241H7.18a9.545,9.545,0,0,0,3.073-.241A3.821,3.821,0,0,0,12.5,10.252a9.545,9.545,0,0,0,.241-3.073,13.2,13.2,0,0,0-.2-3.2,3.185,3.185,0,0,0-1.871-1.871A2.785,2.785,0,0,0,10,1.963a.6.6,0,0,1-.5-.477A1.911,1.911,0,0,0,8.068.048,4.794,4.794,0,0,0,7.1,0H5.641A4.793,4.793,0,0,0,4.67.048,1.911,1.911,0,0,0,3.232,1.486a.6.6,0,0,1-.5.477,2.785,2.785,0,0,0-.665.149A3.185,3.185,0,0,0,.2,3.982,13.2,13.2,0,0,0,0,7.18a9.545,9.545,0,0,0,.241,3.073A3.821,3.821,0,0,0,2.486,12.5Zm3.073-.778c-.821,0-1.391,0-1.837-.028a3.033,3.033,0,0,1-.879-.149A2.8,2.8,0,0,1,1.2,9.9a3.032,3.032,0,0,1-.149-.879C1.02,8.571,1.019,8,1.019,7.18c0-.681,0-1.321.024-1.857a4.371,4.371,0,0,1,.112-.984A2.166,2.166,0,0,1,2.428,3.066a1.785,1.785,0,0,1,.425-.091A1.616,1.616,0,0,0,4.226,1.712.892.892,0,0,1,4.9,1.041a4.541,4.541,0,0,1,.744-.022H7.1a4.541,4.541,0,0,1,.744.022.892.892,0,0,1,.671.671A1.616,1.616,0,0,0,9.885,2.975a1.786,1.786,0,0,1,.425.091,2.165,2.165,0,0,1,1.272,1.272,4.371,4.371,0,0,1,.112.984c.024.536.024,1.176.024,1.857,0,.821,0,1.391-.028,1.837a3.033,3.033,0,0,1-.149.879A2.8,2.8,0,0,1,9.9,11.543a3.033,3.033,0,0,1-.879.149c-.446.028-1.016.028-1.837.028Z" fill="#1e7a98" fill-rule="evenodd"/>
</svg>
