<svg xmlns="http://www.w3.org/2000/svg" width="79.494" height="48.179" viewBox="0 0 79.494 48.179">
  <g id="Group_16" data-name="Group 16" transform="translate(0 0)">
    <path id="Path_50" data-name="Path 50" d="M323.916,154.223l-3.75-3.791-3.833,3.831,3.833,3.874,3.75-3.833.041-.041Zm3.791-3.791-3.791,3.791-.041.041.041.041,3.791,3.833,3.874-3.874Z" transform="translate(-300.808 -115.78)" fill="#fff"/>
    <path id="Path_51" data-name="Path 51" d="M303.521,65.857a10.142,10.142,0,0,1-1.284,5.239,8.861,8.861,0,0,1-3.382,3.342,9.236,9.236,0,0,1-4.547,1.162l-2.568-.041-4.32-4.932,6.889-.083a3.9,3.9,0,0,0,3.038-1.284,4.882,4.882,0,0,0,1.162-3.4,4.656,4.656,0,0,0-1.162-3.241,3.91,3.91,0,0,0-3.038-1.284h-6.889V75.6H262.145v2.609a7.234,7.234,0,0,1-2.284,5.423,7.141,7.141,0,0,1-3.872,2.12H251.1l-2.16-4.851h5.585a2.458,2.458,0,0,0,1.855-.795,2.659,2.659,0,0,0,.754-1.9l-.041-19.894,5.055-1.874V70.627h6.686a2.41,2.41,0,0,0,1.874-.816,2.474,2.474,0,0,0,.775-1.876V58.314l4.972-1.915V67.935a11.563,11.563,0,0,1-.366,2.692H282.4V56.276h11.9a9.111,9.111,0,0,1,7.929,4.525,9.708,9.708,0,0,1,1.284,5.055" transform="translate(-248.936 -43.313)" fill="#fff"/>
    <path id="Path_52" data-name="Path 52" d="M525.328,150.431l-3.792,3.791-.041.041.041.041,3.792,3.833,3.872-3.874Zm-3.771,5.823-3.792,3.791-.041.041.041.041,3.792,3.833,3.872-3.874Zm-.021-2.032-3.75-3.791-3.833,3.831,3.833,3.874,3.75-3.833.041-.041Z" transform="translate(-452.906 -115.779)" fill="#fff"/>
    <path id="Path_53" data-name="Path 53" d="M521.709,13.088V24.624a7.171,7.171,0,0,1-2.242,5.382,7.273,7.273,0,0,1-5.382,2.282h-6.358a7.62,7.62,0,0,1-7.664-7.664V1.877L505.035,0l.083,24.7a2.356,2.356,0,0,0,.733,1.794,2.409,2.409,0,0,0,1.876.816h6.358a2.491,2.491,0,0,0,1.876-.816,2.539,2.539,0,0,0,.733-1.876V15Z" transform="translate(-442.216 -0.001)" fill="#fff"/>
  </g>
</svg>
