<svg xmlns="http://www.w3.org/2000/svg" xmlns:xlink="http://www.w3.org/1999/xlink" width="44.425" height="46.057" viewBox="0 0 44.425 46.057">
  <defs>
    <clipPath id="clip-path">
      <rect id="Rectangle_1" data-name="Rectangle 1" width="44.425" height="46.057" fill="none"/>
    </clipPath>
  </defs>
  <g id="Group_11" data-name="Group 11" clip-path="url(#clip-path)">
    <path id="Path_1" data-name="Path 1" d="M20.05,12.309l.086.049-.1.033-.085-.051ZM19.375,13l.014.01c-.014-.107-.064-.3,0-.388a.777.777,0,0,1,.453.188,1.012,1.012,0,0,1,.278.367.827.827,0,0,1,.068.242,1.525,1.525,0,0,0,.266.688,1.9,1.9,0,0,0,1.807.656l.073-.009.073.06c.073.066.153.149.225.216a1.03,1.03,0,0,1,.225.337l.015.076c.312-.117.631-.247.957-.367a5.569,5.569,0,0,1-1.11-.781l-.138-.18a.339.339,0,0,1-.073-.237,2.269,2.269,0,0,0,1.867-1.529,3.142,3.142,0,0,1-.937.205,3.348,3.348,0,0,1-1.038-.08.355.355,0,0,1,.029-.26,2.45,2.45,0,0,1,.391-.562,3.865,3.865,0,0,0-1.118.285,1.009,1.009,0,0,0-.653.738,1.567,1.567,0,0,0-.692-.495.951.951,0,0,0-.519-.02,1.121,1.121,0,0,0-.391.2c-.076-.066-.052-.246-.009-.33a.553.553,0,0,0,.715-.321.707.707,0,0,0-.53.041l.094-.179.034-.051.086.06a.488.488,0,0,0,.325.054.845.845,0,0,0,.366-.165.393.393,0,0,0-.3-.207,1.087,1.087,0,0,0,.734-.352.393.393,0,0,0-.255-.138.761.761,0,0,0-.455.138,2.972,2.972,0,0,0-.317.275.859.859,0,0,0-.073-.44.413.413,0,0,0-.3.232.443.443,0,0,0,.09.406,1.466,1.466,0,0,0-.154.225.535.535,0,0,0-.19-.424.345.345,0,0,0-.2.375.813.813,0,0,0,.221.367c-.082.268-.221.884.05,1.067m20.106,24.17C35.787,42.251,29.219,45.4,22.265,45.41h-.051c-7,0-13.579-3.19-17.285-8.343,1.335-.694,2.655-1.43,3.959-2.175a16.978,16.978,0,0,0,13.377,6.17A17.612,17.612,0,0,0,35.526,34.99c1.285.747,2.62,1.483,3.956,2.182m3.644-8.923A3.126,3.126,0,0,0,44.4,26.4a3.91,3.91,0,0,0-2.41.548,3.573,3.573,0,0,0-.856,1.153,18.323,18.323,0,0,0,.407-2.614,4.438,4.438,0,0,0,1.965-.9,3.019,3.019,0,0,0,.916-1.995,3.856,3.856,0,0,0-2.229.937,3.627,3.627,0,0,0-.617,1.218,19.39,19.39,0,0,0-.1-2.679,4.39,4.39,0,0,0,1.779-1.2,2.981,2.981,0,0,0,.544-2.084,3.793,3.793,0,0,0-1.989,1.276,3.608,3.608,0,0,0-.406,1.419,20.84,20.84,0,0,0-.6-2.781,4.2,4.2,0,0,0,1.539-1.484,2.912,2.912,0,0,0,.174-2.1,3.633,3.633,0,0,0-1.706,1.574,3.907,3.907,0,0,0-.138,1.586,19.692,19.692,0,0,0-1.118-2.792A3.963,3.963,0,0,0,40.81,13.8a2.863,2.863,0,0,0-.2-2.06,3.635,3.635,0,0,0-1.378,1.814,3.746,3.746,0,0,0,.146,1.528A19.1,19.1,0,0,0,37.8,12.537a4.008,4.008,0,0,0,.885-1.815,2.779,2.779,0,0,0-.545-1.946,3.5,3.5,0,0,0-1.015,1.97,3.476,3.476,0,0,0,.341,1.354,14.418,14.418,0,0,0-1.945-2.066,3.972,3.972,0,0,0,.559-1.942A2.75,2.75,0,0,0,35.222,6.3a3.415,3.415,0,0,0-.646,2.077,3.982,3.982,0,0,0,.7,1.443,21.916,21.916,0,0,0-2.424-1.844,3.92,3.92,0,0,0,.232-2.006A2.72,2.72,0,0,0,31.947,4.4a3.354,3.354,0,0,0-.275,2.109,4.433,4.433,0,0,0,1.045,1.389c-.551-.353-1.1-.657-1.591-.913A2.6,2.6,0,0,0,29.865,5.87a3.292,3.292,0,0,0-1.364.021c-.7-.22-1.1-.3-1.067-.314a4.916,4.916,0,0,0,.937.341l-.051,0A3.034,3.034,0,0,0,29.56,7.05a2.182,2.182,0,0,0,1.48.041,20.379,20.379,0,0,1,2.018,1.244,4.748,4.748,0,0,0-1.851-.369,3.3,3.3,0,0,0-1.8,1.159,2.758,2.758,0,0,0,1.931.319,3.691,3.691,0,0,0,1.728-1.1,21.584,21.584,0,0,1,2.01,1.6,4.014,4.014,0,0,0-1.669-.277,2.764,2.764,0,0,0-1.722.984,3.436,3.436,0,0,0,2.119.491,3.809,3.809,0,0,0,1.365-.789c.043-.056.1-.121.153-.188a15.7,15.7,0,0,1,2.467,2.833,4.769,4.769,0,0,0-1.656-1,3.529,3.529,0,0,0-2.177.505,2.862,2.862,0,0,0,1.771.99,3.912,3.912,0,0,0,2.084-.46,19.087,19.087,0,0,1,1.524,2.7,4.084,4.084,0,0,0-1.314-1.094,3.638,3.638,0,0,0-2.279.123,2.836,2.836,0,0,0,1.6,1.308,4.217,4.217,0,0,0,2.119-.071,21.442,21.442,0,0,1,1,2.8,3.919,3.919,0,0,0-1.067-1.229,3.654,3.654,0,0,0-2.308-.277,2.933,2.933,0,0,0,1.379,1.6,4.122,4.122,0,0,0,2.1.3,18.1,18.1,0,0,1,.523,2.959,4,4,0,0,0-.864-1.448,3.746,3.746,0,0,0-2.265-.686,2.953,2.953,0,0,0,1.1,1.846,4.409,4.409,0,0,0,2.062.681,16.8,16.8,0,0,1-.015,2.965,4.4,4.4,0,0,0-.609-1.616,3.829,3.829,0,0,0-2.163-1.083,3.034,3.034,0,0,0,.777,2.051,4.338,4.338,0,0,0,1.959,1.038,16.239,16.239,0,0,1-.508,2.595l-.021.1a4.025,4.025,0,0,0-.32-1.58,3.907,3.907,0,0,0-1.981-1.471,3.107,3.107,0,0,0,.42,2.2A4.341,4.341,0,0,0,40.4,29.108a16.42,16.42,0,0,1-.966,2.591,4.23,4.23,0,0,0-.029-1.679,3.943,3.943,0,0,0-1.727-1.826,3.133,3.133,0,0,0,.021,2.279,4.585,4.585,0,0,0,1.5,1.7A17.448,17.448,0,0,1,37.863,34.4a3.765,3.765,0,0,0,.21-1.531,4.012,4.012,0,0,0-1.4-2.138,3.163,3.163,0,0,0-.377,2.291,4.551,4.551,0,0,0,1.169,1.925c-.066.093-.138.178-.21.271-.559-.308-1.112-.614-1.648-.925l-.247-.147-.174.226a16.908,16.908,0,0,1-12.934,6.043A16.327,16.327,0,0,1,9.221,34.273l-.175-.231-.247.144c-.555.325-1.117.639-1.683.961l-.149-.2a4.656,4.656,0,0,0,1.171-1.925,3.222,3.222,0,0,0-.381-2.291,4.006,4.006,0,0,0-1.411,2.138A3.929,3.929,0,0,0,6.563,34.4a18.058,18.058,0,0,1-1.347-2.235,4.585,4.585,0,0,0,1.5-1.7,3.134,3.134,0,0,0,.029-2.279,3.959,3.959,0,0,0-1.728,1.826A4.276,4.276,0,0,0,4.986,31.7a16.718,16.718,0,0,1-.963-2.591,4.379,4.379,0,0,0,1.744-1.372,3.087,3.087,0,0,0,.42-2.2A3.9,3.9,0,0,0,4.2,27.006a4.089,4.089,0,0,0-.315,1.581l-.023-.1a15.086,15.086,0,0,1-.5-2.595,4.39,4.39,0,0,0,1.954-1.038,3.037,3.037,0,0,0,.776-2.051,3.826,3.826,0,0,0-2.165,1.083,4.385,4.385,0,0,0-.606,1.625A17.156,17.156,0,0,1,3.3,22.538a4.4,4.4,0,0,0,2.063-.681,2.921,2.921,0,0,0,1.1-1.846A3.776,3.776,0,0,0,4.2,20.7a4.322,4.322,0,0,0-.864,1.444,19.362,19.362,0,0,1,.53-2.956,4.127,4.127,0,0,0,2.1-.3,2.941,2.941,0,0,0,1.38-1.6,3.654,3.654,0,0,0-2.308.277,3.891,3.891,0,0,0-1.063,1.229,19.3,19.3,0,0,1,1.011-2.8,4.151,4.151,0,0,0,2.109.071,2.893,2.893,0,0,0,1.6-1.308,3.635,3.635,0,0,0-2.275-.123A4.065,4.065,0,0,0,5.1,15.728a18.948,18.948,0,0,1,1.519-2.7,3.9,3.9,0,0,0,2.08.46,2.843,2.843,0,0,0,1.773-.99A3.567,3.567,0,0,0,8.294,12a4.677,4.677,0,0,0-1.65.993,15.427,15.427,0,0,1,2.394-2.764,3.94,3.94,0,0,0,1.7.865,2.779,2.779,0,0,0,1.927-.476,3.434,3.434,0,0,0-1.906-1.054,3.37,3.37,0,0,0-1.305.291A21.971,21.971,0,0,1,11.358,8.34a3.779,3.779,0,0,0,1.728,1.1,2.773,2.773,0,0,0,1.935-.319,3.327,3.327,0,0,0-1.8-1.159,4.563,4.563,0,0,0-1.853.369,19.173,19.173,0,0,1,2-1.226,2.15,2.15,0,0,0,1.421-.059,3.039,3.039,0,0,0,1.246-1.127h-.007A4.9,4.9,0,0,0,17,5.577c.029.014-.391.1-1.1.322a3.417,3.417,0,0,0-1.413-.029A2.67,2.67,0,0,0,13.2,7.039c-.477.245-.973.526-1.5.855A3.983,3.983,0,0,0,12.75,6.505,3.341,3.341,0,0,0,12.488,4.4a2.664,2.664,0,0,0-1.135,1.578,3.588,3.588,0,0,0,.227,2.006A19.438,19.438,0,0,0,9.152,9.832a4.274,4.274,0,0,0,.7-1.45A3.4,3.4,0,0,0,9.21,6.3a2.75,2.75,0,0,0-.863,1.787,3.891,3.891,0,0,0,.567,1.946A14.337,14.337,0,0,0,6.967,12.1a3.629,3.629,0,0,0,.342-1.354,3.455,3.455,0,0,0-1.02-1.97,2.772,2.772,0,0,0-.539,1.946,3.946,3.946,0,0,0,.878,1.815,19.506,19.506,0,0,0-1.569,2.545,3.838,3.838,0,0,0,.135-1.528,3.591,3.591,0,0,0-1.369-1.814,2.867,2.867,0,0,0-.208,2.06,4.04,4.04,0,0,0,1.237,1.684,20.636,20.636,0,0,0-1.105,2.792,3.915,3.915,0,0,0-.132-1.586A3.687,3.687,0,0,0,1.91,15.116a2.911,2.911,0,0,0,.166,2.1A4.165,4.165,0,0,0,3.617,18.7a21.831,21.831,0,0,0-.6,2.781,3.825,3.825,0,0,0-.4-1.419A3.815,3.815,0,0,0,.629,18.783a2.991,2.991,0,0,0,.539,2.084,4.4,4.4,0,0,0,1.782,1.2,18.142,18.142,0,0,0-.1,2.679,3.566,3.566,0,0,0-.62-1.218A3.845,3.845,0,0,0,0,22.6a3.061,3.061,0,0,0,.915,1.995,4.45,4.45,0,0,0,1.97.9,18.648,18.648,0,0,0,.4,2.614,3.538,3.538,0,0,0-.849-1.153A3.906,3.906,0,0,0,.026,26.4a3.106,3.106,0,0,0,1.282,1.846,4.5,4.5,0,0,0,2.15.547,18.365,18.365,0,0,0,.775,2.416,3.492,3.492,0,0,0-1.006-.937,4.006,4.006,0,0,0-2.517-.126,3.176,3.176,0,0,0,1.609,1.627,4.528,4.528,0,0,0,2.243.175,17.768,17.768,0,0,0,1.261,2.3,4.02,4.02,0,0,0-1.231-.815,4.092,4.092,0,0,0-2.551.321A3.2,3.2,0,0,0,3.954,35.1a4.6,4.6,0,0,0,2.3-.216c.126.176.257.352.389.52-.771.435-1.558.858-2.343,1.268l-.324.166.207.3.045.055a74.472,74.472,0,0,0,3.837,6.639c.681-.561,1.059-.878,1.651-1.393a23.171,23.171,0,0,0,12.5,3.619h.051a23.349,23.349,0,0,0,12.492-3.611c.573.508.958.82,1.625,1.369a72.275,72.275,0,0,0,3.848-6.578l.21-.3-.327-.171c-.806-.417-1.6-.842-2.395-1.286.151-.2.3-.4.458-.6a4.572,4.572,0,0,0,2.293.216,3.221,3.221,0,0,0,1.917-1.347,4.093,4.093,0,0,0-2.548-.321,4.011,4.011,0,0,0-1.234.815,20.952,20.952,0,0,0,1.27-2.3,4.472,4.472,0,0,0,2.228-.175,3.185,3.185,0,0,0,1.611-1.627,3.987,3.987,0,0,0-2.511.126,3.421,3.421,0,0,0-1.009.937A16.867,16.867,0,0,0,40.97,28.8a4.505,4.505,0,0,0,2.156-.547M26.512,43.8c.355-.139.53-.216.871-.363a.5.5,0,0,1-.174.269c-.131.081-.8.286-.857.345.065-.1.1-.148.16-.25m5.226-2.556a.884.884,0,0,1-.218.032l.007-.1.036-.087a1.492,1.492,0,0,1,.3.1Zm.478-.261-.007-.005-.065-.038a1.163,1.163,0,0,0-.247-.108c-.181-.052-.327-.1-.435-.141l-.08.029a.617.617,0,0,0-.2.439,1.279,1.279,0,0,0-.03.156v.009c-.007.083-.022.153-.029.2-.013.067-.021.1-.036.163l-.007.009c0,.021-.022.054-.1.1l-.146.081c-.058.026-.08.046-.146.08l-.079-.08-.123-.125a1.338,1.338,0,0,0-.233-.152v0l-.3-.1c.015.189.022.275.037.462H30a.593.593,0,0,1,.37.165c-.291.133-.428.2-.734.323a8.9,8.9,0,0,1-.95.343,1.984,1.984,0,0,1-.544.079.526.526,0,0,1-.414-.163c-.167-.112-.275-.541-.275-.541a2.35,2.35,0,0,0-.08.339.618.618,0,0,0,.051.374.728.728,0,0,0,.6.427,1.888,1.888,0,0,0,.849-.079c.123-.037.188-.06.312-.1a9.3,9.3,0,0,0,2.025-.923.851.851,0,0,0,.312-.251.543.543,0,0,0,.1-.235,1.22,1.22,0,0,0,.7-.245l.029-.024c.232-.191-.11-.455-.124-.469m-3.636.923c-.189-.018-.291-.026-.494-.046.029-.163.036-.236.065-.4.189.029.3.034.487.054a3.357,3.357,0,0,1-.058.388m.552-.189c-.189-.026-.283-.038-.479-.062a3.647,3.647,0,0,0,.051-.388c.2.022.29.035.486.05-.029.158-.037.232-.058.4M32.8,40.633c-.066.029-.1.029-.117.015l.015-.086a.339.339,0,0,1,.146-.006l.08.035Zm2.388-2.215a1.01,1.01,0,0,0-.53.151.553.553,0,0,0-.218.328.885.885,0,0,0,.058.4.878.878,0,0,1,.973-.414c-.232.182-.363.272-.609.447h-.007l-.008.012-.021.016-.008.005-.007,0a.721.721,0,0,1-.645.166c-.116-.063-.175-.091-.283-.162a3.732,3.732,0,0,0-.458-.208A1.636,1.636,0,0,1,33.1,39l.029-.028c.363-.561.537-.836.864-1.406-.08-.161-.116-.235-.2-.394-.305.548-.472.818-.82,1.356a4.048,4.048,0,0,0-.211.364.281.281,0,0,0,.13.333c.189.088.283.131.479.21l.153.066a.654.654,0,0,1,.311.2l.052.183a.246.246,0,0,1-.108.164c-.189.118-.291.17-.472.293l-.043.024-.11.069a.809.809,0,0,0-.275-.216.414.414,0,0,0-.327-.027l-.094.121a.622.622,0,0,0-.023.259l.023.172a.35.35,0,0,0,.057.183.319.319,0,0,0,.327.141.954.954,0,0,0,.378-.131l-.03.024a.924.924,0,0,1-.007.58.834.834,0,0,1-.392.482l-.109.043c-.087.018-.13.031-.217.055a.7.7,0,0,0-.044.19,3.514,3.514,0,0,0,.494-.052.337.337,0,0,0,.131-.035.721.721,0,0,0,.3-.19l.123-.167a1.042,1.042,0,0,0,.088-.434,1.065,1.065,0,0,0-.036-.311c-.043-.116-.073-.209-.11-.3l.138-.086.037-.024c.189-.109.275-.17.457-.283a.451.451,0,0,0,.16-.211.916.916,0,0,0,.057-.3,1.1,1.1,0,0,0,.377.018.758.758,0,0,0,.364-.144l.1-.073c.32-.227.479-.345.784-.573a1.431,1.431,0,0,0,.458-.729.763.763,0,0,0,.022-.152l-.1.072a.716.716,0,0,1-.174.068.5.5,0,0,1-.166.026c-.023,0-.073,0-.174,0a5.2,5.2,0,0,0-.566-.01M26.91,42.986a1.661,1.661,0,0,1-.834.445c-.573.079-.856.109-1.438.156h-.08c-.486.035-.718.049-1.2.057-.094,0-.146.005-.247.005-.472,0-.719,0-1.205-.027h-.029l-.1,0a1.2,1.2,0,0,1-.442.7,1.108,1.108,0,0,1-.8.206.861.861,0,0,1-.4-.136c-.108-.066-.155-.113-.155-.146,0-.014.069-.018.213-.018a2.379,2.379,0,0,0,.5-.052,1.463,1.463,0,0,0,.587-.263.758.758,0,0,0,.254-.351,1.067,1.067,0,0,1-.275-.174c.022-.222.029-.335.043-.56a1.1,1.1,0,0,0,.349.246c.1.051.057.07.275.078.254.013.385.013.632.02a.729.729,0,0,0-.037-.28.624.624,0,0,0-.21-.238c.1-.185.159-.279.247-.467a1.527,1.527,0,0,1,.181.243,1.626,1.626,0,0,1,.153.746h.21c.094,0,.144,0,.254,0,.174-.006.261-.006.436-.01a1.535,1.535,0,0,1,.188-.011h.007a.48.48,0,0,0-.2-.3l-.015-.005c.073-.177.116-.271.2-.45l.2.227h.007a1.292,1.292,0,0,1,.094.23l.029.172.014.005.007.1c.08,0,.124,0,.2-.006l.088-.015c.094-.007.138-.007.239-.018.406-.035.609-.052,1.015-.112a.936.936,0,0,0-1.1-.117.965.965,0,0,1,.189-.4.67.67,0,0,1,.377-.185,1.123,1.123,0,0,1,.537.136,5.238,5.238,0,0,1,.5.293c.094.051.138.075.16.084a.439.439,0,0,0,.159.063.7.7,0,0,0,.2.026l.138-.013s-.044.048-.117.124m-4.747.846c.182.087.261.13.443.219-.088.138-.138.211-.225.356-.182-.084-.276-.132-.443-.218.087-.149.131-.217.225-.356m1.626.2c-.094.143-.124.218-.211.369-.189-.079-.283-.12-.457-.2a4.142,4.142,0,0,1,.21-.374c.174.087.261.122.458.2m.166-.234c.174.08.261.114.45.183-.08.15-.131.23-.218.373-.167-.067-.261-.1-.436-.184.08-.149.117-.225.2-.372m1.64-1.793c-.166-.059-.261-.085-.428-.153.058-.154.087-.227.152-.387.166.064.254.1.413.151-.051.158-.079.236-.137.389M8.189,38.7c-.028-.072-.037-.107-.069-.177l.138-.113.063-.058c.155-.153.434-.5.846-1.03.054-.087.167-.222.308-.405.051-.023.125-.046.215-.077.043-.016.185-.064.432-.131-.213.275-.308.407-.51.688-.082.113-.225.305-.419.564a3.876,3.876,0,0,1-.381.455.639.639,0,0,1-.263.187c-.073.027-.19.052-.36.1m3.308.437c-.09-.166-.139-.244-.224-.411l.376-.179c.087.161.13.236.227.4-.146.075-.224.112-.38.189M17.134,41.8c-.135-.121-.207-.189-.347-.317.121-.121.182-.172.3-.293.135.127.2.194.342.318-.113.122-.179.172-.3.291m-4.291-1.82c-.1-.155-.16-.23-.263-.392.147-.08.221-.129.36-.216.105.164.154.239.268.391-.15.09-.221.133-.364.218M9.576,38.921l-.1-.113-.05-.071.005-.024.091-.028.054.141ZM12.791,41.6c.093-.187.143-.277.247-.464a2.043,2.043,0,0,0,.183-.473,2.841,2.841,0,0,0-.059-.468c-.182.119-.271.177-.438.289a1.554,1.554,0,0,1,.066.316.571.571,0,0,1-.066.223c-.289-.157-.442-.235-.723-.408a1.89,1.89,0,0,0-.2-.119c-.067-.047-.1-.066-.16-.1a.555.555,0,0,1-.146-.116l-.008-.069a2.1,2.1,0,0,0,.2.157l.388-.233c-.126-.1-.213-.165-.254-.2l-.146-.129a2.628,2.628,0,0,1-.269-.31,3.722,3.722,0,0,0-.252-.313.9.9,0,0,0-.534-.313,1.3,1.3,0,0,0-.46.1l-.071.02a.706.706,0,0,1,.247.1,2.26,2.26,0,0,1,.425.314.818.818,0,0,1,.1.115,1.02,1.02,0,0,1,.118.165l-.007.005c-.046.065-.1.16-.183.13l-.147-.087c-.182-.125-.271-.19-.45-.327l-.041-.037-.05-.031c-.083-.063-.121-.094-.208-.165L9.814,39.1a.706.706,0,0,0,.123-.333.343.343,0,0,0-.081-.321L9.7,38.393a1.131,1.131,0,0,0-.28.055l-.171.065a.64.64,0,0,0-.179.1.29.29,0,0,0-.041.348.892.892,0,0,0,.265.321l-.026-.011a1.056,1.056,0,0,1-.634.135,1.019,1.019,0,0,1-.659-.27L7.89,39.06c-.043-.087-.071-.124-.118-.21H7.547a3.186,3.186,0,0,0,.208.467l.076.122a1.043,1.043,0,0,0,.321.241.958.958,0,0,0,.218.084,1.415,1.415,0,0,0,.836-.133c.1-.068.2-.122.286-.179l.107.085.214.168c.1.08.158.111.261.193.121.084.174.127.287.209a.713.713,0,0,0,.418.161.344.344,0,0,0,.232-.111l.1-.125.054-.1.023-.034.059.065c-.049.069-.067.1-.116.165a.381.381,0,0,0-.059.341.7.7,0,0,0,.3.318c.07.048.1.065.174.111s.129.072.211.123c.4.244.6.358,1.031.577M14.91,41c-.126-.147-.19-.217-.307-.366.13-.1.2-.146.332-.246.122.14.183.214.305.353-.132.1-.2.153-.33.259m.242-.147c.132-.1.205-.149.325-.26.123.147.186.213.312.343-.131.113-.21.166-.34.27-.124-.144-.182-.215-.3-.353m-1.631.579-.065-.1.081-.037.083.124.018.094Zm6.147.957c-.121.168-.182.25-.313.42a1.565,1.565,0,0,1,.187.28,1.066,1.066,0,0,1,.005.235c-.588-.093-.888-.147-1.467-.273-.1-.026-.14-.038-.241-.062-.073-.018-.116-.027-.189-.047a.475.475,0,0,1-.167-.06l-.027-.063a1.358,1.358,0,0,0,.246.092c.118-.143.18-.215.3-.353a1.982,1.982,0,0,1-.31-.107c-.08-.03-.145-.062-.183-.079a2.334,2.334,0,0,1-.344-.2,3.543,3.543,0,0,0-.348-.218.929.929,0,0,0-.609-.132,1.271,1.271,0,0,0-.4.243l-.055.043a.573.573,0,0,1,.266.009,2.406,2.406,0,0,1,.489.165h.007s.065.032.133.074.09.069.165.112l-.005.023c-.025.073-.044.179-.121.177a.507.507,0,0,1-.178-.036c-.209-.068-.319-.1-.53-.175l-.054-.012-.047-.026c-.106-.029-.154-.046-.249-.077-.176-.07-.263-.1-.438-.169l.03-.1v-.009l.038-.171a.93.93,0,0,0,.007-.253h0l-.09-.287c-.151.129-.229.2-.378.322v.01a.581.581,0,0,1,.09.274l-.029.085c-.127-.06-.2-.081-.323-.141-.113-.044-.165-.063-.277-.118l-.229-.1-.111-.048a.755.755,0,0,0,.044-.346.336.336,0,0,0-.155-.3l-.16-.018a1.227,1.227,0,0,0-.258.121l-.16.1-.133.149a.287.287,0,0,0,.034.35.98.98,0,0,0,.327.244l-.028-.013a1.036,1.036,0,0,1-.575.289,1.118,1.118,0,0,1-.708-.1l-.088-.07a2.024,2.024,0,0,1-.171-.168c-.088.02-.126.035-.209.052a2.919,2.919,0,0,0,.3.4l.111.093a.816.816,0,0,0,.353.164.73.73,0,0,0,.235.034,1.256,1.256,0,0,0,.486-.133,1.058,1.058,0,0,0,.283-.192c.091-.091.174-.165.243-.246l.135.065c.093.04.143.062.231.1.554.246.833.358,1.406.564.107.038.152.049.25.09.127.043.189.061.31.1.143.048.207.071.348.11a.652.652,0,0,0,.436.021A.34.34,0,0,0,17,42.921l.042-.143.035-.118.006-.04.09.052a1.171,1.171,0,0,0-.071.163.39.39,0,0,0,.046.362.662.662,0,0,0,.389.206,1.49,1.49,0,0,0,.191.048c.1.022.151.034.248.058a16.864,16.864,0,0,0,1.835.323l.072-.52a1.732,1.732,0,0,0,.013-.51,2.881,2.881,0,0,0-.227-.416m-1.7,1.888c-.171-.114-.25-.18-.421-.308.128-.116.189-.177.31-.3.169.119.247.18.417.3-.121.128-.186.187-.305.308m.53-.486c.163.116.249.175.427.294-.117.123-.187.186-.313.31-.164-.118-.243-.174-.408-.3.124-.123.185-.182.295-.305m-.312.439c.164.117.251.179.425.291-.119.129-.18.2-.294.32-.171-.121-.26-.178-.423-.306.116-.122.176-.184.292-.305M7.875,26.356,13.5,19.225l6.689,6.288,3.371-3.526,2.191,2.031,2.962-3.88.059-.069,1.64-1.926,6.22,7.466a14.456,14.456,0,0,1-5.574,9.509L30.5,27.074h-.835v.473h-.624v-.473h-.972v.473h-.436v-.473H26.57l-.1,1.137h-.9v.624h-.732v-.624h-.973v.624h-.6v-.624h-.935v.624h-.639v-.624H20.7v.624h-.541v-.624H19.073v.624h-.542v-.624h-.784l-.1-1.137H16.586v.473H16.15v-.473h-.971v.473h-.618v-.473h-.842L13.17,35a14.452,14.452,0,0,1-5.294-8.641m19.58-5.731-1.772,2.427-2.155-2-3.367,3.521-4.471-4.2,1.823-2.165L20.3,20.7l3.318-3.318ZM7.619,23.645a14.574,14.574,0,0,1,29.148,0c0,.344-.014.694-.043,1.04l-6.3-7.611-2.512,2.961-4.341-3.662-3.35,3.342-2.773-2.485-2.242,2.687-1.779-1.673L7.738,25.461a13.754,13.754,0,0,1-.119-1.817m10.466,8.293a13.082,13.082,0,0,1,8.049,0l-.305,3.309H18.388Zm4.108,6.178A14.55,14.55,0,0,1,14.148,35.7H30.235a14.551,14.551,0,0,1-8.042,2.411M12.883,35.7a15.356,15.356,0,0,0,18.615,0h.094v-.071A15.248,15.248,0,1,0,6.88,23.645a15.148,15.148,0,0,0,5.89,11.969v.09Zm7.346-14.452a.146.146,0,0,1,.011.213l-.108.053-.112-.039L17.989,19.64a.152.152,0,0,1-.013-.215.16.16,0,0,1,.222-.011Zm-.1-19.88-.857-.3.892-.166L20.183,0l.442.8.864-.257-.617.651.522.738-.829-.377-.544.714Zm.751,5.444a3.5,3.5,0,0,0,4.357-2.333A3.459,3.459,0,0,0,22.882.169a2.277,2.277,0,0,0-.349-.093,2.985,2.985,0,0,1,1.713,3.6A3,3,0,0,1,18.4,3.217a3.468,3.468,0,0,0,2.483,3.6" transform="translate(0 0)" fill="#fff" fill-rule="evenodd"/>
  </g>
</svg>
