<svg xmlns="http://www.w3.org/2000/svg" xmlns:xlink="http://www.w3.org/1999/xlink" width="48" height="37.251" viewBox="0 0 48 37.251">
  <defs>
    <linearGradient id="linear-gradient" x1="1.099" y1="-0.428" x2="-0.039" y2="1.448" gradientUnits="objectBoundingBox">
      <stop offset="0" stop-color="#4b2a7a"/>
      <stop offset="1" stop-color="#08a1a7"/>
    </linearGradient>
  </defs>
  <g id="car" transform="translate(0 -5.375)">
    <path id="Path_3251" data-name="Path 3251" d="M23.7,5.389c-5.59-.082-13.356.038-14.955,4.333L4.813,18.94a1.368,1.368,0,0,0-.658-.415L2.574,18.08a1.373,1.373,0,0,0-1.7.952l-.826,2.93A1.373,1.373,0,0,0,1,23.659l1.583.445c.053.014.106.019.158.028a6.426,6.426,0,0,0-.491,2.075V36.92a.838.838,0,0,0,.6.923V40.7a1.924,1.924,0,0,0,1.928,1.928H9.95A1.924,1.924,0,0,0,11.879,40.7v-2.75H36.12V40.7a1.925,1.925,0,0,0,1.929,1.928h5.172A1.925,1.925,0,0,0,45.15,40.7V37.843a.837.837,0,0,0,.6-.923V26.207a6.437,6.437,0,0,0-.491-2.075,1.308,1.308,0,0,0,.158-.029L47,23.659a1.373,1.373,0,0,0,.951-1.7l-.824-2.93a1.373,1.373,0,0,0-1.7-.952l-1.582.445a1.37,1.37,0,0,0-.658.415L39.258,9.722C37.544,5.362,29.287,5.472,23.7,5.389ZM39.708,19.523c.093.276-.185.461-.477.478,0,0-.952.081-2.266.187a6.53,6.53,0,0,0-12.275.7c-.223,0-.481.012-.689.012-5.086,0-15.234-.9-15.234-.9-.291-.017-.57-.2-.477-.478C12.2,7.608,12.316,8.5,23.784,8.629S35.318,7.9,39.708,19.523Zm-8.754-1.064a4.265,4.265,0,0,1,3.575,1.916c-2.3.171-4.94.345-7.4.446a4.262,4.262,0,0,1,3.829-2.362ZM4.515,22.325c.035.051.068.1.106.152H4.473Zm2.541,2.992c1.006-.017,6.407,1.8,6.407,1.8.674.19,1.268,1.464,1.265,2.165-.01,2.36-6.1,1.541-8.573,1.55A1.262,1.262,0,0,1,4.891,29.57V26.582c0-.7,1.16-1.248,2.166-1.265Zm33.887,0c1.006.016,2.166.564,2.166,1.265V29.57a1.262,1.262,0,0,1-1.265,1.265c-2.472-.01-8.563.809-8.573-1.55,0-.7.59-1.976,1.265-2.166,0,0,5.4-1.818,6.407-1.8Z" fill="url(#linear-gradient)"/>
  </g>
</svg>
