<?xml version="1.0" encoding="utf-8"?>
<!-- Generator: Adobe Illustrator 26.0.1, SVG Export Plug-In . SVG Version: 6.00 Build 0)  -->
<svg version="1.1" id="Layer_1" xmlns="http://www.w3.org/2000/svg" xmlns:xlink="http://www.w3.org/1999/xlink" x="0px" y="0px"
	 viewBox="0 0 174.7 174.7" style="enable-background:new 0 0 174.7 174.7;" xml:space="preserve">
<style type="text/css">
	.st0{fill:url(#SVGID_1_);}
	.st1{fill:url(#SVGID_00000137111863112948035270000004378403259882472596_);}
	.st2{fill:url(#SVGID_00000069360075510162293340000003442609546059983758_);}
	.st3{fill:url(#SVGID_00000126322965971325159810000007497415985086901178_);}
	.st4{fill:url(#SVGID_00000111176464390710609080000000150509847561521086_);}
	.st5{fill:url(#SVGID_00000170267198950090934030000018430131285078335112_);}
	.st6{fill:url(#SVGID_00000166652241684157382260000000120755497027245452_);}
	.st7{fill:url(#SVGID_00000074436260137710028630000005171443967994592655_);}
	.st8{fill:url(#SVGID_00000114051787303173819240000008887079803517878957_);}
	.st9{fill:url(#SVGID_00000013193584528700610680000002154165763966163858_);}
	.st10{fill:url(#SVGID_00000041289250237266152460000014653042796178624937_);}
	.st11{fill:url(#SVGID_00000183940921452718400280000007480911901771157380_);}
	.st12{fill:url(#SVGID_00000112595291749616495220000008682788068380710016_);}
	.st13{fill:url(#SVGID_00000179646903903251507600000010672377573936555162_);}
</style>
<g>
	
		<linearGradient id="SVGID_1_" gradientUnits="userSpaceOnUse" x1="-359.6841" y1="1383.2965" x2="-558.4913" y2="1055.5615" gradientTransform="matrix(1 0 0 -1 564 1316)">
		<stop  offset="0" style="stop-color:#4B2A7A"/>
		<stop  offset="1" style="stop-color:#08A1A7"/>
	</linearGradient>
	<path class="st0" d="M57.47,134.1c5.58,19.98,14.71,36.48,24.72,40.6v-40.6H57.47z"/>
	
		<linearGradient id="SVGID_00000018211559657648814820000012797756215369283258_" gradientUnits="userSpaceOnUse" x1="-382.2885" y1="1397.0085" x2="-581.0958" y2="1069.2737" gradientTransform="matrix(1 0 0 -1 564 1316)">
		<stop  offset="0" style="stop-color:#4B2A7A"/>
		<stop  offset="1" style="stop-color:#08A1A7"/>
	</linearGradient>
	<path style="fill:url(#SVGID_00000018211559657648814820000012797756215369283258_);" d="M51.31,93.15
		c0.33,10.39,1.62,20.85,3.7,30.71H82.2V93.15H51.31z"/>
	
		<linearGradient id="SVGID_00000141446308151420147990000017603123552717130416_" gradientUnits="userSpaceOnUse" x1="-341.189" y1="1372.0771" x2="-539.9962" y2="1044.3423" gradientTransform="matrix(1 0 0 -1 564 1316)">
		<stop  offset="0" style="stop-color:#4B2A7A"/>
		<stop  offset="1" style="stop-color:#08A1A7"/>
	</linearGradient>
	<path style="fill:url(#SVGID_00000141446308151420147990000017603123552717130416_);" d="M92.47,134.1v40.6
		c10.01-4.12,19.17-20.62,24.76-40.6H92.47z"/>
	
		<linearGradient id="SVGID_00000006704986910316823300000002766704412313432744_" gradientUnits="userSpaceOnUse" x1="-414.7167" y1="1416.6798" x2="-613.524" y2="1088.9449" gradientTransform="matrix(1 0 0 -1 564 1316)">
		<stop  offset="0" style="stop-color:#4B2A7A"/>
		<stop  offset="1" style="stop-color:#08A1A7"/>
	</linearGradient>
	<path style="fill:url(#SVGID_00000006704986910316823300000002766704412313432744_);" d="M41.08,93.15H0.26
		c0.64,10.89,3.25,21.25,7.55,30.71h36.71C42.54,114.04,41.38,103.64,41.08,93.15z"/>
	
		<linearGradient id="SVGID_00000152947214643789659320000001803949646154567343_" gradientUnits="userSpaceOnUse" x1="-382.7247" y1="1397.2732" x2="-581.5319" y2="1069.5382" gradientTransform="matrix(1 0 0 -1 564 1316)">
		<stop  offset="0" style="stop-color:#4B2A7A"/>
		<stop  offset="1" style="stop-color:#08A1A7"/>
	</linearGradient>
	<path style="fill:url(#SVGID_00000152947214643789659320000001803949646154567343_);" d="M46.96,134.1H13.33
		c11.53,18.37,29.68,32.94,51.13,38.71C57.12,163.6,51.09,149.44,46.96,134.1z"/>
	
		<linearGradient id="SVGID_00000087386785930097943210000002079125206645952434_" gradientUnits="userSpaceOnUse" x1="-314.0667" y1="1355.6245" x2="-512.874" y2="1027.8896" gradientTransform="matrix(1 0 0 -1 564 1316)">
		<stop  offset="0" style="stop-color:#4B2A7A"/>
		<stop  offset="1" style="stop-color:#08A1A7"/>
	</linearGradient>
	<path style="fill:url(#SVGID_00000087386785930097943210000002079125206645952434_);" d="M127.74,134.1
		c-4.12,15.34-10.16,29.5-17.49,38.71c21.44-5.77,39.6-20.34,51.13-38.71H127.74z"/>
	
		<linearGradient id="SVGID_00000012461544033300231870000002106525812534837179_" gradientUnits="userSpaceOnUse" x1="-321.2458" y1="1359.9795" x2="-520.053" y2="1032.2445" gradientTransform="matrix(1 0 0 -1 564 1316)">
		<stop  offset="0" style="stop-color:#4B2A7A"/>
		<stop  offset="1" style="stop-color:#08A1A7"/>
	</linearGradient>
	<path style="fill:url(#SVGID_00000012461544033300231870000002106525812534837179_);" d="M133.62,93.15
		c-0.3,10.49-1.46,20.89-3.44,30.71h36.71c4.3-9.46,6.91-19.81,7.55-30.71H133.62z"/>
	
		<linearGradient id="SVGID_00000177452936681080665740000005600502799437044099_" gradientUnits="userSpaceOnUse" x1="-353.539" y1="1379.5688" x2="-552.3463" y2="1051.8339" gradientTransform="matrix(1 0 0 -1 564 1316)">
		<stop  offset="0" style="stop-color:#4B2A7A"/>
		<stop  offset="1" style="stop-color:#08A1A7"/>
	</linearGradient>
	<path style="fill:url(#SVGID_00000177452936681080665740000005600502799437044099_);" d="M92.47,93.15v30.71h27.22
		c2.08-9.85,3.38-20.32,3.7-30.71H92.47z"/>
	
		<linearGradient id="SVGID_00000060724535453390875030000006970690660632877217_" gradientUnits="userSpaceOnUse" x1="-405.8752" y1="1411.3164" x2="-604.6824" y2="1083.5815" gradientTransform="matrix(1 0 0 -1 564 1316)">
		<stop  offset="0" style="stop-color:#4B2A7A"/>
		<stop  offset="1" style="stop-color:#08A1A7"/>
	</linearGradient>
	<path style="fill:url(#SVGID_00000060724535453390875030000006970690660632877217_);" d="M87.35,0C76.06,0,66.54,10.21,66.54,21.5
		c0,11.29,9.52,20.47,20.81,20.47s20.81-9.18,20.81-20.47C108.16,10.21,98.64,0,87.35,0z"/>
	
		<linearGradient id="SVGID_00000022518195621891111800000006959921298896369322_" gradientUnits="userSpaceOnUse" x1="-353.8587" y1="1379.7627" x2="-552.666" y2="1052.0278" gradientTransform="matrix(1 0 0 -1 564 1316)">
		<stop  offset="0" style="stop-color:#4B2A7A"/>
		<stop  offset="1" style="stop-color:#08A1A7"/>
	</linearGradient>
	<path style="fill:url(#SVGID_00000022518195621891111800000006959921298896369322_);" d="M149.11,21.5
		c-8.47,0-15.35,6.89-15.35,15.35c0,8.47,6.89,15.35,15.35,15.35c8.47,0,15.35-6.89,15.35-15.35
		C164.46,28.38,157.57,21.5,149.11,21.5z"/>
	
		<linearGradient id="SVGID_00000006693588554331748630000006517961162102835883_" gradientUnits="userSpaceOnUse" x1="-444.151" y1="1434.5349" x2="-642.9582" y2="1106.8" gradientTransform="matrix(1 0 0 -1 564 1316)">
		<stop  offset="0" style="stop-color:#4B2A7A"/>
		<stop  offset="1" style="stop-color:#08A1A7"/>
	</linearGradient>
	<path style="fill:url(#SVGID_00000006693588554331748630000006517961162102835883_);" d="M25.59,21.5
		c-8.47,0-15.35,6.89-15.35,15.35c0,8.47,6.89,15.35,15.35,15.35c8.47,0,15.35-6.89,15.35-15.35C40.95,28.38,34.06,21.5,25.59,21.5z
		"/>
	
		<linearGradient id="SVGID_00000111173949621170554350000008131507442235568051_" gradientUnits="userSpaceOnUse" x1="-336.7049" y1="1369.3571" x2="-535.5121" y2="1041.6222" gradientTransform="matrix(1 0 0 -1 564 1316)">
		<stop  offset="0" style="stop-color:#4B2A7A"/>
		<stop  offset="1" style="stop-color:#08A1A7"/>
	</linearGradient>
	<path style="fill:url(#SVGID_00000111173949621170554350000008131507442235568051_);" d="M164.16,57.44c-4.24,3.11-9.41,5-15.05,5
		c-5.65,0-10.84-1.9-15.08-5.02c-2.46,1.84-4.71,3.94-6.38,6.52c0.62,2.82,0.99,5.73,0.99,8.73v10.24h42.45c2,0,3.62-1.62,3.62-3.62
		C174.7,70.63,170.63,62.5,164.16,57.44z"/>
	
		<linearGradient id="SVGID_00000106146578678541571890000007252896902981333407_" gradientUnits="userSpaceOnUse" x1="-383.4318" y1="1397.702" x2="-582.239" y2="1069.9672" gradientTransform="matrix(1 0 0 -1 564 1316)">
		<stop  offset="0" style="stop-color:#4B2A7A"/>
		<stop  offset="1" style="stop-color:#08A1A7"/>
	</linearGradient>
	<path style="fill:url(#SVGID_00000106146578678541571890000007252896902981333407_);" d="M104.56,47.11
		c-4.85,3.2-10.98,5.09-17.21,5.09c-6.22,0-12.34-1.89-17.19-5.08C61.66,52.94,56.3,63.1,56.3,73.91v3.89
		c0,2.87,2.25,5.12,5.12,5.12h51.86c2.87,0,5.12-2.25,5.12-5.12v-5.12C118.4,61.7,112.87,52.59,104.56,47.11z"/>
	
		<linearGradient id="SVGID_00000155827533742938276480000002631292079776573351_" gradientUnits="userSpaceOnUse" x1="-428.1317" y1="1424.8175" x2="-626.939" y2="1097.0825" gradientTransform="matrix(1 0 0 -1 564 1316)">
		<stop  offset="0" style="stop-color:#4B2A7A"/>
		<stop  offset="1" style="stop-color:#08A1A7"/>
	</linearGradient>
	<path style="fill:url(#SVGID_00000155827533742938276480000002631292079776573351_);" d="M40.67,57.42
		c-4.24,3.12-9.42,5.02-15.08,5.02c-5.64,0-10.82-1.89-15.05-5C4.07,62.5,0,70.63,0,79.3v3.62h46.06V72.68c0-3,0.37-5.91,0.99-8.73
		C45.37,61.36,43.13,59.26,40.67,57.42z"/>
</g>
</svg>
