<svg xmlns="http://www.w3.org/2000/svg" xmlns:xlink="http://www.w3.org/1999/xlink" width="62.686" height="43.007" viewBox="0 0 62.686 43.007">
  <defs>
    <linearGradient id="linear-gradient" x1="1.099" y1="-0.428" x2="-0.039" y2="1.448" gradientUnits="objectBoundingBox">
      <stop offset="0" stop-color="#4b2a7a"/>
      <stop offset="1" stop-color="#08a1a7"/>
    </linearGradient>
  </defs>
  <g id="Group_3127" data-name="Group 3127" transform="translate(-282.692 -896.583)">
    <path id="Path_22473" data-name="Path 22473" d="M331.909,907.807l.027-.591,2.074-.027h.08v.027h.16l.027.483.611-.483h.106l.638-.027.638-.081h.186l.638.483.027-.483h1.861l.027.483.638-.483h1.568l.638.483.027-.483h1.781l.027.483.638-.483h1.542l.665.483.027-.483h1.861l.027.483.638-.483h.16l.638.081.665.027h.08l.638.51.027-.51h.16v-.027h.053l2.073.027.027.617.745-.564-.027-.054h.027l.186-1.531v-.027l.027-.027V905.6l.027-.027.027-.027v-.027l.027-.027v-.027l.027-.027.027-.027h0l.027-.027.027-.027v-.027l.027-.027h.027v-.027l.027-.027.027-.027h.027V905.2h0l.027-.027h.027v-.027h0l.027-.027h.027l.027-.027h0l.027-.027.027-.027h.027l.027-.027h0l.027-.027h.027l.027-.027h.027v-.027h.053l.027-.027h.027v-.027h.053l.027-.027h.053l.027-.027h.027l.027-.027h.053l.027-.027h.08v-.027h.106l.027-.027.027.027h0l.027-.027.638.242.08-.456a4.1,4.1,0,0,1,1.249-.161h.08a6.652,6.652,0,0,1,.744.027l.027.725h.9l.08-.725h.16l.027.027h.372l.027.027h.239l.027.027h.16l.027.027h.16l.027.027h.106l.027.027h.08l.027.027h.08l.027.027h.08l.027.027h.053l.027.027h.053l.027.027h.053l.027.027h.027v.671l.638-.268h.027a36.233,36.233,0,0,1,2.366,7.464,107.58,107.58,0,0,1,1.941,11.062c-3.376,3.168-7.816,5.4-14.807,6.283.08-.752.824-15.976.877-16.459a37.925,37.925,0,0,0-19.805,0s.479,15.278.532,15.869a58.749,58.749,0,0,1-14.887-4.752c.213-2.148.532-4.565,1.01-6.981a2.841,2.841,0,0,0,.558.134,3.782,3.782,0,0,0,1.09-.081h.053a.9.9,0,0,0,.532-.457,1.4,1.4,0,0,0,.186-.591c0-.161.027-.484.027-.806a3.9,3.9,0,0,0-.053-.644c-.027-.054-.027-.134-.08-.188a1.19,1.19,0,0,0-1.116-.618,1.773,1.773,0,0,0-.532,0c.133-.537.239-1.074.372-1.611h.106l.027-.027h.08v-.027h.053l.027-.027h.053l.026-.027h.027l.027-.027h.053v-.027h.053v-.027h.053v-.027h.027v-.027h.053v-.027h.027v-.027h.027a2.391,2.391,0,0,0,.425-1.88v-.456h0v-.081h0v-.027h0v-.054h0V909.9h0v-.054h0v-.027h0v-.054h0v-.054h0v-.027h0v-.054h0v-.054h0v-.027h0v-.027h-.027V909.5h0v-.027h0v-.027h0v-.027h0v-.027h0v-.027h0v-.054h0v-.027h0v-.054h-.027v-.081h0v-.027h0V909.1h0v-.027h0a27.967,27.967,0,0,1,1.568-3.974l.053.027.027-.027.558.242.027-.644h.027l.027-.027h.053l.027-.027h.053l.027-.027h.053l.027-.027h.053l.027-.027h.106l.027-.027h.08l.027-.027h.106l.027-.027h.16l.027-.027h.133l.053-.027h.239l.027-.027h.346l.053-.027h.186l.106.725h.851l.027-.725a7.149,7.149,0,0,1,.771-.027h.053a4.44,4.44,0,0,1,1.3.161l.053.456.611-.242.027.027h.027l.027-.027.027.027h.106l.027.027h.053l.027.027h.053l.027.027h.053v.027h.053l.027.027h.053l.027.027h0l.027.027h.053l.027.027h0l.027.027h.027l.027.027h.027v.027h.027l.027.027.027.027h.027v.027h.027l.027.027h0v.027h.027l.027.027h0l.027.027h0l.027.027.027.027v.027h.027l.027.027v.027l.027.027.027.027h0l.027.027.027.027v.027l.027.027.026.027v.027l.027.027v.027l.027.027.027.027.16,1.531h.053l-.053.054Zm-12.282,9.1c.133-.618.266-1.262.4-1.906a5.052,5.052,0,0,1,.665-.027c.239.027.505.081.558.242l.027.081a2.212,2.212,0,0,1,.027.483v.725a1.078,1.078,0,0,1-.106.349c-.027.081-.08.108-.16.134l-.027.027a2.872,2.872,0,0,1-.877.027,1.011,1.011,0,0,1-.505-.134Zm1.143-4.941c.106-.349.186-.725.292-1.074h0v.027h0v.027h0v.027h0V911h0v.027h0v.027h0v.027h0v.027h0v.027h0v.027h0v.027h0v.027h0v.027h0v.027h0v.027h0v.027h0v.027h0v.027h0v.027h0v.027h0l-.027.027h0v.027h0v.027h0v.027h0v.027h0v.027h-.027v.027h0v.027h0v.027h0v.027h-.027v.027h0v.027h-.027v.027h0v.027h0l-.027.027h0v.027H320.9v.027h-.027v.027h-.027v.027h-.027v.027h-.053Zm22.783-15.385a3.708,3.708,0,0,1-1.143,7.223,3.664,3.664,0,0,1-3.376-2.309,3.265,3.265,0,0,0,2.472,1.128,3.377,3.377,0,0,0,2.047-6.041Zm-2.5.779-.08.859.771.322-.824.188-.08.859-.425-.752-.824.188.558-.617-.425-.752.771.349Zm-16.642,11.25-.665,2.443,1.037-.027v-2.443Zm36.288-.322-.4,2.5,1.063-.054-.292-2.416Zm-2.153,3.329-.4,2.47,1.063-.054-.293-2.417Zm-32.38.457-.4,2.47,1.063-.027-.292-2.416Zm2.207-3.464-.4,2.47,1.063-.027-.292-2.417Zm28.365-.322-.665,2.47,1.037-.054v-2.443Z" transform="translate(-30.216)" fill-rule="evenodd" fill="url(#linear-gradient)"/>
    <path id="Path_22474" data-name="Path 22474" d="M380.653,1014.692c18.1,15.2-25.787,38.1-51.1,14.123h.027c24.91,21.964,66.142.833,51.068-14.123Z" transform="translate(-39.536 -99.636)" fill-rule="evenodd" fill="url(#linear-gradient)"/>
    <path id="Path_22475" data-name="Path 22475" d="M364.312,988.942c25.494,15.036-21.48,41.457-48.011,16.3,33.682,15.09,62.739-1.289,48.011-16.3Z" transform="translate(-28.353 -77.913)" fill-rule="evenodd" fill="url(#linear-gradient)"/>
    <path id="Path_22476" data-name="Path 22476" d="M284.431,1006.212c-.8.107-.851.51-.877,1.289a7.383,7.383,0,0,0,.16,2.443l.159.242a1.382,1.382,0,0,0,.984.215c1.834.054,2.871.322,2.9-1.289.027-2.041.266-2.873-1.3-2.927a16.869,16.869,0,0,0-2.02.027Z" transform="translate(-0.709 -92.445)" fill-rule="evenodd" fill="url(#linear-gradient)"/>
    <path id="Path_22477" data-name="Path 22477" d="M316.33,975.628c0-1.289-.213-1.423-1.063-1.45h-.93c-1.276,0-1.436.188-1.436,1.262l.027,1.02a2.432,2.432,0,0,0,.08.832.569.569,0,0,0,.4.322,9,9,0,0,0,1.728.027,1.891,1.891,0,0,0,.984-.269c.266-.215.239-.833.213-1.343v-.4Z" transform="translate(-25.484 -65.459)" fill-rule="evenodd" fill="url(#linear-gradient)"/>
    <path id="Path_22478" data-name="Path 22478" d="M283.775,971.356c-1.143,0-1.117.188-1.063,1.826.027.993.213,1.1,1.808,1.047.452-.027.851-.054,1.01-.456a4.638,4.638,0,0,0,.08-1.369c-.027-1.262-.691-1.047-1.834-1.047Z" transform="translate(0 -63.067)" fill-rule="evenodd" fill="url(#linear-gradient)"/>
    <path id="Path_22479" data-name="Path 22479" d="M324.578,1014.218a.409.409,0,0,0-.186.08c-.027,0-.027,0-.08.054a1.485,1.485,0,0,0-.08.564,3.344,3.344,0,0,0,.053.967v.027c.08.188.372.268.665.3a2.872,2.872,0,0,0,.877-.027l.027-.027c.08-.027.133-.054.16-.134a1.079,1.079,0,0,0,.106-.349v-.725a2.21,2.21,0,0,0-.027-.483l-.027-.081c-.053-.161-.319-.215-.558-.242a4,4,0,0,0-.877.054Z" transform="translate(-35.035 -99.162)" fill-rule="evenodd" fill="url(#linear-gradient)"/>
    <path id="Path_22480" data-name="Path 22480" d="M295.161,1048.875c-.638.135-.8.376-.718,1.343.08.752.638.779,1.356.725.346-.054.505-.134.611-.43.08-.268.266-1.369-.372-1.584a1.948,1.948,0,0,0-.877-.054Z" transform="translate(-9.897 -128.449)" fill-rule="evenodd" fill="url(#linear-gradient)"/>
    <path id="Path_22481" data-name="Path 22481" d="M315.18,949.65c-.638.134-.771.376-.691,1.316.053.779.638.806,1.356.725a.6.6,0,0,0,.612-.4c.08-.269.266-1.369-.372-1.584a2.04,2.04,0,0,0-.9-.054Z" transform="translate(-26.806 -44.744)" fill-rule="evenodd" fill="url(#linear-gradient)"/>
  </g>
</svg>
