<?xml version="1.0" encoding="utf-8"?>
<!-- Generator: Adobe Illustrator 26.0.1, SVG Export Plug-In . SVG Version: 6.00 Build 0)  -->
<svg version="1.1" id="Layer_1" xmlns="http://www.w3.org/2000/svg" xmlns:xlink="http://www.w3.org/1999/xlink" x="0px" y="0px"
	 viewBox="0 0 174.7 174.7" style="enable-background:new 0 0 174.7 174.7;" xml:space="preserve">
<style type="text/css">
	.st0{fill:url(#SVGID_1_);}
	.st1{fill:url(#SVGID_00000144302790465656001080000006506097766569453978_);}
	.st2{fill:url(#SVGID_00000039128082454913827450000009151670722920632762_);}
	.st3{fill:url(#SVGID_00000049925728512494489170000015946861241027603073_);}
	.st4{fill:url(#SVGID_00000127731393364679058790000016158365198107021966_);}
	.st5{fill:url(#SVGID_00000141446834731015968460000016866359837869644177_);}
	.st6{fill:url(#SVGID_00000095311168412711938190000016597053763104280250_);}
	.st7{fill:url(#SVGID_00000090265456897316592840000009832167685672843675_);}
	.st8{fill:url(#SVGID_00000081647909155267601770000016380640403880767113_);}
	.st9{fill:url(#SVGID_00000138547346768280448300000016261687550498631053_);}
	.st10{fill:url(#SVGID_00000018950618295871849470000014203000651646401955_);}
	.st11{fill:url(#SVGID_00000130643374339184163650000017414039045250371774_);}
	.st12{fill:url(#SVGID_00000129892290156198239850000009337292878684530613_);}
	.st13{fill:url(#SVGID_00000010287395392655515790000010246114431855302576_);}
	.st14{fill:url(#SVGID_00000075142504722589257640000007536764555899684510_);}
	.st15{fill:url(#SVGID_00000136402775429792499020000018371673557963598781_);}
	.st16{fill:url(#SVGID_00000010310446724923827560000003100204849994478727_);}
	.st17{fill:url(#SVGID_00000140713648322972390330000003618221955870207884_);}
	.st18{fill:url(#SVGID_00000157303072035055541700000005851266057236256684_);}
	.st19{fill:url(#SVGID_00000127730497835340854060000003799022579770568341_);}
	.st20{fill:url(#SVGID_00000100352746779652186340000012405959608270321550_);}
	.st21{fill:url(#SVGID_00000007406100881032938510000012626736828380454577_);}
	.st22{fill:url(#SVGID_00000176741882244918140660000014247537992829720221_);}
	.st23{fill:url(#SVGID_00000168824442613782442610000007373074115311838909_);}
	.st24{fill:url(#SVGID_00000071552767766900903170000003209387683082868646_);}
	.st25{fill:url(#SVGID_00000132783461493873695010000006400694912696430219_);}
	.st26{fill:url(#SVGID_00000063608338712500215430000017911414965515003036_);}
	.st27{fill:url(#SVGID_00000018940617049664385550000006076774316947338429_);}
	.st28{fill:url(#SVGID_00000103226105533373924200000013988434345641522080_);}
	.st29{fill:url(#SVGID_00000111175301345310716500000005121017298035778203_);}
	.st30{fill:url(#SVGID_00000086658169467698465400000001628011435973250220_);}
	.st31{fill:url(#SVGID_00000057110100667942488840000015094360349736750212_);}
	.st32{fill:url(#SVGID_00000181076307231676548710000014604365301989746608_);}
	.st33{fill:url(#SVGID_00000168809786227723691520000007077799647711455372_);}
	.st34{fill:url(#SVGID_00000010307096367428201870000002230076171281507261_);}
	.st35{fill:url(#SVGID_00000125598976804043802360000011235165595190952893_);}
	.st36{fill:url(#SVGID_00000127025992450022825180000010125013543704158365_);}
	.st37{fill:url(#SVGID_00000101078742994509180420000009468005042624973206_);}
	.st38{fill:url(#SVGID_00000023994663148693044220000001940319872433620111_);}
	.st39{fill:url(#SVGID_00000052088673065563663410000013982255318296105382_);}
	.st40{fill:url(#SVGID_00000013897611491109568430000002225891598948915847_);}
	.st41{fill:url(#SVGID_00000177457470731197952460000007305113851361020573_);}
</style>
<g>
	<linearGradient id="SVGID_1_" gradientUnits="userSpaceOnUse" x1="-74.0771" y1="53.899" x2="150.9388" y2="205.772">
		<stop  offset="0" style="stop-color:#4B2A7A"/>
		<stop  offset="1" style="stop-color:#08A1A7"/>
	</linearGradient>
	<path class="st0" d="M28.7,117.46h-5.65c-0.33,0-0.64,0.13-0.88,0.35c-0.23,0.22-0.36,0.52-0.36,0.84v5.42
		c0,0.31,0.13,0.62,0.36,0.84c0.23,0.22,0.55,0.35,0.88,0.35h5.65c0.33,0,0.64-0.13,0.88-0.35c0.23-0.22,0.36-0.52,0.36-0.84v-5.42
		c0-0.31-0.13-0.62-0.36-0.84C29.34,117.59,29.03,117.46,28.7,117.46z"/>
	
		<linearGradient id="SVGID_00000181784283592041014680000015421298444119584181_" gradientUnits="userSpaceOnUse" x1="-77.49" y1="58.9555" x2="147.5259" y2="210.8286">
		<stop  offset="0" style="stop-color:#4B2A7A"/>
		<stop  offset="1" style="stop-color:#08A1A7"/>
	</linearGradient>
	<path style="fill:url(#SVGID_00000181784283592041014680000015421298444119584181_);" d="M17.79,117.46h-5.65
		c-0.33,0-0.64,0.13-0.88,0.35c-0.23,0.22-0.36,0.52-0.36,0.84v5.42c0,0.31,0.13,0.62,0.36,0.84c0.23,0.22,0.55,0.35,0.88,0.35h5.65
		c0.33,0,0.64-0.13,0.88-0.35c0.23-0.22,0.36-0.52,0.36-0.84v-5.42c0-0.31-0.13-0.62-0.36-0.84
		C18.44,117.59,18.12,117.46,17.79,117.46z"/>
	
		<linearGradient id="SVGID_00000135685933968850743550000005214801686330885298_" gradientUnits="userSpaceOnUse" x1="-80.9031" y1="64.0124" x2="144.1128" y2="215.8854">
		<stop  offset="0" style="stop-color:#4B2A7A"/>
		<stop  offset="1" style="stop-color:#08A1A7"/>
	</linearGradient>
	<path style="fill:url(#SVGID_00000135685933968850743550000005214801686330885298_);" d="M6.89,117.46H1.24
		c-0.33,0-0.64,0.13-0.88,0.35C0.13,118.03,0,118.34,0,118.65v5.42c0,0.31,0.13,0.62,0.36,0.84c0.23,0.22,0.55,0.35,0.88,0.35h5.65
		c0.33,0,0.64-0.13,0.88-0.35c0.23-0.22,0.36-0.52,0.36-0.84v-5.42c0-0.31-0.13-0.62-0.36-0.84C7.53,117.59,7.22,117.46,6.89,117.46
		z"/>
	
		<linearGradient id="SVGID_00000076588774466605713430000015706204659483453092_" gradientUnits="userSpaceOnUse" x1="-75.7449" y1="56.3701" x2="149.2709" y2="208.2431">
		<stop  offset="0" style="stop-color:#4B2A7A"/>
		<stop  offset="1" style="stop-color:#08A1A7"/>
	</linearGradient>
	<path style="fill:url(#SVGID_00000076588774466605713430000015706204659483453092_);" d="M6.89,106.34H1.24
		c-0.33,0-0.64,0.13-0.88,0.35C0.13,106.91,0,107.21,0,107.53v5.42c0,0.31,0.13,0.62,0.36,0.84c0.23,0.22,0.55,0.35,0.88,0.35h5.65
		c0.33,0,0.64-0.13,0.88-0.35c0.23-0.22,0.36-0.52,0.36-0.84v-5.42c0-0.31-0.13-0.62-0.36-0.84C7.53,106.47,7.22,106.34,6.89,106.34
		z"/>
	
		<linearGradient id="SVGID_00000092440551059037764950000007617315356440934562_" gradientUnits="userSpaceOnUse" x1="-45.6251" y1="11.7443" x2="179.3908" y2="163.6174">
		<stop  offset="0" style="stop-color:#4B2A7A"/>
		<stop  offset="1" style="stop-color:#08A1A7"/>
	</linearGradient>
	<path style="fill:url(#SVGID_00000092440551059037764950000007617315356440934562_);" d="M52.1,83.73
		c0.15,0.06,0.31,0.09,0.47,0.09h5.65c0.16,0,0.32-0.03,0.47-0.09c0.23-0.09,0.42-0.24,0.56-0.44c0.14-0.2,0.21-0.43,0.21-0.66
		v-5.42c0-0.31-0.13-0.61-0.36-0.84c-0.23-0.22-0.54-0.35-0.87-0.35h-5.65c-0.33,0-0.64,0.13-0.88,0.35
		c-0.23,0.22-0.36,0.52-0.36,0.84v5.42c0,0.24,0.07,0.46,0.21,0.66C51.68,83.49,51.88,83.64,52.1,83.73"/>
	
		<linearGradient id="SVGID_00000031200149051558977580000002714214688880107162_" gradientUnits="userSpaceOnUse" x1="-50.4729" y1="18.9269" x2="174.543" y2="170.7999">
		<stop  offset="0" style="stop-color:#4B2A7A"/>
		<stop  offset="1" style="stop-color:#08A1A7"/>
	</linearGradient>
	<path style="fill:url(#SVGID_00000031200149051558977580000002714214688880107162_);" d="M52.1,94.19
		c0.15,0.06,0.31,0.09,0.47,0.09h5.65c0.16,0,0.32-0.03,0.47-0.09c0.23-0.09,0.42-0.24,0.56-0.44c0.14-0.2,0.21-0.43,0.21-0.66
		v-5.42c0-0.31-0.13-0.62-0.36-0.84c-0.23-0.22-0.54-0.35-0.87-0.35h-5.65c-0.33,0-0.64,0.13-0.87,0.35
		c-0.23,0.22-0.36,0.52-0.36,0.84v5.42c0,0.21,0.06,0.42,0.17,0.6C51.64,93.91,51.85,94.09,52.1,94.19"/>
	
		<linearGradient id="SVGID_00000088118961518775824060000007990183187657047945_" gradientUnits="userSpaceOnUse" x1="-55.3214" y1="26.1104" x2="169.6945" y2="177.9835">
		<stop  offset="0" style="stop-color:#4B2A7A"/>
		<stop  offset="1" style="stop-color:#08A1A7"/>
	</linearGradient>
	<path style="fill:url(#SVGID_00000088118961518775824060000007990183187657047945_);" d="M51.95,104.58
		c0.19,0.1,0.4,0.16,0.62,0.16h5.65c0.23,0,0.46-0.06,0.66-0.18c0.2-0.12,0.35-0.29,0.45-0.49c0.01-0.02,0.02-0.04,0.03-0.06
		c0.06-0.14,0.09-0.3,0.09-0.45v-5.42c0-0.31-0.13-0.62-0.36-0.84s-0.54-0.35-0.87-0.35h-5.65c-0.16,0-0.32,0.03-0.47,0.09
		c-0.25,0.1-0.46,0.27-0.6,0.5c-0.11,0.18-0.17,0.39-0.17,0.6v5.42c0,0.21,0.06,0.41,0.17,0.59
		C51.61,104.32,51.77,104.47,51.95,104.58"/>
	
		<linearGradient id="SVGID_00000053530570391266310380000000983103554752656297_" gradientUnits="userSpaceOnUse" x1="-32.5423" y1="-7.6392" x2="192.4736" y2="144.2339">
		<stop  offset="0" style="stop-color:#4B2A7A"/>
		<stop  offset="1" style="stop-color:#08A1A7"/>
	</linearGradient>
	<path style="fill:url(#SVGID_00000053530570391266310380000000983103554752656297_);" d="M52.19,74.2h0.79l0.11-0.01
		c0.4-0.02,0.8-0.07,1.2-0.16l0.65-0.08c0.48-0.2,0.95-0.43,1.4-0.7c1.35-0.73,2.41-1.87,3.01-3.24c0.3-0.75,0.45-1.55,0.44-2.35
		V64.9c0-0.89,0.14-1.78,0.39-2.64c1.46-3.35,4.3-5.03,8.52-5.03h0.7v0.38c0,0.66,0.27,1.29,0.76,1.75
		c0.48,0.46,1.14,0.73,1.83,0.73h7.66c0.69,0,1.34-0.26,1.83-0.73c0.48-0.46,0.76-1.09,0.76-1.75v-0.38h0.23
		c4.22,0,7.06,1.68,8.52,5.03c0.26,0.86,0.39,1.75,0.39,2.64v2.76c0,2.83,1.62,4.92,4.85,6.28l0.65,0.08
		c0.39,0.08,0.8,0.13,1.2,0.16l0.11,0.01h0.92l0.26-0.25V63.77c-0.03-1.93-0.52-3.82-1.44-5.53c-0.19-0.35-0.38-0.68-0.58-1
		c-3.15-5.14-7.75-7.73-13.77-7.79h-0.2h-15.6c-0.07,0-0.13,0-0.2,0c-6.03,0.06-10.62,2.65-13.77,7.79c-0.2,0.33-0.39,0.66-0.58,1
		c-0.75,1.42-1.22,2.96-1.39,4.54c-0.03,0.33-0.05,0.66-0.05,0.99v10.18l0.26,0.25H52.19z"/>
	
		<linearGradient id="SVGID_00000078754719475104777180000016737080778455976861_" gradientUnits="userSpaceOnUse" x1="-38.8779" y1="1.7477" x2="186.138" y2="153.6207">
		<stop  offset="0" style="stop-color:#4B2A7A"/>
		<stop  offset="1" style="stop-color:#08A1A7"/>
	</linearGradient>
	<path style="fill:url(#SVGID_00000078754719475104777180000016737080778455976861_);" d="M72.12,71.59
		c0.02-0.19-0.01-0.37-0.07-0.55c-0.07-0.17-0.17-0.33-0.31-0.46c-0.14-0.13-0.3-0.23-0.49-0.29c-0.18-0.06-0.38-0.08-0.57-0.06
		c-0.83,0-1.66,0-2.49,0H65.7c-0.2-0.02-0.4,0-0.59,0.06c-0.19,0.06-0.36,0.16-0.5,0.3c-0.14,0.13-0.25,0.3-0.32,0.48
		c-0.07,0.18-0.09,0.37-0.07,0.56c0,1.59,0,3.18,0,4.78c-0.02,0.18,0,0.37,0.06,0.55c0.06,0.18,0.17,0.34,0.3,0.47
		c0.14,0.13,0.3,0.24,0.48,0.3c0.18,0.06,0.38,0.09,0.57,0.07c1.68,0.01,3.37,0.01,5.05,0c0.19,0.02,0.39-0.01,0.57-0.07
		c0.18-0.06,0.35-0.17,0.48-0.3s0.24-0.29,0.3-0.47c0.06-0.18,0.09-0.36,0.07-0.55C72.12,74.8,72.12,73.19,72.12,71.59 M69.47,75.24
		h-2.6v-2.49h2.6V75.24z"/>
	
		<linearGradient id="SVGID_00000125604358622862379490000009325334637268402861_" gradientUnits="userSpaceOnUse" x1="-33.9362" y1="-5.5739" x2="191.0796" y2="146.2991">
		<stop  offset="0" style="stop-color:#4B2A7A"/>
		<stop  offset="1" style="stop-color:#08A1A7"/>
	</linearGradient>
	<path style="fill:url(#SVGID_00000125604358622862379490000009325334637268402861_);" d="M87.9,71.56
		c0.02-0.18-0.01-0.36-0.08-0.53c-0.07-0.17-0.17-0.32-0.3-0.45c-0.13-0.13-0.3-0.22-0.47-0.29c-0.18-0.06-0.37-0.08-0.55-0.07
		c-0.84-0.01-1.68,0-2.52,0c-0.84,0-1.7,0-2.55,0c-0.19-0.02-0.38,0.01-0.55,0.07c-0.18,0.06-0.34,0.16-0.47,0.29
		c-0.13,0.13-0.24,0.28-0.3,0.45c-0.07,0.17-0.09,0.35-0.08,0.53c-0.01,1.63-0.01,3.27,0,4.9c-0.01,0.17,0.01,0.35,0.08,0.52
		c0.06,0.16,0.16,0.31,0.29,0.44c0.13,0.13,0.28,0.22,0.45,0.29c0.17,0.06,0.35,0.09,0.54,0.08c1.72,0.02,3.45,0.02,5.17,0
		c0.18,0.01,0.37-0.02,0.54-0.08c0.17-0.06,0.33-0.16,0.45-0.29c0.13-0.13,0.23-0.28,0.29-0.44c0.06-0.16,0.09-0.34,0.08-0.52
		C87.91,74.82,87.91,73.19,87.9,71.56 M85.25,75.24h-2.6v-2.48h2.6V75.24z"/>
	
		<linearGradient id="SVGID_00000094610715765253249750000012465485174647916694_" gradientUnits="userSpaceOnUse" x1="-45.897" y1="12.1472" x2="179.1189" y2="164.0202">
		<stop  offset="0" style="stop-color:#4B2A7A"/>
		<stop  offset="1" style="stop-color:#08A1A7"/>
	</linearGradient>
	<path style="fill:url(#SVGID_00000094610715765253249750000012465485174647916694_);" d="M64.22,91.55c-0.02,0.18,0,0.37,0.07,0.54
		c0.06,0.17,0.17,0.33,0.3,0.46c0.13,0.13,0.3,0.23,0.48,0.3c0.18,0.06,0.37,0.09,0.56,0.08c1.69,0.01,3.38,0.01,5.08,0
		c0.19,0.01,0.38-0.01,0.56-0.08s0.34-0.16,0.48-0.3c0.13-0.13,0.24-0.29,0.3-0.46s0.09-0.36,0.07-0.54c0.01-1.61,0.01-3.23,0-4.84
		c0.02-0.18-0.01-0.37-0.07-0.54c-0.07-0.17-0.17-0.33-0.3-0.46s-0.3-0.23-0.48-0.29c-0.18-0.06-0.37-0.08-0.56-0.07
		c-0.83,0-1.66,0-2.49,0c-0.83,0-1.68,0-2.52,0c-0.2-0.02-0.39,0-0.58,0.06c-0.19,0.06-0.35,0.16-0.49,0.3
		c-0.14,0.13-0.25,0.29-0.31,0.47c-0.07,0.18-0.09,0.37-0.07,0.55C64.22,88.34,64.22,89.94,64.22,91.55 M66.87,87.89h2.6v2.49h-2.6
		V87.89z"/>
	
		<linearGradient id="SVGID_00000136401188964717174170000017544054481154182290_" gradientUnits="userSpaceOnUse" x1="51.2845" y1="65.224" x2="103.4954" y2="100.4635">
		<stop  offset="0" style="stop-color:#4B2A7A"/>
		<stop  offset="1" style="stop-color:#08A1A7"/>
	</linearGradient>
	<path style="fill:url(#SVGID_00000136401188964717174170000017544054481154182290_);" d="M77.39,82.85L77.39,82.85l0.01-0.01
		L77.39,82.85z"/>
	
		<linearGradient id="SVGID_00000096767018386140101020000005457565886699545498_" gradientUnits="userSpaceOnUse" x1="-41.9627" y1="6.3181" x2="48.8304" y2="67.5982">
		<stop  offset="0" style="stop-color:#4B2A7A"/>
		<stop  offset="1" style="stop-color:#08A1A7"/>
	</linearGradient>
	<path style="fill:url(#SVGID_00000096767018386140101020000005457565886699545498_);" d="M82.63,90.41h0.01H82.63L82.63,90.41z"/>
	
		<linearGradient id="SVGID_00000036220587342590195710000004787644439680497794_" gradientUnits="userSpaceOnUse" x1="-41.2716" y1="5.2942" x2="63.2358" y2="75.8308">
		<stop  offset="0" style="stop-color:#4B2A7A"/>
		<stop  offset="1" style="stop-color:#08A1A7"/>
	</linearGradient>
	<path style="fill:url(#SVGID_00000036220587342590195710000004787644439680497794_);" d="M77.4,85.39v-0.01h-0.01v0.01H77.4z"/>
	
		<linearGradient id="SVGID_00000081649914049802638990000014977854444149738127_" gradientUnits="userSpaceOnUse" x1="-40.6107" y1="4.3151" x2="184.4051" y2="156.1881">
		<stop  offset="0" style="stop-color:#4B2A7A"/>
		<stop  offset="1" style="stop-color:#08A1A7"/>
	</linearGradient>
	<path style="fill:url(#SVGID_00000081649914049802638990000014977854444149738127_);" d="M80.04,87.86h2.59c0-0.82,0-1.65,0-2.47
		c-0.62-0.01-1.23-0.02-1.85-0.03c-0.24,0-0.48,0-0.75,0v-2.52h2.59v-2.51h-2.62v2.53H77.4l0,2.53h2.59v2.49H77.4
		c0.01,0.85,0.01,1.71,0.02,2.56h2.6v2.47h2.61v-2.49h-2.59L80.04,87.86z"/>
	
		<linearGradient id="SVGID_00000078037608138423510050000005519353001004803738_" gradientUnits="userSpaceOnUse" x1="-40.781" y1="4.5674" x2="51.7878" y2="67.0461">
		<stop  offset="0" style="stop-color:#4B2A7A"/>
		<stop  offset="1" style="stop-color:#08A1A7"/>
	</linearGradient>
	<path style="fill:url(#SVGID_00000078037608138423510050000005519353001004803738_);" d="M82.64,87.86L82.64,87.86l-0.01,0.01h0.01
		V87.86z"/>
	
		<linearGradient id="SVGID_00000039851404937716005380000017918998245081568176_" gradientUnits="userSpaceOnUse" x1="51.2799" y1="65.2211" x2="103.4908" y2="100.4605">
		<stop  offset="0" style="stop-color:#4B2A7A"/>
		<stop  offset="1" style="stop-color:#08A1A7"/>
	</linearGradient>
	<path style="fill:url(#SVGID_00000039851404937716005380000017918998245081568176_);" d="M77.39,82.85L77.39,82.85L77.39,82.85
		L77.39,82.85z"/>
	
		<linearGradient id="SVGID_00000163792252990208320790000009171422916953780667_" gradientUnits="userSpaceOnUse" x1="-39.9198" y1="3.2914" x2="185.096" y2="155.1644">
		<stop  offset="0" style="stop-color:#4B2A7A"/>
		<stop  offset="1" style="stop-color:#08A1A7"/>
	</linearGradient>
	<path style="fill:url(#SVGID_00000163792252990208320790000009171422916953780667_);" d="M74.77,80.32v2.52h2.62v-2.52H74.77z"/>
	
		<linearGradient id="SVGID_00000135666364101150536750000001849731829637105796_" gradientUnits="userSpaceOnUse" x1="-38.4518" y1="1.1164" x2="87.9671" y2="86.442">
		<stop  offset="0" style="stop-color:#4B2A7A"/>
		<stop  offset="1" style="stop-color:#08A1A7"/>
	</linearGradient>
	<path style="fill:url(#SVGID_00000135666364101150536750000001849731829637105796_);" d="M82.64,82.85v-0.01h-0.01v0.01H82.64z"/>
	
		<linearGradient id="SVGID_00000087390469040819649170000002996400383664084881_" gradientUnits="userSpaceOnUse" x1="-38.6262" y1="1.3748" x2="186.3897" y2="153.2478">
		<stop  offset="0" style="stop-color:#4B2A7A"/>
		<stop  offset="1" style="stop-color:#08A1A7"/>
	</linearGradient>
	<path style="fill:url(#SVGID_00000087390469040819649170000002996400383664084881_);" d="M85.28,85.38l0.02-2.51l-2.67-0.02
		c0,0.84,0,1.69,0,2.53L85.28,85.38z"/>
	
		<linearGradient id="SVGID_00000006705131332701125750000014084590801865207936_" gradientUnits="userSpaceOnUse" x1="-39.6305" y1="2.8628" x2="44.4893" y2="59.6389">
		<stop  offset="0" style="stop-color:#4B2A7A"/>
		<stop  offset="1" style="stop-color:#08A1A7"/>
	</linearGradient>
	<path style="fill:url(#SVGID_00000006705131332701125750000014084590801865207936_);" d="M82.64,85.38L82.64,85.38L82.64,85.38
		L82.64,85.38L82.64,85.38z"/>
	
		<linearGradient id="SVGID_00000046322560815472813760000007146827537511839166_" gradientUnits="userSpaceOnUse" x1="-39.9502" y1="3.3364" x2="55.9602" y2="68.0704">
		<stop  offset="0" style="stop-color:#4B2A7A"/>
		<stop  offset="1" style="stop-color:#08A1A7"/>
	</linearGradient>
	<path style="fill:url(#SVGID_00000046322560815472813760000007146827537511839166_);" d="M85.28,87.87h0.01v-0.01h-0.01V87.87z"/>
	
		<linearGradient id="SVGID_00000106107557185556283950000015019171760063069085_" gradientUnits="userSpaceOnUse" x1="-40.9556" y1="4.8261" x2="184.0602" y2="156.6991">
		<stop  offset="0" style="stop-color:#4B2A7A"/>
		<stop  offset="1" style="stop-color:#08A1A7"/>
	</linearGradient>
	<path style="fill:url(#SVGID_00000106107557185556283950000015019171760063069085_);" d="M82.64,87.87v2.54h2.64
		c0-0.85,0-1.69,0-2.54L82.64,87.87z"/>
	
		<linearGradient id="SVGID_00000111910845969987529080000015807418298111126425_" gradientUnits="userSpaceOnUse" x1="-41.9588" y1="6.3124" x2="73.661" y2="84.3493">
		<stop  offset="0" style="stop-color:#4B2A7A"/>
		<stop  offset="1" style="stop-color:#08A1A7"/>
	</linearGradient>
	<path style="fill:url(#SVGID_00000111910845969987529080000015807418298111126425_);" d="M82.64,90.42v-0.01h-0.01L82.64,90.42z"/>
	
		<linearGradient id="SVGID_00000121980776850880676560000012628341253167211405_" gradientUnits="userSpaceOnUse" x1="-41.1329" y1="5.0887" x2="54.7774" y2="69.8228">
		<stop  offset="0" style="stop-color:#4B2A7A"/>
		<stop  offset="1" style="stop-color:#08A1A7"/>
	</linearGradient>
	<path style="fill:url(#SVGID_00000121980776850880676560000012628341253167211405_);" d="M85.29,90.41h-0.01v0.01h0.01V90.41z"/>
	
		<linearGradient id="SVGID_00000118380406206736928650000004788746123455840392_" gradientUnits="userSpaceOnUse" x1="-41.3044" y1="5.3427" x2="183.7115" y2="157.2158">
		<stop  offset="0" style="stop-color:#4B2A7A"/>
		<stop  offset="1" style="stop-color:#08A1A7"/>
	</linearGradient>
	<path style="fill:url(#SVGID_00000118380406206736928650000004788746123455840392_);" d="M87.88,90.42h-2.6c0,0.82,0,1.65,0,2.49
		h2.6V90.42z"/>
	
		<linearGradient id="SVGID_00000168820780076901336080000012453369152902395054_" gradientUnits="userSpaceOnUse" x1="-37.5761" y1="-0.1811" x2="187.4398" y2="151.6919">
		<stop  offset="0" style="stop-color:#4B2A7A"/>
		<stop  offset="1" style="stop-color:#08A1A7"/>
	</linearGradient>
	<path style="fill:url(#SVGID_00000168820780076901336080000012453369152902395054_);" d="M77.37,75.28h-2.6v2.48h2.6V75.28z"/>
	
		<linearGradient id="SVGID_00000174561080609783020320000012399490419077435266_" gradientUnits="userSpaceOnUse" x1="-43.2093" y1="8.1651" x2="181.8066" y2="160.0381">
		<stop  offset="0" style="stop-color:#4B2A7A"/>
		<stop  offset="1" style="stop-color:#08A1A7"/>
	</linearGradient>
	<path style="fill:url(#SVGID_00000174561080609783020320000012399490419077435266_);" d="M66.84,80.32h-2.59v2.49h2.59V80.32z"/>
	
		<linearGradient id="SVGID_00000154415425606844916730000012264022286640677796_" gradientUnits="userSpaceOnUse" x1="-41.5624" y1="5.7251" x2="183.4534" y2="157.5981">
		<stop  offset="0" style="stop-color:#4B2A7A"/>
		<stop  offset="1" style="stop-color:#08A1A7"/>
	</linearGradient>
	<path style="fill:url(#SVGID_00000154415425606844916730000012264022286640677796_);" d="M72.1,80.32h-2.59v2.49h2.59V80.32z"/>
	
		<linearGradient id="SVGID_00000137132846070442030710000015470588995162755242_" gradientUnits="userSpaceOnUse" x1="-36.6316" y1="-1.5804" x2="188.3843" y2="150.2926">
		<stop  offset="0" style="stop-color:#4B2A7A"/>
		<stop  offset="1" style="stop-color:#08A1A7"/>
	</linearGradient>
	<path style="fill:url(#SVGID_00000137132846070442030710000015470588995162755242_);" d="M87.88,80.32h-2.56v2.54h2.56V80.32z"/>
	
		<linearGradient id="SVGID_00000166640307558284696250000005188175414026477471_" gradientUnits="userSpaceOnUse" x1="45.783" y1="56.1836" x2="124.8263" y2="109.5333">
		<stop  offset="0" style="stop-color:#4B2A7A"/>
		<stop  offset="1" style="stop-color:#08A1A7"/>
	</linearGradient>
	<path style="fill:url(#SVGID_00000166640307558284696250000005188175414026477471_);" d="M85.31,82.87L85.31,82.87L85.31,82.87
		L85.31,82.87L85.31,82.87L85.31,82.87L85.31,82.87z"/>
	
		<linearGradient id="SVGID_00000169537222808234950100000010690254780779278255_" gradientUnits="userSpaceOnUse" x1="-44.5927" y1="10.2147" x2="180.4232" y2="162.0877">
		<stop  offset="0" style="stop-color:#4B2A7A"/>
		<stop  offset="1" style="stop-color:#08A1A7"/>
	</linearGradient>
	<path style="fill:url(#SVGID_00000169537222808234950100000010690254780779278255_);" d="M74.76,90.43v2.47h2.62
		c0-0.16,0-0.29,0-0.42c0.01-0.68,0.02-1.36,0.03-2.04c-0.81-0.01-1.61-0.02-2.42-0.03C74.92,90.41,74.84,90.42,74.76,90.43"/>
	
		<linearGradient id="SVGID_00000062886263489630513430000018049252584710101422_" gradientUnits="userSpaceOnUse" x1="41.0385" y1="65.8777" x2="113.783" y2="114.9761">
		<stop  offset="0" style="stop-color:#4B2A7A"/>
		<stop  offset="1" style="stop-color:#08A1A7"/>
	</linearGradient>
	<path style="fill:url(#SVGID_00000062886263489630513430000018049252584710101422_);" d="M77.41,90.43L77.41,90.43L77.41,90.43
		L77.41,90.43L77.41,90.43"/>
	
		<linearGradient id="SVGID_00000072974487857149173260000012224819771270766236_" gradientUnits="userSpaceOnUse" x1="-35.2384" y1="-3.6446" x2="189.7774" y2="148.2285">
		<stop  offset="0" style="stop-color:#4B2A7A"/>
		<stop  offset="1" style="stop-color:#08A1A7"/>
	</linearGradient>
	<path style="fill:url(#SVGID_00000072974487857149173260000012224819771270766236_);" d="M77.37,70.24h-2.6v2.49h2.6V70.24z"/>
	
		<linearGradient id="SVGID_00000075846378360679593340000009084872429985749149_" gradientUnits="userSpaceOnUse" x1="-42.2585" y1="6.7565" x2="182.7573" y2="158.6295">
		<stop  offset="0" style="stop-color:#4B2A7A"/>
		<stop  offset="1" style="stop-color:#08A1A7"/>
	</linearGradient>
	<path style="fill:url(#SVGID_00000075846378360679593340000009084872429985749149_);" d="M75.67,85.36c-0.3,0-0.6,0-0.91,0v2.5
		h2.62c0-0.82,0-1.64,0-2.47C76.82,85.38,76.25,85.37,75.67,85.36"/>
	
		<linearGradient id="SVGID_00000042698663049513788200000009260381950008551319_" gradientUnits="userSpaceOnUse" x1="-42.4207" y1="6.9968" x2="76.6457" y2="87.3599">
		<stop  offset="0" style="stop-color:#4B2A7A"/>
		<stop  offset="1" style="stop-color:#08A1A7"/>
	</linearGradient>
	<path style="fill:url(#SVGID_00000042698663049513788200000009260381950008551319_);" d="M77.39,87.86v0.01h0.01v-0.01H77.39z"/>
	
		<linearGradient id="SVGID_00000065048407875310511910000012213332843520649881_" gradientUnits="userSpaceOnUse" x1="-38.8007" y1="1.6333" x2="54.3842" y2="64.5278">
		<stop  offset="0" style="stop-color:#4B2A7A"/>
		<stop  offset="1" style="stop-color:#08A1A7"/>
	</linearGradient>
	<path style="fill:url(#SVGID_00000065048407875310511910000012213332843520649881_);" d="M85.29,85.39v-0.01h-0.01L85.29,85.39
		L85.29,85.39z"/>
	
		<linearGradient id="SVGID_00000158001690506428008230000005373629516149346996_" gradientUnits="userSpaceOnUse" x1="-38.9696" y1="1.8835" x2="186.0463" y2="153.7565">
		<stop  offset="0" style="stop-color:#4B2A7A"/>
		<stop  offset="1" style="stop-color:#08A1A7"/>
	</linearGradient>
	<path style="fill:url(#SVGID_00000158001690506428008230000005373629516149346996_);" d="M87.88,87.86v-2.47h-2.59
		c0,0.82,0,1.65,0,2.47H87.88z"/>
	
		<linearGradient id="SVGID_00000084498690763810307720000011113344332694260923_" gradientUnits="userSpaceOnUse" x1="-49.853" y1="18.0084" x2="175.1629" y2="169.8815">
		<stop  offset="0" style="stop-color:#4B2A7A"/>
		<stop  offset="1" style="stop-color:#08A1A7"/>
	</linearGradient>
	<path style="fill:url(#SVGID_00000084498690763810307720000011113344332694260923_);" d="M82.53,102.76
		c-3.06,1.3-4.59,3.39-4.59,6.28v2.76l0.26,0.25c1.94,0.1,3.85-0.48,5.37-1.63c1.75-1.07,2.62-3.42,2.62-7.04v-1.13l-0.13-0.13
		C84.86,102.12,83.66,102.33,82.53,102.76"/>
	
		<linearGradient id="SVGID_00000005985563359595615440000013237722047517022647_" gradientUnits="userSpaceOnUse" x1="-54.1802" y1="24.4196" x2="170.8357" y2="176.2926">
		<stop  offset="0" style="stop-color:#4B2A7A"/>
		<stop  offset="1" style="stop-color:#08A1A7"/>
	</linearGradient>
	<path style="fill:url(#SVGID_00000005985563359595615440000013237722047517022647_);" d="M64.31,102.38v3.65
		c0.94,4.02,3.52,6.03,7.73,6.03h0.26l0.26-0.25v-0.88l-0.26-3.52c-1.31-3.52-3.84-5.28-7.6-5.28
		C64.44,102.13,64.31,102.22,64.31,102.38"/>
	
		<linearGradient id="SVGID_00000134928906624363122270000008268989398272816829_" gradientUnits="userSpaceOnUse" x1="-29.7989" y1="-11.7039" x2="195.217" y2="140.1692">
		<stop  offset="0" style="stop-color:#4B2A7A"/>
		<stop  offset="1" style="stop-color:#08A1A7"/>
	</linearGradient>
	<path style="fill:url(#SVGID_00000134928906624363122270000008268989398272816829_);" d="M143.11,98.8l-0.26,0.25v0.25l0.26,2.26
		c1.31,3.35,3.5,5.03,6.55,5.03h8.78c1.27-0.03,2.53,0.23,3.67,0.75c3.15,1.67,4.72,3.81,4.72,6.41v3.64h-16.65
		c-0.85-0.03-1.69,0.1-2.49,0.38c-3.23,1.3-4.85,3.64-4.85,7.04v0.13l0.26,0.25h31.33l0.26-0.25v-11.31c0-2.28-0.79-4.84-2.36-7.67
		c-3.67-4.77-7.91-7.16-12.71-7.16L143.11,98.8z"/>
	
		<linearGradient id="SVGID_00000012461637371181633550000012020112155302366377_" gradientUnits="userSpaceOnUse" x1="-51.5338" y1="20.4987" x2="173.4821" y2="172.3717">
		<stop  offset="0" style="stop-color:#4B2A7A"/>
		<stop  offset="1" style="stop-color:#08A1A7"/>
	</linearGradient>
	<path style="fill:url(#SVGID_00000012461637371181633550000012020112155302366377_);" d="M92.26,122.49h0.13l-0.2,0.04
		C92.22,122.52,92.24,122.51,92.26,122.49z M136.34,100.5c-0.17,0-0.34,0-0.51,0.01c-0.4,0.02-0.8,0.07-1.2,0.16
		c-0.71,0.14-1.4,0.41-2.02,0.78c-1.35,0.87-2.39,2.12-2.96,3.58c-0.02,0.07-0.04,0.13-0.06,0.2c-0.26,1.05-0.37,2.12-0.33,3.2v2.13
		c0,2.26-1.4,4.27-4.19,6.03c-1.35,0.61-2.83,0.91-4.33,0.88h-3.67c0.2-0.32,0.39-0.66,0.58-1c0.75-1.42,1.22-2.96,1.39-4.54
		c0.03-0.33,0.05-0.66,0.05-0.99v-10.18l-0.26-0.25h-0.53c-0.17,0-0.34,0-0.51,0.01c-0.4,0.02-0.8,0.07-1.2,0.16
		c-0.71,0.14-1.4,0.41-2.02,0.78c-1.35,0.87-2.39,2.12-2.96,3.58c-0.02,0.07-0.04,0.13-0.06,0.2c-0.26,1.05-0.37,2.12-0.33,3.2v2.13
		c0,2.26-1.4,4.27-4.19,6.03c-0.79,0.37-1.63,0.63-2.51,0.75c-1.24-0.13-2.43-0.53-3.47-1.19c-1.04-0.65-1.91-1.53-2.53-2.57
		c0.29-1.28,0.44-2.59,0.42-3.91v-8.92l-0.26-0.25H97.9l-1.96,0.25c-0.56,0.23-1.11,0.51-1.62,0.83c-1,0.55-1.82,1.35-2.39,2.31
		c-0.57,0.96-0.86,2.05-0.84,3.15v2.77c0,0.89-0.14,1.78-0.39,2.64c-0.17,0.39-0.37,0.78-0.59,1.15c-1.58,2.59-4.22,3.88-7.93,3.88
		H67.88c-1.49,0.03-2.97-0.27-4.33-0.88c-2.38-1.5-3.75-3.18-4.1-5.05v-3.02c0-0.21-0.06-0.42-0.18-0.61
		c-0.11-0.18-0.28-0.33-0.48-0.44c-0.04-0.02-0.07-0.04-0.11-0.05c-0.15-0.06-0.31-0.09-0.47-0.09h-5.65
		c-0.16,0-0.32,0.03-0.47,0.09c-0.04,0.01-0.08,0.03-0.11,0.05c-0.2,0.1-0.37,0.26-0.49,0.45c-0.01,0.02-0.02,0.03-0.03,0.05
		c-0.09,0.17-0.14,0.36-0.14,0.55v2.84c-0.06,0.36-0.15,0.72-0.25,1.08c-1.46,3.35-4.3,5.03-8.52,5.03H34.2
		c-0.33,0-0.64,0.13-0.88,0.35c-0.23,0.22-0.36,0.52-0.36,0.84v5.42c0,0.3,0.11,0.58,0.32,0.8c0.21,0.22,0.49,0.36,0.8,0.38v0.01
		h9.26c3.33,0.07,6.6-0.9,9.31-2.77h0.13v0.72c0.08,0.51,0.32,0.99,0.7,1.36c0.38,0.37,0.88,0.61,1.41,0.68h48.64l0.1-0.09
		c0.23,0.02,0.45,0.04,0.68,0.05c0.33,0.02,0.67,0.03,1.02,0.04h0.2h15.6c0.07,0,0.13,0,0.2,0c6.03-0.06,10.62-2.65,13.77-7.79
		c0.2-0.32,0.39-0.66,0.58-1c0.75-1.42,1.22-2.96,1.39-4.54c0.03-0.33,0.05-0.66,0.05-0.99v-10.18l-0.26-0.25H136.34z"/>
</g>
</svg>
