<?xml version="1.0" encoding="utf-8"?>
<!-- Generator: Adobe Illustrator 26.0.1, SVG Export Plug-In . SVG Version: 6.00 Build 0)  -->
<svg version="1.1" id="Layer_1" xmlns="http://www.w3.org/2000/svg" xmlns:xlink="http://www.w3.org/1999/xlink" x="0px" y="0px"
	 viewBox="0 0 174.7 75.82" style="enable-background:new 0 0 174.7 75.82;" xml:space="preserve">
<style type="text/css">
	.st0{fill:url(#SVGID_1_);}
	.st1{fill:url(#SVGID_00000029766878782348123790000011227170476397847685_);}
	.st2{fill:url(#SVGID_00000101794846818714707120000017720419904102908585_);}
	.st3{fill:url(#SVGID_00000141451585973487015450000005072968829552558508_);}
	.st4{fill:url(#SVGID_00000023263505132211694230000004457794307336467086_);}
	.st5{fill:url(#SVGID_00000097482351619166094490000011681567530092061335_);}
	.st6{fill:url(#SVGID_00000120549663450419276640000009166150012555657404_);}
	.st7{fill:url(#SVGID_00000007394745436257307080000005228414403999282080_);}
	.st8{fill:url(#SVGID_00000000219969772718566740000003427418519389873032_);}
	.st9{fill:url(#SVGID_00000150812838886408706780000002142641131766973374_);}
	.st10{fill:url(#SVGID_00000040569660730928050300000013707609624584864407_);}
	.st11{fill:url(#SVGID_00000121243498119543485090000008386498831660090271_);}
	.st12{fill:url(#SVGID_00000055698160489745293910000003537778815595616692_);}
	.st13{fill:url(#SVGID_00000027562072543841619470000015920464575058415751_);}
	.st14{fill:url(#SVGID_00000019672344665429747820000011301766950134576289_);}
	.st15{fill:url(#SVGID_00000034782483001108017610000003805705462453164962_);}
	.st16{fill:url(#SVGID_00000148632859863575959310000013466809039596346512_);}
	.st17{fill:url(#SVGID_00000024690356635786532010000012072466943322007982_);}
	.st18{fill:url(#SVGID_00000150794054538509979930000008621451052348794011_);}
	.st19{fill:url(#SVGID_00000164510540804366983490000016328273704956815534_);}
	.st20{fill:url(#SVGID_00000077291283637540354040000001845717856696398248_);}
	.st21{fill:url(#SVGID_00000070816843743798840020000013517062782527302816_);}
	.st22{fill:url(#SVGID_00000057860064090747528870000000393524129858108575_);}
	.st23{fill:url(#SVGID_00000155844882712978258740000002725202487818450823_);}
	.st24{fill:url(#SVGID_00000044867312757174676000000001860797989429931152_);}
	.st25{fill:url(#SVGID_00000111874631832716110710000017068512445264986798_);}
	.st26{fill:url(#SVGID_00000165952406064309139580000013023216243999792260_);}
	.st27{fill:url(#SVGID_00000159434684439411669960000014908344750065905801_);}
	.st28{fill:url(#SVGID_00000123430371663026722420000018081402165847670418_);}
	.st29{fill:url(#SVGID_00000090986100015109697560000008975403178039703700_);}
	.st30{fill:url(#SVGID_00000000911383223620662490000008555989445885442723_);}
	.st31{fill:url(#SVGID_00000024704258304577164350000011917692821548007833_);}
	.st32{fill:url(#SVGID_00000070101325280126823170000009512713633874550145_);}
	.st33{fill:url(#SVGID_00000114752774344439517430000013692889852066523542_);}
	.st34{fill:url(#SVGID_00000005972648123298015070000016749244751545237127_);}
	.st35{fill:url(#SVGID_00000115491816763268474440000008111021893671307401_);}
	.st36{fill:url(#SVGID_00000034786457364459783020000014967977386444789422_);}
	.st37{fill:url(#SVGID_00000132804672830372693840000002504441977225289873_);}
	.st38{fill:url(#SVGID_00000031200503408580809730000016079423420759987622_);}
	.st39{fill:url(#SVGID_00000073723043328066515730000002274339344564330914_);}
	.st40{fill:url(#SVGID_00000155142196626284090660000002653790950601782679_);}
	.st41{fill:url(#SVGID_00000140003210432333219360000016470074153191509393_);}
</style>
<g>
	<linearGradient id="SVGID_1_" gradientUnits="userSpaceOnUse" x1="-74.0771" y1="4.4559" x2="150.9388" y2="156.3289">
		<stop  offset="0" style="stop-color:#4B2A7A"/>
		<stop  offset="1" style="stop-color:#08A1A7"/>
	</linearGradient>
	<path class="st0" d="M28.7,68.02h-5.65c-0.33,0-0.64,0.13-0.88,0.35c-0.23,0.22-0.36,0.52-0.36,0.84v5.42
		c0,0.31,0.13,0.62,0.36,0.84c0.23,0.22,0.55,0.35,0.88,0.35h5.65c0.33,0,0.64-0.13,0.88-0.35c0.23-0.22,0.36-0.52,0.36-0.84v-5.42
		c0-0.31-0.13-0.62-0.36-0.84C29.34,68.15,29.03,68.02,28.7,68.02z"/>
	
		<linearGradient id="SVGID_00000073719660642350802160000013204323608053104779_" gradientUnits="userSpaceOnUse" x1="-77.49" y1="9.5124" x2="147.5259" y2="161.3854">
		<stop  offset="0" style="stop-color:#4B2A7A"/>
		<stop  offset="1" style="stop-color:#08A1A7"/>
	</linearGradient>
	<path style="fill:url(#SVGID_00000073719660642350802160000013204323608053104779_);" d="M17.79,68.02h-5.65
		c-0.33,0-0.64,0.13-0.88,0.35c-0.23,0.22-0.36,0.52-0.36,0.84v5.42c0,0.31,0.13,0.62,0.36,0.84c0.23,0.22,0.55,0.35,0.88,0.35h5.65
		c0.33,0,0.64-0.13,0.88-0.35c0.23-0.22,0.36-0.52,0.36-0.84v-5.42c0-0.31-0.13-0.62-0.36-0.84C18.44,68.15,18.12,68.02,17.79,68.02
		z"/>
	
		<linearGradient id="SVGID_00000094584842456457447530000018425281896159200653_" gradientUnits="userSpaceOnUse" x1="-80.9031" y1="14.5693" x2="144.1128" y2="166.4423">
		<stop  offset="0" style="stop-color:#4B2A7A"/>
		<stop  offset="1" style="stop-color:#08A1A7"/>
	</linearGradient>
	<path style="fill:url(#SVGID_00000094584842456457447530000018425281896159200653_);" d="M6.89,68.02H1.24
		c-0.33,0-0.64,0.13-0.88,0.35C0.13,68.59,0,68.89,0,69.21v5.42c0,0.31,0.13,0.62,0.36,0.84c0.23,0.22,0.55,0.35,0.88,0.35h5.65
		c0.33,0,0.64-0.13,0.88-0.35c0.23-0.22,0.36-0.52,0.36-0.84v-5.42c0-0.31-0.13-0.62-0.36-0.84C7.53,68.15,7.22,68.02,6.89,68.02z"
		/>
	
		<linearGradient id="SVGID_00000104664427077153571030000009174536488289297066_" gradientUnits="userSpaceOnUse" x1="-75.7449" y1="6.927" x2="149.2709" y2="158.8">
		<stop  offset="0" style="stop-color:#4B2A7A"/>
		<stop  offset="1" style="stop-color:#08A1A7"/>
	</linearGradient>
	<path style="fill:url(#SVGID_00000104664427077153571030000009174536488289297066_);" d="M6.89,56.9H1.24
		c-0.33,0-0.64,0.13-0.88,0.35C0.13,57.47,0,57.77,0,58.08v5.42c0,0.31,0.13,0.62,0.36,0.84c0.23,0.22,0.55,0.35,0.88,0.35h5.65
		c0.33,0,0.64-0.13,0.88-0.35C8,64.12,8.13,63.82,8.13,63.5v-5.42c0-0.31-0.13-0.62-0.36-0.84C7.53,57.02,7.22,56.9,6.89,56.9z"/>
	
		<linearGradient id="SVGID_00000041272034393822660250000007971367897042825383_" gradientUnits="userSpaceOnUse" x1="-45.6251" y1="-37.6988" x2="179.3908" y2="114.1742">
		<stop  offset="0" style="stop-color:#4B2A7A"/>
		<stop  offset="1" style="stop-color:#08A1A7"/>
	</linearGradient>
	<path style="fill:url(#SVGID_00000041272034393822660250000007971367897042825383_);" d="M52.1,34.29
		c0.15,0.06,0.31,0.09,0.47,0.09h5.65c0.16,0,0.32-0.03,0.47-0.09c0.23-0.09,0.42-0.24,0.56-0.44c0.14-0.2,0.21-0.43,0.21-0.66
		v-5.42c0-0.31-0.13-0.61-0.36-0.84c-0.23-0.22-0.54-0.35-0.87-0.35h-5.65c-0.33,0-0.64,0.13-0.88,0.35
		c-0.23,0.22-0.36,0.52-0.36,0.84v5.42c0,0.24,0.07,0.46,0.21,0.66C51.68,34.05,51.88,34.2,52.1,34.29"/>
	
		<linearGradient id="SVGID_00000180368639135109358510000013664326505739137419_" gradientUnits="userSpaceOnUse" x1="-50.4729" y1="-30.5162" x2="174.543" y2="121.3568">
		<stop  offset="0" style="stop-color:#4B2A7A"/>
		<stop  offset="1" style="stop-color:#08A1A7"/>
	</linearGradient>
	<path style="fill:url(#SVGID_00000180368639135109358510000013664326505739137419_);" d="M52.1,44.75
		c0.15,0.06,0.31,0.09,0.47,0.09h5.65c0.16,0,0.32-0.03,0.47-0.09c0.23-0.09,0.42-0.24,0.56-0.44c0.14-0.2,0.21-0.43,0.21-0.66
		v-5.42c0-0.31-0.13-0.62-0.36-0.84s-0.54-0.35-0.87-0.35h-5.65c-0.33,0-0.64,0.13-0.87,0.35c-0.23,0.22-0.36,0.52-0.36,0.84v5.42
		c0,0.21,0.06,0.42,0.17,0.6C51.64,44.47,51.85,44.65,52.1,44.75"/>
	
		<linearGradient id="SVGID_00000167377382621736955900000002840713201354346423_" gradientUnits="userSpaceOnUse" x1="-55.3214" y1="-23.3327" x2="169.6945" y2="128.5403">
		<stop  offset="0" style="stop-color:#4B2A7A"/>
		<stop  offset="1" style="stop-color:#08A1A7"/>
	</linearGradient>
	<path style="fill:url(#SVGID_00000167377382621736955900000002840713201354346423_);" d="M51.95,55.13c0.19,0.1,0.4,0.16,0.62,0.16
		h5.65c0.23,0,0.46-0.06,0.66-0.18c0.2-0.12,0.35-0.29,0.45-0.49c0.01-0.02,0.02-0.04,0.03-0.06c0.06-0.14,0.09-0.3,0.09-0.45v-5.42
		c0-0.31-0.13-0.62-0.36-0.84c-0.23-0.22-0.54-0.35-0.87-0.35h-5.65c-0.16,0-0.32,0.03-0.47,0.09c-0.25,0.1-0.46,0.27-0.6,0.5
		c-0.11,0.18-0.17,0.39-0.17,0.6v5.42c0,0.21,0.06,0.41,0.17,0.59C51.61,54.88,51.77,55.03,51.95,55.13"/>
	
		<linearGradient id="SVGID_00000101100896175531361350000015979442495725914510_" gradientUnits="userSpaceOnUse" x1="-32.5423" y1="-57.0823" x2="192.4736" y2="94.7907">
		<stop  offset="0" style="stop-color:#4B2A7A"/>
		<stop  offset="1" style="stop-color:#08A1A7"/>
	</linearGradient>
	<path style="fill:url(#SVGID_00000101100896175531361350000015979442495725914510_);" d="M52.19,24.76h0.79l0.11-0.01
		c0.4-0.02,0.8-0.07,1.2-0.16l0.65-0.08c0.48-0.2,0.95-0.43,1.4-0.7c1.35-0.73,2.41-1.87,3.01-3.24c0.3-0.75,0.45-1.55,0.44-2.35
		v-2.76c0-0.89,0.14-1.78,0.39-2.64c1.46-3.35,4.3-5.03,8.52-5.03h0.7v0.38c0,0.66,0.27,1.29,0.76,1.75
		c0.48,0.46,1.14,0.73,1.83,0.73h7.66c0.69,0,1.34-0.26,1.83-0.73c0.48-0.46,0.76-1.09,0.76-1.75V7.79h0.23
		c4.22,0,7.06,1.68,8.52,5.03c0.26,0.86,0.39,1.75,0.39,2.64v2.76c0,2.83,1.62,4.92,4.85,6.28l0.65,0.08
		c0.39,0.08,0.8,0.13,1.2,0.16l0.11,0.01h0.92l0.26-0.25V14.33c-0.03-1.93-0.52-3.82-1.44-5.53c-0.19-0.35-0.38-0.68-0.58-1
		C94.21,2.65,89.62,0.06,83.59,0h-0.2h-15.6c-0.07,0-0.13,0-0.2,0c-6.03,0.06-10.62,2.65-13.77,7.79c-0.2,0.33-0.39,0.66-0.58,1
		c-0.75,1.42-1.22,2.96-1.39,4.54c-0.03,0.33-0.05,0.66-0.05,0.99V24.5l0.26,0.25H52.19z"/>
	
		<linearGradient id="SVGID_00000078011756636170045850000015974637362593688245_" gradientUnits="userSpaceOnUse" x1="-38.8779" y1="-47.6954" x2="186.138" y2="104.1776">
		<stop  offset="0" style="stop-color:#4B2A7A"/>
		<stop  offset="1" style="stop-color:#08A1A7"/>
	</linearGradient>
	<path style="fill:url(#SVGID_00000078011756636170045850000015974637362593688245_);" d="M72.12,22.14
		c0.02-0.19-0.01-0.37-0.07-0.55c-0.07-0.17-0.17-0.33-0.31-0.46c-0.14-0.13-0.3-0.23-0.49-0.29c-0.18-0.06-0.38-0.08-0.57-0.06
		c-0.83,0-1.66,0-2.49,0H65.7c-0.2-0.02-0.4,0-0.59,0.06c-0.19,0.06-0.36,0.16-0.5,0.3c-0.14,0.13-0.25,0.3-0.32,0.48
		c-0.07,0.18-0.09,0.37-0.07,0.56c0,1.59,0,3.18,0,4.78c-0.02,0.18,0,0.37,0.06,0.55c0.06,0.18,0.17,0.34,0.3,0.47
		c0.14,0.13,0.3,0.24,0.48,0.3c0.18,0.06,0.38,0.09,0.57,0.07c1.68,0.01,3.37,0.01,5.05,0c0.19,0.02,0.39-0.01,0.57-0.07
		c0.18-0.06,0.35-0.17,0.48-0.3c0.14-0.13,0.24-0.29,0.3-0.47c0.06-0.18,0.09-0.36,0.07-0.55C72.12,25.35,72.12,23.75,72.12,22.14
		 M69.47,25.8h-2.6v-2.49h2.6V25.8z"/>
	
		<linearGradient id="SVGID_00000011000030940154908360000016408806342578316430_" gradientUnits="userSpaceOnUse" x1="-33.9362" y1="-55.017" x2="191.0796" y2="96.856">
		<stop  offset="0" style="stop-color:#4B2A7A"/>
		<stop  offset="1" style="stop-color:#08A1A7"/>
	</linearGradient>
	<path style="fill:url(#SVGID_00000011000030940154908360000016408806342578316430_);" d="M87.9,22.11
		c0.02-0.18-0.01-0.36-0.08-0.53c-0.07-0.17-0.17-0.32-0.3-0.45c-0.13-0.13-0.3-0.22-0.47-0.29c-0.18-0.06-0.37-0.08-0.55-0.07
		c-0.84-0.01-1.68,0-2.52,0c-0.84,0-1.7,0-2.55,0c-0.19-0.02-0.38,0.01-0.55,0.07c-0.18,0.06-0.34,0.16-0.47,0.29
		s-0.24,0.28-0.3,0.45c-0.07,0.17-0.09,0.35-0.08,0.53c-0.01,1.63-0.01,3.27,0,4.9c-0.01,0.17,0.01,0.35,0.08,0.52
		c0.06,0.16,0.16,0.31,0.29,0.44c0.13,0.13,0.28,0.22,0.45,0.29c0.17,0.06,0.35,0.09,0.54,0.08c1.72,0.02,3.45,0.02,5.17,0
		c0.18,0.01,0.37-0.02,0.54-0.08c0.17-0.06,0.33-0.16,0.45-0.29c0.13-0.13,0.23-0.28,0.29-0.44c0.06-0.16,0.09-0.34,0.08-0.52
		C87.91,25.38,87.91,23.75,87.9,22.11 M85.25,25.79h-2.6v-2.48h2.6V25.79z"/>
	
		<linearGradient id="SVGID_00000102514493032966959440000014360483570817551498_" gradientUnits="userSpaceOnUse" x1="-45.897" y1="-37.2959" x2="179.1189" y2="114.5771">
		<stop  offset="0" style="stop-color:#4B2A7A"/>
		<stop  offset="1" style="stop-color:#08A1A7"/>
	</linearGradient>
	<path style="fill:url(#SVGID_00000102514493032966959440000014360483570817551498_);" d="M64.22,42.1c-0.02,0.18,0,0.37,0.07,0.54
		c0.06,0.17,0.17,0.33,0.3,0.46c0.13,0.13,0.3,0.23,0.48,0.3c0.18,0.06,0.37,0.09,0.56,0.08c1.69,0.01,3.38,0.01,5.08,0
		c0.19,0.01,0.38-0.01,0.56-0.08s0.34-0.16,0.48-0.3c0.13-0.13,0.24-0.29,0.3-0.46c0.06-0.17,0.09-0.36,0.07-0.54
		c0.01-1.61,0.01-3.23,0-4.84c0.02-0.18-0.01-0.37-0.07-0.54c-0.07-0.17-0.17-0.33-0.3-0.46s-0.3-0.23-0.48-0.29
		c-0.18-0.06-0.37-0.08-0.56-0.07c-0.83,0-1.66,0-2.49,0c-0.83,0-1.68,0-2.52,0c-0.2-0.02-0.39,0-0.58,0.06
		c-0.19,0.06-0.35,0.16-0.49,0.3c-0.14,0.13-0.25,0.29-0.31,0.47c-0.07,0.18-0.09,0.37-0.07,0.55C64.22,38.9,64.22,40.5,64.22,42.1
		 M66.87,38.45h2.6v2.49h-2.6V38.45z"/>
	
		<linearGradient id="SVGID_00000051360690916757803640000012693631555895379611_" gradientUnits="userSpaceOnUse" x1="51.2845" y1="15.7809" x2="103.4954" y2="51.0203">
		<stop  offset="0" style="stop-color:#4B2A7A"/>
		<stop  offset="1" style="stop-color:#08A1A7"/>
	</linearGradient>
	<path style="fill:url(#SVGID_00000051360690916757803640000012693631555895379611_);" d="M77.39,33.41L77.39,33.41l0.01-0.01
		L77.39,33.41z"/>
	
		<linearGradient id="SVGID_00000138566522494846471510000014640354927738013081_" gradientUnits="userSpaceOnUse" x1="-41.9627" y1="-43.125" x2="48.8304" y2="18.1551">
		<stop  offset="0" style="stop-color:#4B2A7A"/>
		<stop  offset="1" style="stop-color:#08A1A7"/>
	</linearGradient>
	<path style="fill:url(#SVGID_00000138566522494846471510000014640354927738013081_);" d="M82.63,40.97h0.01H82.63L82.63,40.97z"/>
	
		<linearGradient id="SVGID_00000047779086752355779400000013374650767257145741_" gradientUnits="userSpaceOnUse" x1="-41.2716" y1="-44.1489" x2="63.2358" y2="26.3877">
		<stop  offset="0" style="stop-color:#4B2A7A"/>
		<stop  offset="1" style="stop-color:#08A1A7"/>
	</linearGradient>
	<path style="fill:url(#SVGID_00000047779086752355779400000013374650767257145741_);" d="M77.4,35.95v-0.01h-0.01v0.01H77.4z"/>
	
		<linearGradient id="SVGID_00000160912837348772535560000017785398578746762915_" gradientUnits="userSpaceOnUse" x1="-40.6107" y1="-45.1281" x2="184.4051" y2="106.745">
		<stop  offset="0" style="stop-color:#4B2A7A"/>
		<stop  offset="1" style="stop-color:#08A1A7"/>
	</linearGradient>
	<path style="fill:url(#SVGID_00000160912837348772535560000017785398578746762915_);" d="M80.04,38.42h2.59c0-0.82,0-1.65,0-2.47
		c-0.62-0.01-1.23-0.02-1.85-0.03c-0.24,0-0.48,0-0.75,0v-2.52h2.59v-2.51h-2.62v2.53H77.4l0,2.53h2.59v2.49H77.4
		c0.01,0.85,0.01,1.71,0.02,2.56h2.6v2.47h2.61v-2.49h-2.59L80.04,38.42z"/>
	
		<linearGradient id="SVGID_00000054948047404423287970000016631582604601012360_" gradientUnits="userSpaceOnUse" x1="-40.781" y1="-44.8757" x2="51.7878" y2="17.603">
		<stop  offset="0" style="stop-color:#4B2A7A"/>
		<stop  offset="1" style="stop-color:#08A1A7"/>
	</linearGradient>
	<path style="fill:url(#SVGID_00000054948047404423287970000016631582604601012360_);" d="M82.64,38.42L82.64,38.42l-0.01,0.01h0.01
		V38.42z"/>
	
		<linearGradient id="SVGID_00000003067835164578234680000001931472258601629624_" gradientUnits="userSpaceOnUse" x1="51.2799" y1="15.7779" x2="103.4908" y2="51.0174">
		<stop  offset="0" style="stop-color:#4B2A7A"/>
		<stop  offset="1" style="stop-color:#08A1A7"/>
	</linearGradient>
	<path style="fill:url(#SVGID_00000003067835164578234680000001931472258601629624_);" d="M77.39,33.41L77.39,33.41L77.39,33.41
		L77.39,33.41z"/>
	
		<linearGradient id="SVGID_00000090281752400254518640000017289352593290154127_" gradientUnits="userSpaceOnUse" x1="-39.9198" y1="-46.1517" x2="185.096" y2="105.7213">
		<stop  offset="0" style="stop-color:#4B2A7A"/>
		<stop  offset="1" style="stop-color:#08A1A7"/>
	</linearGradient>
	<path style="fill:url(#SVGID_00000090281752400254518640000017289352593290154127_);" d="M74.77,30.88v2.52h2.62v-2.52H74.77z"/>
	
		<linearGradient id="SVGID_00000062156997107956414410000007042481692536651679_" gradientUnits="userSpaceOnUse" x1="-38.4518" y1="-48.3268" x2="87.9671" y2="36.9988">
		<stop  offset="0" style="stop-color:#4B2A7A"/>
		<stop  offset="1" style="stop-color:#08A1A7"/>
	</linearGradient>
	<path style="fill:url(#SVGID_00000062156997107956414410000007042481692536651679_);" d="M82.64,33.41v-0.01h-0.01v0.01H82.64z"/>
	
		<linearGradient id="SVGID_00000158004456094466102050000003694420740898970515_" gradientUnits="userSpaceOnUse" x1="-38.6262" y1="-48.0684" x2="186.3897" y2="103.8047">
		<stop  offset="0" style="stop-color:#4B2A7A"/>
		<stop  offset="1" style="stop-color:#08A1A7"/>
	</linearGradient>
	<path style="fill:url(#SVGID_00000158004456094466102050000003694420740898970515_);" d="M85.28,35.94l0.02-2.51l-2.67-0.02
		c0,0.84,0,1.69,0,2.53L85.28,35.94z"/>
	
		<linearGradient id="SVGID_00000058551979269724445270000016432151392435879059_" gradientUnits="userSpaceOnUse" x1="-39.6305" y1="-46.5804" x2="44.4893" y2="10.1957">
		<stop  offset="0" style="stop-color:#4B2A7A"/>
		<stop  offset="1" style="stop-color:#08A1A7"/>
	</linearGradient>
	<path style="fill:url(#SVGID_00000058551979269724445270000016432151392435879059_);" d="M82.64,35.94L82.64,35.94L82.64,35.94
		L82.64,35.94L82.64,35.94z"/>
	
		<linearGradient id="SVGID_00000059301171373821551620000009402492971083776904_" gradientUnits="userSpaceOnUse" x1="-39.9502" y1="-46.1068" x2="55.9602" y2="18.6273">
		<stop  offset="0" style="stop-color:#4B2A7A"/>
		<stop  offset="1" style="stop-color:#08A1A7"/>
	</linearGradient>
	<path style="fill:url(#SVGID_00000059301171373821551620000009402492971083776904_);" d="M85.28,38.43h0.01v-0.01h-0.01V38.43z"/>
	
		<linearGradient id="SVGID_00000037693409549068380330000010909028023375230875_" gradientUnits="userSpaceOnUse" x1="-40.9556" y1="-44.617" x2="184.0602" y2="107.256">
		<stop  offset="0" style="stop-color:#4B2A7A"/>
		<stop  offset="1" style="stop-color:#08A1A7"/>
	</linearGradient>
	<path style="fill:url(#SVGID_00000037693409549068380330000010909028023375230875_);" d="M82.64,38.43v2.54h2.64
		c0-0.85,0-1.69,0-2.54L82.64,38.43z"/>
	
		<linearGradient id="SVGID_00000004536669043809847370000009041411178391183013_" gradientUnits="userSpaceOnUse" x1="-41.9588" y1="-43.1307" x2="73.661" y2="34.9062">
		<stop  offset="0" style="stop-color:#4B2A7A"/>
		<stop  offset="1" style="stop-color:#08A1A7"/>
	</linearGradient>
	<path style="fill:url(#SVGID_00000004536669043809847370000009041411178391183013_);" d="M82.64,40.97v-0.01h-0.01L82.64,40.97z"/>
	
		<linearGradient id="SVGID_00000046299186028241349320000017311004037482165435_" gradientUnits="userSpaceOnUse" x1="-41.1329" y1="-44.3544" x2="54.7774" y2="20.3796">
		<stop  offset="0" style="stop-color:#4B2A7A"/>
		<stop  offset="1" style="stop-color:#08A1A7"/>
	</linearGradient>
	<path style="fill:url(#SVGID_00000046299186028241349320000017311004037482165435_);" d="M85.29,40.96h-0.01v0.01h0.01V40.96z"/>
	
		<linearGradient id="SVGID_00000003810039961713044710000006981521638002838449_" gradientUnits="userSpaceOnUse" x1="-41.3044" y1="-44.1004" x2="183.7115" y2="107.7726">
		<stop  offset="0" style="stop-color:#4B2A7A"/>
		<stop  offset="1" style="stop-color:#08A1A7"/>
	</linearGradient>
	<path style="fill:url(#SVGID_00000003810039961713044710000006981521638002838449_);" d="M87.88,40.97h-2.6c0,0.82,0,1.65,0,2.49
		h2.6V40.97z"/>
	
		<linearGradient id="SVGID_00000125590604599692140460000002719716496137789105_" gradientUnits="userSpaceOnUse" x1="-37.5761" y1="-49.6242" x2="187.4398" y2="102.2488">
		<stop  offset="0" style="stop-color:#4B2A7A"/>
		<stop  offset="1" style="stop-color:#08A1A7"/>
	</linearGradient>
	<path style="fill:url(#SVGID_00000125590604599692140460000002719716496137789105_);" d="M77.37,25.84h-2.6v2.48h2.6V25.84z"/>
	
		<linearGradient id="SVGID_00000075879398688401109600000005588887544639524795_" gradientUnits="userSpaceOnUse" x1="-43.2093" y1="-41.278" x2="181.8066" y2="110.595">
		<stop  offset="0" style="stop-color:#4B2A7A"/>
		<stop  offset="1" style="stop-color:#08A1A7"/>
	</linearGradient>
	<path style="fill:url(#SVGID_00000075879398688401109600000005588887544639524795_);" d="M66.84,30.88h-2.59v2.49h2.59V30.88z"/>
	
		<linearGradient id="SVGID_00000008126101641882608770000013329103263478743685_" gradientUnits="userSpaceOnUse" x1="-41.5624" y1="-43.718" x2="183.4534" y2="108.155">
		<stop  offset="0" style="stop-color:#4B2A7A"/>
		<stop  offset="1" style="stop-color:#08A1A7"/>
	</linearGradient>
	<path style="fill:url(#SVGID_00000008126101641882608770000013329103263478743685_);" d="M72.1,30.88h-2.59v2.49h2.59V30.88z"/>
	
		<linearGradient id="SVGID_00000100340825992404068670000009414287103663166092_" gradientUnits="userSpaceOnUse" x1="-36.6316" y1="-51.0236" x2="188.3843" y2="100.8494">
		<stop  offset="0" style="stop-color:#4B2A7A"/>
		<stop  offset="1" style="stop-color:#08A1A7"/>
	</linearGradient>
	<path style="fill:url(#SVGID_00000100340825992404068670000009414287103663166092_);" d="M87.88,30.88h-2.56v2.54h2.56V30.88z"/>
	
		<linearGradient id="SVGID_00000098207017439246254470000016633710284656767140_" gradientUnits="userSpaceOnUse" x1="45.783" y1="6.7405" x2="124.8263" y2="60.0902">
		<stop  offset="0" style="stop-color:#4B2A7A"/>
		<stop  offset="1" style="stop-color:#08A1A7"/>
	</linearGradient>
	<path style="fill:url(#SVGID_00000098207017439246254470000016633710284656767140_);" d="M85.31,33.42L85.31,33.42L85.31,33.42
		L85.31,33.42L85.31,33.42L85.31,33.42L85.31,33.42z"/>
	
		<linearGradient id="SVGID_00000106105670674623850340000008855402894327693705_" gradientUnits="userSpaceOnUse" x1="-44.5927" y1="-39.2284" x2="180.4232" y2="112.6446">
		<stop  offset="0" style="stop-color:#4B2A7A"/>
		<stop  offset="1" style="stop-color:#08A1A7"/>
	</linearGradient>
	<path style="fill:url(#SVGID_00000106105670674623850340000008855402894327693705_);" d="M74.76,40.98v2.47h2.62
		c0-0.16,0-0.29,0-0.42c0.01-0.68,0.02-1.36,0.03-2.04c-0.81-0.01-1.61-0.02-2.42-0.03C74.92,40.96,74.84,40.97,74.76,40.98"/>
	
		<linearGradient id="SVGID_00000182489852586592005280000017357567536791698816_" gradientUnits="userSpaceOnUse" x1="41.0385" y1="16.4345" x2="113.783" y2="65.5329">
		<stop  offset="0" style="stop-color:#4B2A7A"/>
		<stop  offset="1" style="stop-color:#08A1A7"/>
	</linearGradient>
	<path style="fill:url(#SVGID_00000182489852586592005280000017357567536791698816_);" d="M77.41,40.99L77.41,40.99L77.41,40.99
		L77.41,40.99L77.41,40.99"/>
	
		<linearGradient id="SVGID_00000091730505932366998810000005989211199525688193_" gradientUnits="userSpaceOnUse" x1="-35.2384" y1="-53.0877" x2="189.7774" y2="98.7853">
		<stop  offset="0" style="stop-color:#4B2A7A"/>
		<stop  offset="1" style="stop-color:#08A1A7"/>
	</linearGradient>
	<path style="fill:url(#SVGID_00000091730505932366998810000005989211199525688193_);" d="M77.37,20.79h-2.6v2.49h2.6V20.79z"/>
	
		<linearGradient id="SVGID_00000003087121885376660040000007485190040114792118_" gradientUnits="userSpaceOnUse" x1="-42.2585" y1="-42.6867" x2="182.7573" y2="109.1863">
		<stop  offset="0" style="stop-color:#4B2A7A"/>
		<stop  offset="1" style="stop-color:#08A1A7"/>
	</linearGradient>
	<path style="fill:url(#SVGID_00000003087121885376660040000007485190040114792118_);" d="M75.67,35.91c-0.3,0-0.6,0-0.91,0v2.5
		h2.62c0-0.82,0-1.64,0-2.47C76.82,35.94,76.25,35.92,75.67,35.91"/>
	
		<linearGradient id="SVGID_00000095303870590634329430000006779006980286909612_" gradientUnits="userSpaceOnUse" x1="-42.4207" y1="-42.4463" x2="76.6457" y2="37.9168">
		<stop  offset="0" style="stop-color:#4B2A7A"/>
		<stop  offset="1" style="stop-color:#08A1A7"/>
	</linearGradient>
	<path style="fill:url(#SVGID_00000095303870590634329430000006779006980286909612_);" d="M77.39,38.42v0.01h0.01v-0.01H77.39z"/>
	
		<linearGradient id="SVGID_00000081613106587416695420000016112077653357757853_" gradientUnits="userSpaceOnUse" x1="-38.8007" y1="-47.8099" x2="54.3842" y2="15.0846">
		<stop  offset="0" style="stop-color:#4B2A7A"/>
		<stop  offset="1" style="stop-color:#08A1A7"/>
	</linearGradient>
	<path style="fill:url(#SVGID_00000081613106587416695420000016112077653357757853_);" d="M85.29,35.95v-0.01h-0.01L85.29,35.95
		L85.29,35.95z"/>
	
		<linearGradient id="SVGID_00000150088861152594088970000017715373063114723240_" gradientUnits="userSpaceOnUse" x1="-38.9696" y1="-47.5596" x2="186.0463" y2="104.3134">
		<stop  offset="0" style="stop-color:#4B2A7A"/>
		<stop  offset="1" style="stop-color:#08A1A7"/>
	</linearGradient>
	<path style="fill:url(#SVGID_00000150088861152594088970000017715373063114723240_);" d="M87.88,38.42v-2.47h-2.59
		c0,0.82,0,1.65,0,2.47H87.88z"/>
	
		<linearGradient id="SVGID_00000106869539240891762730000013309870213488992443_" gradientUnits="userSpaceOnUse" x1="-49.853" y1="-31.4347" x2="175.1629" y2="120.4383">
		<stop  offset="0" style="stop-color:#4B2A7A"/>
		<stop  offset="1" style="stop-color:#08A1A7"/>
	</linearGradient>
	<path style="fill:url(#SVGID_00000106869539240891762730000013309870213488992443_);" d="M82.53,53.32
		c-3.06,1.3-4.59,3.39-4.59,6.28v2.76l0.26,0.25c1.94,0.1,3.85-0.48,5.37-1.63c1.75-1.07,2.62-3.42,2.62-7.04v-1.13l-0.13-0.13
		C84.86,52.67,83.66,52.89,82.53,53.32"/>
	
		<linearGradient id="SVGID_00000109010356934969970320000014621561551081251499_" gradientUnits="userSpaceOnUse" x1="-54.1802" y1="-25.0235" x2="170.8357" y2="126.8495">
		<stop  offset="0" style="stop-color:#4B2A7A"/>
		<stop  offset="1" style="stop-color:#08A1A7"/>
	</linearGradient>
	<path style="fill:url(#SVGID_00000109010356934969970320000014621561551081251499_);" d="M64.31,52.94v3.65
		c0.94,4.02,3.52,6.03,7.73,6.03h0.26l0.26-0.25v-0.88l-0.26-3.52c-1.31-3.52-3.84-5.28-7.6-5.28
		C64.44,52.69,64.31,52.77,64.31,52.94"/>
	
		<linearGradient id="SVGID_00000075883853925476698140000005002175620724843907_" gradientUnits="userSpaceOnUse" x1="-29.7989" y1="-61.147" x2="195.217" y2="90.726">
		<stop  offset="0" style="stop-color:#4B2A7A"/>
		<stop  offset="1" style="stop-color:#08A1A7"/>
	</linearGradient>
	<path style="fill:url(#SVGID_00000075883853925476698140000005002175620724843907_);" d="M143.11,49.36l-0.26,0.25v0.25l0.26,2.26
		c1.31,3.35,3.5,5.03,6.55,5.03h8.78c1.27-0.03,2.53,0.23,3.67,0.75c3.15,1.67,4.72,3.81,4.72,6.41v3.64h-16.65
		c-0.85-0.03-1.69,0.1-2.49,0.38c-3.23,1.3-4.85,3.64-4.85,7.04v0.13l0.26,0.25h31.33l0.26-0.25V64.19c0-2.28-0.79-4.84-2.36-7.67
		c-3.67-4.77-7.91-7.16-12.71-7.16L143.11,49.36z"/>
	
		<linearGradient id="SVGID_00000138536355758360454730000008705315600524944037_" gradientUnits="userSpaceOnUse" x1="-51.5338" y1="-28.9444" x2="173.4821" y2="122.9286">
		<stop  offset="0" style="stop-color:#4B2A7A"/>
		<stop  offset="1" style="stop-color:#08A1A7"/>
	</linearGradient>
	<path style="fill:url(#SVGID_00000138536355758360454730000008705315600524944037_);" d="M92.26,73.05h0.13l-0.2,0.04
		C92.22,73.08,92.24,73.06,92.26,73.05z M136.34,51.05c-0.17,0-0.34,0-0.51,0.01c-0.4,0.02-0.8,0.07-1.2,0.16
		c-0.71,0.14-1.4,0.41-2.02,0.78c-1.35,0.87-2.39,2.12-2.96,3.58c-0.02,0.07-0.04,0.13-0.06,0.2c-0.26,1.05-0.37,2.12-0.33,3.2v2.13
		c0,2.26-1.4,4.27-4.19,6.03c-1.35,0.61-2.83,0.91-4.33,0.88h-3.67c0.2-0.32,0.39-0.66,0.58-1c0.75-1.42,1.22-2.96,1.39-4.54
		c0.03-0.33,0.05-0.66,0.05-0.99V51.31l-0.26-0.25h-0.53c-0.17,0-0.34,0-0.51,0.01c-0.4,0.02-0.8,0.07-1.2,0.16
		c-0.71,0.14-1.4,0.41-2.02,0.78c-1.35,0.87-2.39,2.12-2.96,3.58c-0.02,0.07-0.04,0.13-0.06,0.2c-0.26,1.05-0.37,2.12-0.33,3.2v2.13
		c0,2.26-1.4,4.27-4.19,6.03c-0.79,0.37-1.63,0.63-2.51,0.75c-1.24-0.13-2.43-0.53-3.47-1.19c-1.04-0.65-1.91-1.53-2.53-2.57
		c0.29-1.28,0.44-2.59,0.42-3.91v-8.92l-0.26-0.25H97.9l-1.96,0.25c-0.56,0.23-1.11,0.51-1.62,0.83c-1,0.55-1.82,1.35-2.39,2.31
		c-0.57,0.96-0.86,2.05-0.84,3.15v2.77c0,0.89-0.14,1.78-0.39,2.64c-0.17,0.39-0.37,0.78-0.59,1.15c-1.58,2.59-4.22,3.88-7.93,3.88
		H67.88c-1.49,0.03-2.97-0.27-4.33-0.88c-2.38-1.5-3.75-3.18-4.1-5.05v-3.02c0-0.21-0.06-0.42-0.18-0.61
		c-0.11-0.18-0.28-0.33-0.48-0.44c-0.04-0.02-0.07-0.04-0.11-0.05c-0.15-0.06-0.31-0.09-0.47-0.09h-5.65
		c-0.16,0-0.32,0.03-0.47,0.09c-0.04,0.01-0.08,0.03-0.11,0.05c-0.2,0.1-0.37,0.26-0.49,0.45c-0.01,0.02-0.02,0.03-0.03,0.05
		c-0.09,0.17-0.14,0.36-0.14,0.55v2.84c-0.06,0.36-0.15,0.72-0.25,1.08c-1.46,3.35-4.3,5.03-8.52,5.03H34.2
		c-0.33,0-0.64,0.13-0.88,0.35c-0.23,0.22-0.36,0.52-0.36,0.84v5.42c0,0.3,0.11,0.58,0.32,0.8c0.21,0.22,0.49,0.36,0.8,0.38v0.01
		h9.26c3.33,0.07,6.6-0.9,9.31-2.77h0.13v0.72c0.08,0.51,0.32,0.99,0.7,1.36c0.38,0.37,0.88,0.61,1.41,0.68h48.64l0.1-0.09
		c0.23,0.02,0.45,0.04,0.68,0.05c0.33,0.02,0.67,0.03,1.02,0.04h0.2h15.6c0.07,0,0.13,0,0.2,0c6.03-0.06,10.62-2.65,13.77-7.79
		c0.2-0.32,0.39-0.66,0.58-1c0.75-1.42,1.22-2.96,1.39-4.54c0.03-0.33,0.05-0.66,0.05-0.99V51.31l-0.26-0.25H136.34z"/>
</g>
</svg>
