<svg xmlns="http://www.w3.org/2000/svg" xmlns:xlink="http://www.w3.org/1999/xlink" width="65.033" height="29.436" viewBox="0 0 65.033 29.436">
  <defs>
    <clipPath id="clip-path">
      <rect id="Rectangle_473" data-name="Rectangle 473" width="65.033" height="29.436" fill="#237094"/>
    </clipPath>
    <clipPath id="clip-path-3">
      <path id="Path_22436" data-name="Path 22436" d="M378.165,265.665a2.534,2.534,0,0,0-1.708,2.439v1.074l.1.1a2.954,2.954,0,0,0,2-.634q.976-.623.976-2.733v-.439l-.048-.049a3.451,3.451,0,0,0-1.317.244" transform="translate(-376.457 -265.421)" fill="#237094"/>
    </clipPath>
    <clipPath id="clip-path-4">
      <path id="Path_22437" data-name="Path 22437" d="M310.618,265.519v1.415a2.689,2.689,0,0,0,2.879,2.342h.1l.1-.1v-.341l-.1-1.367a2.788,2.788,0,0,0-2.83-2.049c-.1,0-.146.033-.146.1" transform="translate(-310.618 -265.421)" fill="#237094"/>
    </clipPath>
    <clipPath id="clip-path-5">
      <path id="Path_22438" data-name="Path 22438" d="M690.025,248.65l-.1.1v.1l.1.878a2.544,2.544,0,0,0,2.44,1.952h3.269a3.008,3.008,0,0,1,1.367.293,2.857,2.857,0,0,1,1.756,2.488v1.415h-6.2a2.515,2.515,0,0,0-.927.146,2.734,2.734,0,0,0-1.805,2.732v.049l.1.1h11.662l.1-.1v-4.391a6.442,6.442,0,0,0-.878-2.977,5.853,5.853,0,0,0-4.733-2.781Z" transform="translate(-689.927 -248.65)" fill="#237094"/>
    </clipPath>
    <clipPath id="clip-path-6">
      <path id="Path_22445" data-name="Path 22445" d="M181.288,265.727h.049l-.073.017.024-.017m16.406-8.539c-.064,0-.127,0-.189.005a2.672,2.672,0,0,0-.446.061,2.321,2.321,0,0,0-.751.3,2.9,2.9,0,0,0-1.1,1.389c-.009.025-.016.05-.024.077a4.77,4.77,0,0,0-.123,1.241v.829a2.865,2.865,0,0,1-1.562,2.342,3.553,3.553,0,0,1-1.61.341h-1.366q.111-.19.216-.389a5.069,5.069,0,0,0,.519-1.764c.012-.128.018-.257.018-.384v-3.952l-.1-.1h-.2c-.064,0-.127,0-.189.005a2.673,2.673,0,0,0-.446.061,2.32,2.32,0,0,0-.751.3,2.9,2.9,0,0,0-1.1,1.389c-.008.025-.016.05-.024.077a4.775,4.775,0,0,0-.122,1.241v.829a2.865,2.865,0,0,1-1.562,2.342,3.1,3.1,0,0,1-.932.291,2.941,2.941,0,0,1-2.235-1.457,6.853,6.853,0,0,0,.158-1.517v-3.465l-.1-.1h-.293l-.732.1a4.272,4.272,0,0,0-.6.321,2.4,2.4,0,0,0-1.2,2.118V260.8a3.813,3.813,0,0,1-.146,1.024,3.7,3.7,0,0,1-.221.446,3.143,3.143,0,0,1-2.95,1.507h-5.319a3.564,3.564,0,0,1-1.61-.341,3.105,3.105,0,0,1-1.527-1.961V260.3a.462.462,0,0,0-.243-.406.418.418,0,0,0-.042-.02.455.455,0,0,0-.175-.035h-2.1a.457.457,0,0,0-.175.035.341.341,0,0,0-.042.02.461.461,0,0,0-.181.173.169.169,0,0,0-.011.02.46.46,0,0,0-.052.213v1.1a4.04,4.04,0,0,1-.094.418,3.115,3.115,0,0,1-3.172,1.952h-3.11a.461.461,0,0,0-.461.461v2.1a.46.46,0,0,0,.419.459v0h3.445a5.731,5.731,0,0,0,3.465-1.074h.049v.281a.934.934,0,0,0,.788.793h18.106l.036-.036q.126.013.254.021c.124.009.25.012.378.014h5.956a5.681,5.681,0,0,0,5.126-3.024c.074-.126.146-.256.216-.389a5.07,5.07,0,0,0,.519-1.764c.012-.128.018-.257.018-.384v-3.952l-.1-.1Z" transform="translate(-159.214 -257.188)" fill="#237094"/>
    </clipPath>
  </defs>
  <g id="Group_3126" data-name="Group 3126" transform="translate(-3382.156 1506.897)">
    <g id="Group_438" data-name="Group 438" transform="translate(3382.156 -1506.897)">
      <g id="Group_3120" data-name="Group 3120" transform="translate(0 0)">
        <g id="Group_3115" data-name="Group 3115">
          <g id="Group_3114" data-name="Group 3114" clip-path="url(#clip-path)">
            <path id="Path_22439" data-name="Path 22439" d="M107.9,342.658h-2.1a.461.461,0,0,0-.461.461v2.1a.461.461,0,0,0,.461.461h2.1a.461.461,0,0,0,.461-.461v-2.1a.461.461,0,0,0-.461-.461" transform="translate(-97.22 -316.247)" fill="#237094"/>
            <path id="Path_22440" data-name="Path 22440" d="M55.234,342.658h-2.1a.461.461,0,0,0-.461.461v2.1a.461.461,0,0,0,.461.461h2.1a.461.461,0,0,0,.461-.461v-2.1a.461.461,0,0,0-.461-.461" transform="translate(-48.61 -316.247)" fill="#237094"/>
            <path id="Path_22441" data-name="Path 22441" d="M2.564,342.658H.461a.461.461,0,0,0-.461.461v2.1a.461.461,0,0,0,.461.461h2.1a.461.461,0,0,0,.461-.461v-2.1a.461.461,0,0,0-.461-.461" transform="translate(0 -316.247)" fill="#237094"/>
            <path id="Path_22471" data-name="Path 22471" d="M2.564,342.658H.461a.461.461,0,0,0-.461.461v2.1a.461.461,0,0,0,.461.461h2.1a.461.461,0,0,0,.461-.461v-2.1a.461.461,0,0,0-.461-.461" transform="translate(0 -320.566)" fill="#237094"/>
            <path id="Path_22442" data-name="Path 22442" d="M248.2,136.932a.457.457,0,0,0,.175.035h2.1a.454.454,0,0,0,.175-.035.462.462,0,0,0,.285-.426v-2.1a.462.462,0,0,0-.46-.461h-2.1a.461.461,0,0,0-.461.461v2.1a.463.463,0,0,0,.286.426" transform="translate(-228.81 -123.617)" fill="#237094"/>
            <path id="Path_22443" data-name="Path 22443" d="M248.2,189.6a.455.455,0,0,0,.175.035h2.1a.452.452,0,0,0,.175-.035.461.461,0,0,0,.285-.426v-2.1a.462.462,0,0,0-.285-.426.453.453,0,0,0-.175-.035h-2.1a.462.462,0,0,0-.461.461v2.1a.457.457,0,0,0,.063.233.462.462,0,0,0,.223.193" transform="translate(-228.81 -172.228)" fill="#237094"/>
            <path id="Path_22444" data-name="Path 22444" d="M248.15,242.245a.462.462,0,0,0,.229.061h2.1a.457.457,0,0,0,.415-.263.156.156,0,0,0,.011-.023.457.457,0,0,0,.035-.175v-2.1a.461.461,0,0,0-.46-.461h-2.1a.458.458,0,0,0-.175.035.463.463,0,0,0-.223.193.457.457,0,0,0-.063.233v2.1a.464.464,0,0,0,.232.4" transform="translate(-228.81 -220.838)" fill="#237094"/>
          </g>
        </g>
        <g id="Group_3119" data-name="Group 3119">
          <g id="Group_3118" data-name="Group 3118" clip-path="url(#clip-path)">
            <path id="Path_22446" data-name="Path 22446" d="M250.314,9.612h.293l.042-.005a2.755,2.755,0,0,0,.446-.06l.243-.032a4.4,4.4,0,0,0,.522-.27,2.574,2.574,0,0,0,1.121-1.258,2.468,2.468,0,0,0,.163-.912V6a3.792,3.792,0,0,1,.146-1.024,3.114,3.114,0,0,1,3.171-1.952h.262v.148a.962.962,0,0,0,.962.962h2.852a.962.962,0,0,0,.962-.962V3.025h.086a3.114,3.114,0,0,1,3.171,1.952A3.793,3.793,0,0,1,264.9,6V7.075a2.587,2.587,0,0,0,1.806,2.439l.243.032a2.756,2.756,0,0,0,.446.06l.042.005h.341l.1-.1V5.563a4.871,4.871,0,0,0-.536-2.147c-.07-.134-.142-.264-.216-.39A5.683,5.683,0,0,0,262,0h-5.956a5.683,5.683,0,0,0-5.126,3.024c-.074.126-.146.256-.216.39a5.067,5.067,0,0,0-.519,1.763c-.012.129-.018.257-.018.384V9.514l.1.1Z" transform="translate(-230.886)" fill="#237094"/>
            <path id="Path_22447" data-name="Path 22447" d="M313.112,105.181a.486.486,0,0,0-.535-.531c-.309,0-.618,0-.927,0h-.928a.491.491,0,0,0-.548.543q0,.927,0,1.855a.489.489,0,0,0,.529.54q.94.007,1.879,0a.49.49,0,0,0,.53-.538q0-.934,0-1.868m-.987,1.419h-.969v-.965h.969Z" transform="translate(-286.266 -96.583)" fill="#237094"/>
            <path id="Path_22448" data-name="Path 22448" d="M389.363,105.164a.482.482,0,0,0-.523-.519c-.313,0-.626,0-.94,0s-.634,0-.951,0a.483.483,0,0,0-.523.519q0,.951,0,1.9a.478.478,0,0,0,.5.513q.963.01,1.926,0a.479.479,0,0,0,.506-.513q.006-.952,0-1.9m-.987,1.429h-.966v-.961h.966Z" transform="translate(-356.64 -96.579)" fill="#237094"/>
            <path id="Path_22449" data-name="Path 22449" d="M310.174,183.311a.488.488,0,0,0,.523.533q.945.007,1.891,0a.487.487,0,0,0,.524-.533q0-.94,0-1.879a.484.484,0,0,0-.528-.526h-1.868a.49.49,0,0,0-.542.536q0,.934,0,1.867m.985-1.42h.969v.968h-.969Z" transform="translate(-286.266 -166.963)" fill="#237094"/>
            <path id="Path_22450" data-name="Path 22450" d="M373.759,168.238h0v0Z" transform="translate(-344.951 -155.268)" fill="#237094"/>
            <path id="Path_22451" data-name="Path 22451" d="M399.076,206.35h0l0,0Z" transform="translate(-368.317 -190.443)" fill="#237094"/>
            <path id="Path_22452" data-name="Path 22452" d="M373.766,181.032h0v-.005h0v.005Z" transform="translate(-344.954 -167.074)" fill="#237094"/>
            <path id="Path_22453" data-name="Path 22453" d="M374.782,158.479h.965q0-.48,0-.96l-.687-.012c-.089,0-.179,0-.278,0v-.979h.963v-.976h-.975v.981H373.8v.983h.964v.967H373.8q0,.5.007.993h.968v.961h.971v-.966h-.964Z" transform="translate(-344.987 -143.563)" fill="#237094"/>
            <rect id="Rectangle_475" data-name="Rectangle 475" width="0.003" height="0.003" transform="translate(30.759 14.916)" fill="#237094"/>
            <path id="Path_22454" data-name="Path 22454" d="M373.759,168.239l0,0h0Z" transform="translate(-344.952 -155.269)" fill="#237094"/>
            <path id="Path_22455" data-name="Path 22455" d="M361.106,155.565v.977h.975v-.977Z" transform="translate(-333.274 -143.575)" fill="#237094"/>
            <path id="Path_22456" data-name="Path 22456" d="M399.072,168.216v0h0v0h0" transform="translate(-368.31 -155.247)" fill="#237094"/>
            <path id="Path_22457" data-name="Path 22457" d="M400.1,169.25q0-.488.009-.976l-.993-.008q0,.492,0,.984Z" transform="translate(-368.355 -155.297)" fill="#237094"/>
            <path id="Path_22458" data-name="Path 22458" d="M399.085,181.03h0v0h0Z" transform="translate(-368.323 -167.077)" fill="#237094"/>
            <path id="Path_22459" data-name="Path 22459" d="M411.893,193.527h0v0h0v0" transform="translate(-380.146 -178.608)" fill="#237094"/>
            <path id="Path_22460" data-name="Path 22460" d="M399.12,193.567v.985h.983q0-.493,0-.986Z" transform="translate(-368.358 -178.648)" fill="#237094"/>
            <path id="Path_22461" data-name="Path 22461" d="M399.079,206.35v0h0l0,0" transform="translate(-368.317 -190.443)" fill="#237094"/>
            <rect id="Rectangle_476" data-name="Rectangle 476" width="0.003" height="0.003" transform="translate(31.746 15.905)" fill="#237094"/>
            <path id="Path_22462" data-name="Path 22462" d="M412.888,206.4h-.967c0,.32,0,.639,0,.966h.967Z" transform="translate(-380.172 -190.492)" fill="#237094"/>
            <rect id="Rectangle_477" data-name="Rectangle 477" width="0.969" height="0.964" transform="translate(27.833 10.033)" fill="#237094"/>
            <rect id="Rectangle_478" data-name="Rectangle 478" width="0.965" height="0.965" transform="translate(23.916 11.99)" fill="#237094"/>
            <rect id="Rectangle_479" data-name="Rectangle 479" width="0.963" height="0.968" transform="translate(25.875 11.988)" fill="#237094"/>
            <path id="Path_22463" data-name="Path 22463" d="M412.994,155.553h-.955v.985h.955Z" transform="translate(-380.281 -143.564)" fill="#237094"/>
            <path id="Path_22464" data-name="Path 22464" d="M412.009,168.332v0h0v0h0v0Z" transform="translate(-380.251 -155.355)" fill="#237094"/>
            <path id="Path_22465" data-name="Path 22465" d="M361.085,206.34v.959h.976c0-.061,0-.112,0-.163q0-.4.01-.794l-.9-.012a.658.658,0,0,0-.087.01" transform="translate(-333.254 -190.427)" fill="#237094"/>
            <path id="Path_22466" data-name="Path 22466" d="M373.88,206.458h0v0h0v0" transform="translate(-345.063 -190.543)" fill="#237094"/>
            <rect id="Rectangle_480" data-name="Rectangle 480" width="0.967" height="0.966" transform="translate(27.833 8.074)" fill="#237094"/>
            <path id="Path_22467" data-name="Path 22467" d="M361.452,180.9c-.112,0-.223,0-.337,0v.971h.975q0-.479,0-.957l-.637-.014" transform="translate(-333.282 -166.959)" fill="#237094"/>
            <path id="Path_22468" data-name="Path 22468" d="M373.763,193.515v0h0v0Z" transform="translate(-344.955 -178.6)" fill="#237094"/>
            <path id="Path_22469" data-name="Path 22469" d="M411.9,181.035v0h0v0Z" transform="translate(-380.15 -167.078)" fill="#237094"/>
            <path id="Path_22470" data-name="Path 22470" d="M412.9,182.038v-.959h-.964q0,.48,0,.959Z" transform="translate(-380.182 -167.122)" fill="#237094"/>
          </g>
        </g>
      </g>
      <g id="Group_3125" data-name="Group 3125" transform="translate(12.271 19.165)">
        <g id="Group_3121" data-name="Group 3121" transform="translate(16.744 1.293)">
          <g id="Group_3108" data-name="Group 3108" clip-path="url(#clip-path-3)">
            <rect id="Rectangle_470" data-name="Rectangle 470" width="3.074" height="3.855" fill="#237094"/>
          </g>
        </g>
        <g id="Group_3122" data-name="Group 3122" transform="translate(11.67 1.293)">
          <g id="Group_3110" data-name="Group 3110" clip-path="url(#clip-path-4)">
            <rect id="Rectangle_471" data-name="Rectangle 471" width="3.074" height="3.855" transform="translate(0)" fill="#237094"/>
          </g>
        </g>
        <g id="Group_3123" data-name="Group 3123" transform="translate(40.905)">
          <g id="Group_3112" data-name="Group 3112" clip-path="url(#clip-path-5)">
            <rect id="Rectangle_472" data-name="Rectangle 472" width="11.857" height="10.246" fill="#237094"/>
          </g>
        </g>
        <g id="Group_3124" data-name="Group 3124" transform="translate(0 0.658)">
          <g id="Group_3116" data-name="Group 3116" clip-path="url(#clip-path-6)">
            <rect id="Rectangle_474" data-name="Rectangle 474" width="38.774" height="9.613" transform="translate(0)" fill="#237094"/>
          </g>
        </g>
      </g>
    </g>
  </g>
</svg>
