<svg width="57" height="25" viewBox="0 0 57 25" fill="none" xmlns="http://www.w3.org/2000/svg">
<mask id="mask0_1_604" style="mask-type:luminance" maskUnits="userSpaceOnUse" x="0" y="0" width="57" height="25">
<path d="M57 0.131997H0V24.8678H57V0.131997Z" fill="white"/>
</mask>
<g mask="url(#mask0_1_604)">
<path d="M9.36379 22.3256H7.51999C7.41288 22.3256 7.31015 22.3664 7.23441 22.4391C7.15867 22.5117 7.11612 22.6102 7.11612 22.7129V24.4806C7.11612 24.5833 7.15867 24.6818 7.23441 24.7544C7.31015 24.827 7.41288 24.8678 7.51999 24.8678H9.36379C9.4709 24.8678 9.57363 24.827 9.64937 24.7544C9.72511 24.6818 9.76766 24.5833 9.76766 24.4806V22.7129C9.76766 22.6102 9.72511 22.5117 9.64937 22.4391C9.57363 22.3664 9.4709 22.3256 9.36379 22.3256Z" fill="url(#paint0_linear_1_604)"/>
<path d="M5.80585 22.3256H3.96205C3.85494 22.3256 3.75221 22.3664 3.67647 22.4391C3.60073 22.5117 3.55818 22.6102 3.55818 22.7129V24.4806C3.55818 24.5833 3.60073 24.6818 3.67647 24.7544C3.75221 24.827 3.85494 24.8678 3.96205 24.8678H5.80585C5.91297 24.8678 6.01569 24.827 6.09143 24.7544C6.16717 24.6818 6.20972 24.5833 6.20972 24.4806V22.7129C6.20972 22.6102 6.16717 22.5117 6.09143 22.4391C6.01569 22.3664 5.91297 22.3256 5.80585 22.3256Z" fill="url(#paint1_linear_1_604)"/>
<path d="M2.24767 22.3256H0.403871C0.296758 22.3256 0.194032 22.3664 0.118291 22.4391C0.0425506 22.5117 0 22.6102 0 22.7129L0 24.4806C0 24.5833 0.0425506 24.6818 0.118291 24.7544C0.194032 24.827 0.296758 24.8678 0.403871 24.8678H2.24767C2.35478 24.8678 2.45751 24.827 2.53325 24.7544C2.60899 24.6818 2.65154 24.5833 2.65154 24.4806V22.7129C2.65154 22.6102 2.60899 22.5117 2.53325 22.4391C2.45751 22.3664 2.35478 22.3256 2.24767 22.3256Z" fill="url(#paint2_linear_1_604)"/>
<path d="M2.24767 18.6962H0.403871C0.296758 18.6962 0.194032 18.737 0.118291 18.8096C0.0425506 18.8822 0 18.9807 0 19.0834L0 20.8512C0 20.9539 0.0425506 21.0524 0.118291 21.125C0.194032 21.1976 0.296758 21.2384 0.403871 21.2384H2.24767C2.35478 21.2384 2.45751 21.1976 2.53325 21.125C2.60899 21.0524 2.65154 20.9539 2.65154 20.8512V19.0834C2.65154 18.9807 2.60899 18.8822 2.53325 18.8096C2.45751 18.737 2.35478 18.6962 2.24767 18.6962Z" fill="url(#paint3_linear_1_604)"/>
<path d="M16.9986 11.3202C17.0472 11.3395 17.0993 11.3493 17.1519 11.3493H18.9961C19.0488 11.3494 19.1009 11.3395 19.1495 11.3202C19.2233 11.2909 19.2865 11.2412 19.331 11.1774C19.3754 11.1137 19.3992 11.0387 19.3993 10.9621V9.19451C19.3991 9.09214 19.3567 8.994 19.2814 8.92146C19.2061 8.84893 19.1039 8.80789 18.9971 8.80729H17.1528C17.0457 8.80735 16.943 8.84817 16.8673 8.92078C16.7916 8.99338 16.749 9.09183 16.7489 9.19451V10.9621C16.7492 11.0388 16.7731 11.1137 16.8177 11.1775C16.8623 11.2412 16.9256 11.2909 16.9995 11.3202" fill="url(#paint4_linear_1_604)"/>
<path d="M16.9986 14.7315C17.0472 14.7508 17.0993 14.7608 17.1519 14.7607H18.9961C19.0488 14.7608 19.1009 14.7509 19.1495 14.7315C19.2234 14.7022 19.2867 14.6526 19.3312 14.5888C19.3757 14.525 19.3994 14.45 19.3993 14.3733V12.6057C19.3994 12.5033 19.3571 12.405 19.2817 12.3324C19.2063 12.2598 19.1039 12.2189 18.9971 12.2185H17.1528C17.0458 12.2188 16.9433 12.2597 16.8676 12.3323C16.7919 12.4048 16.7493 12.5031 16.7489 12.6057V14.3733C16.7489 14.442 16.768 14.5095 16.8043 14.5688C16.8491 14.642 16.9177 14.6991 16.9995 14.7315" fill="url(#paint5_linear_1_604)"/>
<path d="M16.9512 18.1209C17.0123 18.1545 17.0815 18.1721 17.1519 18.1722H18.9961C19.0724 18.1723 19.147 18.1516 19.2114 18.1124C19.2758 18.0733 19.3272 18.0174 19.3596 17.9512C19.3633 17.945 19.3664 17.9385 19.369 17.9317C19.3891 17.8851 19.3994 17.8352 19.3993 17.7847V16.0172C19.3994 15.9148 19.3571 15.8165 19.2817 15.7439C19.2063 15.6713 19.1039 15.6303 18.9971 15.63H17.1528C17.1002 15.6299 17.0481 15.6398 16.9995 15.659C16.9177 15.6914 16.8491 15.7485 16.8043 15.8217C16.768 15.8809 16.7489 15.9485 16.7489 16.0172V17.7847C16.7492 17.8529 16.7681 17.9198 16.8038 17.9788C16.8394 18.0378 16.8906 18.0868 16.9522 18.1209" fill="url(#paint6_linear_1_604)"/>
</g>
<mask id="mask1_1_604" style="mask-type:luminance" maskUnits="userSpaceOnUse" x="0" y="0" width="57" height="25">
<path d="M57 0.131997H0V24.8678H57V0.131997Z" fill="white"/>
</mask>
<g mask="url(#mask1_1_604)">
<path d="M17.0286 8.20934H17.2863L17.3234 8.20481C17.455 8.1982 17.5858 8.18128 17.7145 8.15422L17.9274 8.127C18.085 8.06123 18.2378 7.98545 18.3848 7.90016C18.8266 7.66344 19.1726 7.29112 19.3671 6.84308C19.4649 6.59861 19.5134 6.33861 19.5103 6.07681V5.17489C19.5119 4.88366 19.5551 4.59401 19.6387 4.31403C20.1157 3.22066 21.0422 2.67397 22.418 2.67397H22.648V2.79828C22.648 3.01264 22.7368 3.21822 22.8949 3.36979C23.053 3.52136 23.2674 3.60652 23.491 3.60652H25.9904C26.214 3.60652 26.4284 3.52136 26.5865 3.36979C26.7446 3.21822 26.8334 3.01264 26.8334 2.79828V2.67397H26.9091C28.2845 2.67397 29.211 3.22066 29.6884 4.31403C29.7721 4.59401 29.8153 4.88366 29.8169 5.17489V6.07704C29.8169 6.99953 30.3445 7.68284 31.3997 8.127L31.6127 8.15422C31.7414 8.18128 31.8722 8.1982 32.0038 8.20481L32.0409 8.20934H32.3402L32.4261 8.127V4.80628C32.4159 4.17815 32.255 3.56071 31.956 3.00176C31.8945 2.88834 31.8318 2.78014 31.7667 2.67397C30.7373 0.997924 29.2393 0.150598 27.2725 0.131997H27.207H22.1173C22.0958 0.131997 22.0733 0.131997 22.0518 0.131997C20.0852 0.150144 18.5877 0.997016 17.5593 2.67261C17.4945 2.77877 17.4315 2.88766 17.37 3.0004C17.1255 3.46366 16.9713 3.96591 16.9153 4.48235C16.9051 4.59055 16.8997 4.69807 16.8997 4.80492V8.127L16.9855 8.20934H17.0286Z" fill="url(#paint7_linear_1_604)"/>
<path d="M23.5301 7.35688C23.5363 7.29651 23.5284 7.23557 23.507 7.17848C23.4856 7.1214 23.4512 7.06961 23.4062 7.02688C23.3613 6.98415 23.307 6.95155 23.2474 6.93145C23.1877 6.91135 23.124 6.90425 23.0611 6.91068C22.7902 6.90932 22.5193 6.91068 22.2484 6.91068H21.435C21.3704 6.90309 21.3049 6.90963 21.2434 6.92979C21.1818 6.94995 21.1258 6.98322 21.0796 7.02709C21.0334 7.07097 20.9982 7.12431 20.9765 7.18312C20.9549 7.24192 20.9474 7.30466 20.9547 7.36663C20.9533 7.8861 20.9533 8.40579 20.9547 8.92571C20.9479 8.98607 20.9552 9.04712 20.9759 9.10447C20.9967 9.16183 21.0304 9.21407 21.0747 9.25744C21.1191 9.30081 21.1728 9.33424 21.2322 9.35532C21.2916 9.37641 21.3551 9.38463 21.4182 9.37939C21.9674 9.38332 22.5164 9.38332 23.0651 9.37939C23.1282 9.38472 23.1916 9.37664 23.251 9.35571C23.3104 9.33478 23.3642 9.30152 23.4086 9.25832C23.453 9.21512 23.4869 9.16304 23.5078 9.10582C23.5288 9.04859 23.5363 8.98763 23.5298 8.92729C23.5319 8.4039 23.5319 7.8808 23.5298 7.35801M22.6651 8.55028H21.8159V7.7382H22.6651V8.55028Z" fill="url(#paint8_linear_1_604)"/>
<path d="M28.6808 7.34667C28.6857 7.28789 28.6771 7.2288 28.6557 7.17351C28.6343 7.11823 28.6006 7.06808 28.557 7.02657C28.5133 6.98506 28.4607 6.95318 28.4028 6.93317C28.345 6.91315 28.2833 6.90548 28.222 6.91068C27.9478 6.90864 27.6736 6.91068 27.3984 6.91068C27.1233 6.91068 26.8431 6.90932 26.5649 6.91068C26.5037 6.90562 26.4421 6.9134 26.3843 6.93348C26.3266 6.95356 26.2741 6.98545 26.2305 7.02694C26.1869 7.06843 26.1533 7.11852 26.1319 7.17373C26.1106 7.22895 26.102 7.28796 26.1068 7.34667C26.1042 7.87959 26.1042 8.41259 26.1068 8.94567C26.1025 9.00276 26.1109 9.06009 26.1314 9.11382C26.152 9.16756 26.1843 9.21646 26.2262 9.25726C26.2681 9.29806 26.3186 9.32982 26.3743 9.35041C26.43 9.371 26.4897 9.37995 26.5493 9.37666C27.1121 9.38241 27.6748 9.38241 28.2374 9.37666C28.2971 9.38005 28.3568 9.37117 28.4126 9.35063C28.4684 9.33008 28.519 9.29834 28.5609 9.25753C28.6029 9.21672 28.6353 9.16778 28.6559 9.114C28.6765 9.06021 28.6849 9.00282 28.6805 8.94567C28.6839 8.41259 28.6839 7.87959 28.6805 7.34667M27.8151 8.54756H26.9678V7.73888H27.8151V8.54756Z" fill="url(#paint9_linear_1_604)"/>
<path d="M20.9547 13.8695C20.9487 13.929 20.9563 13.9892 20.9771 14.0456C20.9979 14.102 21.0314 14.1534 21.0751 14.1961C21.1188 14.2389 21.1718 14.2719 21.2302 14.2929C21.2887 14.3139 21.3512 14.3224 21.4135 14.3177C21.9655 14.3216 22.5176 14.3216 23.0696 14.3177C23.1319 14.3225 23.1945 14.3141 23.253 14.2932C23.3115 14.2723 23.3645 14.2394 23.4083 14.1967C23.4521 14.1541 23.4856 14.1027 23.5065 14.0463C23.5274 13.9899 23.5351 13.9297 23.5291 13.8702C23.5312 13.3436 23.5312 12.8172 23.5291 12.2911C23.5348 12.2316 23.5266 12.1716 23.5053 12.1154C23.484 12.0592 23.4501 12.0083 23.4059 11.9661C23.3617 11.9239 23.3084 11.8916 23.2497 11.8714C23.191 11.8513 23.1284 11.8438 23.0663 11.8495C22.7947 11.8495 22.5238 11.8495 22.2529 11.8495C21.982 11.8495 21.7038 11.8495 21.4293 11.8495C21.3656 11.8426 21.3011 11.8495 21.2406 11.8697C21.1801 11.8898 21.125 11.9227 21.0795 11.966C21.0339 12.0092 20.9991 12.0616 20.9774 12.1195C20.9558 12.1773 20.9479 12.2391 20.9545 12.3002C20.953 12.8236 20.953 13.3467 20.9545 13.8695M21.8178 12.6758H22.667V13.4893H21.8178V12.6758Z" fill="url(#paint10_linear_1_604)"/>
<path d="M25.2492 11.0317H25.2523V11.0283L25.2492 11.0317Z" fill="url(#paint11_linear_1_604)"/>
<path d="M26.9595 13.4998H26.963L26.9595 13.497V13.4998Z" fill="url(#paint12_linear_1_604)"/>
<path d="M25.2527 11.8612V11.8569H25.2494V11.8612H25.2527Z" fill="url(#paint13_linear_1_604)"/>
<path d="M26.1142 12.6665H26.9598C26.9598 12.3975 26.9598 12.1285 26.9598 11.8597C26.7591 11.8563 26.5575 11.8524 26.3578 11.8497C26.2795 11.8497 26.2012 11.8497 26.1146 11.8497V11.0272H26.9588V10.2071H26.104V11.0312H25.2522L25.2534 11.8569H26.0985V12.6693H25.2522C25.2544 12.9475 25.2566 13.2258 25.2589 13.504H26.1071V14.3114H26.9588V13.4993H26.1134L26.1142 12.6665Z" fill="url(#paint14_linear_1_604)"/>
<path d="M26.9629 12.6665H26.9597V12.6699H26.9629V12.6665Z" fill="url(#paint15_linear_1_604)"/>
<path d="M25.2492 11.0316L25.2523 11.0285H25.2492V11.0316Z" fill="url(#paint16_linear_1_604)"/>
<path d="M24.3943 10.2078V11.0285H25.2492V10.2078H24.3943Z" fill="url(#paint17_linear_1_604)"/>
<path d="M26.9634 11.0315V11.0269H26.959V11.0315H26.9634Z" fill="url(#paint18_linear_1_604)"/>
<path d="M27.8257 11.8569L27.8333 11.0367L26.9626 11.0301C26.9626 11.3056 26.9626 11.5812 26.9626 11.8567L27.8257 11.8569Z" fill="url(#paint19_linear_1_604)"/>
<path d="M26.9629 11.8572H26.96V11.8603H26.9629V11.8572Z" fill="url(#paint20_linear_1_604)"/>
<path d="M27.8255 12.6697H27.8289V12.6663H27.8255V12.6697Z" fill="url(#paint21_linear_1_604)"/>
<path d="M26.9626 12.6693V13.497H27.8245C27.8245 13.2209 27.8245 12.9447 27.8245 12.6686L26.9626 12.6693Z" fill="url(#paint22_linear_1_604)"/>
<path d="M26.964 13.5005V13.497H26.9595L26.964 13.5005Z" fill="url(#paint23_linear_1_604)"/>
<path d="M27.8277 13.4977H27.8243V13.5011H27.8277V13.4977Z" fill="url(#paint24_linear_1_604)"/>
<path d="M28.6741 13.5004H27.8266C27.8266 13.769 27.8266 14.0376 27.8266 14.3125H28.6741V13.5004Z" fill="url(#paint25_linear_1_604)"/>
<path d="M25.2449 8.56299H24.3953V9.37281H25.2449V8.56299Z" fill="url(#paint26_linear_1_604)"/>
<path d="M21.8069 10.2071H20.9613V11.0179H21.8069V10.2071Z" fill="url(#paint27_linear_1_604)"/>
<path d="M23.5229 10.206H22.679V11.019H23.5229V10.206Z" fill="url(#paint28_linear_1_604)"/>
<path d="M28.672 10.2071H27.8352V11.0344H28.672V10.2071Z" fill="url(#paint29_linear_1_604)"/>
<path d="M27.8356 11.0375V11.0344H27.833L27.8345 11.0364V11.035V11.0378L27.8356 11.0375Z" fill="url(#paint30_linear_1_604)"/>
<path d="M24.3929 13.5043V14.3098H25.2482C25.2482 14.258 25.2482 14.2156 25.2482 14.1737C25.2509 13.9512 25.2537 13.7288 25.2567 13.5065C24.9939 13.5029 24.7312 13.4996 24.4686 13.4965C24.4431 13.4977 24.4176 13.5005 24.3924 13.5049" fill="url(#paint31_linear_1_604)"/>
<path d="M25.2574 13.5062H25.2601V13.5038H25.2574V13.5059" fill="url(#paint32_linear_1_604)"/>
<path d="M25.2428 6.91658H24.3951V7.72799H25.2428V6.91658Z" fill="url(#paint33_linear_1_604)"/>
<path d="M24.6908 11.8497C24.5931 11.8481 24.4951 11.8497 24.395 11.8497V12.6663H25.2496C25.2496 12.3982 25.2496 12.1301 25.2496 11.8619C25.0634 11.8578 24.8772 11.8533 24.691 11.8501" fill="url(#paint34_linear_1_604)"/>
<path d="M25.2494 12.6659V12.67H25.2537V12.6659H25.2494Z" fill="url(#paint35_linear_1_604)"/>
<path d="M27.8286 11.8611V11.8572H27.8257V11.8611H27.8286Z" fill="url(#paint36_linear_1_604)"/>
<path d="M28.6723 12.6663V11.8603H27.8274C27.8274 12.1291 27.8274 12.3977 27.8274 12.6663H28.6723Z" fill="url(#paint37_linear_1_604)"/>
</g>
<mask id="mask2_1_604" style="mask-type:luminance" maskUnits="userSpaceOnUse" x="25" y="17" width="4" height="4">
<path d="M26.9285 17.5284C25.9299 17.9519 25.4309 18.6352 25.4313 19.5784V20.4805L25.5172 20.5629C26.1499 20.5968 26.7736 20.4071 27.2702 20.0298C27.8404 19.6806 28.1255 18.915 28.1255 17.733V17.3637L28.0829 17.3224C27.6877 17.3179 27.2955 17.3876 26.9283 17.5277" fill="white"/>
</mask>
<g mask="url(#mask2_1_604)">
<path d="M28.1255 17.3233H25.4313V20.5631H28.1255V17.3233Z" fill="url(#paint38_linear_1_604)"/>
</g>
<mask id="mask3_1_604" style="mask-type:luminance" maskUnits="userSpaceOnUse" x="20" y="17" width="4" height="4">
<path d="M20.9838 17.4052V18.5946C21.2904 19.9068 22.1314 20.5629 23.5069 20.5629H23.5927L23.6779 20.4805V20.1936L23.5927 19.0453C23.1651 17.8975 22.3382 17.3234 21.112 17.3231C21.0261 17.3231 20.9836 17.3508 20.9836 17.4052" fill="white"/>
</mask>
<g mask="url(#mask3_1_604)">
<path d="M23.6782 17.3231H20.984V20.5629H23.6782V17.3231Z" fill="url(#paint39_linear_1_604)"/>
</g>
<mask id="mask4_1_604" style="mask-type:luminance" maskUnits="userSpaceOnUse" x="46" y="16" width="11" height="9">
<path d="M46.6938 16.2368L46.608 16.3184V16.4008L46.6938 17.1385C47.1216 18.2323 47.8343 18.7791 48.832 18.779H51.6969C52.1107 18.7697 52.521 18.8541 52.8946 19.0251C53.9208 19.5716 54.434 20.2686 54.4341 21.1159V22.3048H49.0028C48.7262 22.2966 48.4505 22.3383 48.1901 22.4279C47.1356 22.8514 46.6083 23.6167 46.608 24.724V24.7649L46.6938 24.8472H56.9148L57 24.7649V21.0751C57 20.3303 56.7435 19.4965 56.2306 18.5737C55.0328 17.0161 53.65 16.2372 52.0821 16.2372L46.6938 16.2368Z" fill="white"/>
</mask>
<g mask="url(#mask4_1_604)">
<path d="M57 16.2368H46.608V24.8472H57V16.2368Z" fill="url(#paint40_linear_1_604)"/>
</g>
<mask id="mask5_1_604" style="mask-type:luminance" maskUnits="userSpaceOnUse" x="10" y="16" width="35" height="9">
<path d="M30.1034 23.9657H30.1467L30.0826 23.98C30.0895 23.9754 30.0968 23.9709 30.1034 23.9657ZM44.4831 16.7898C44.427 16.7898 44.3716 16.7912 44.3175 16.7943C44.1858 16.8009 44.055 16.818 43.9264 16.8456C43.6933 16.8924 43.4706 16.9781 43.2684 17.0988C42.8272 17.3816 42.4894 17.7897 42.3024 18.2659C42.2948 18.2872 42.2882 18.308 42.2813 18.3307C42.198 18.6725 42.1619 19.0234 42.1739 19.3742V20.0704C42.1739 20.8088 41.7177 21.4649 40.8052 22.0387C40.3647 22.2389 39.8813 22.3372 39.3939 22.3256H38.1976C38.2625 22.2198 38.3256 22.1107 38.3869 21.9985C38.6315 21.535 38.7856 21.0326 38.8417 20.5159C38.8518 20.4084 38.8573 20.3002 38.8573 20.1933V16.8721L38.7714 16.7898H38.5999C38.5438 16.7898 38.4884 16.7912 38.4342 16.7943C38.3026 16.8009 38.1718 16.818 38.0431 16.8456C37.81 16.8924 37.5873 16.9781 37.3852 17.0988C36.944 17.3816 36.6062 17.7897 36.4191 18.2659C36.4118 18.2872 36.4049 18.308 36.3981 18.3307C36.3148 18.6726 36.2787 19.0234 36.2907 19.3742V20.0704C36.2907 20.8088 35.8344 21.4649 34.922 22.0387C34.6646 22.1607 34.3887 22.2428 34.1045 22.2821C33.7004 22.2404 33.3123 22.1076 32.9718 21.8948C32.6314 21.6819 32.3482 21.3949 32.1455 21.0571C32.241 20.6385 32.2875 20.211 32.2841 19.7825V16.8721L32.1983 16.7898H31.9415L31.3004 16.8721C31.1165 16.9485 30.9394 17.0388 30.7706 17.1423C30.4456 17.3221 30.1766 17.5819 29.9915 17.8948C29.8063 18.2077 29.7118 18.5624 29.7175 18.9221V19.8243C29.7159 20.1154 29.673 20.4051 29.5898 20.6851C29.534 20.8139 29.4693 20.939 29.396 21.0594C28.8805 21.904 28.0185 22.3261 26.81 22.3256H22.149C21.6617 22.3369 21.1784 22.2386 20.7377 22.0387C19.9601 21.549 19.5141 20.9997 19.3995 20.3909V19.4071C19.3992 19.3373 19.3793 19.2688 19.3418 19.2089C19.3043 19.1491 19.2507 19.1 19.1866 19.0668C19.1746 19.0606 19.1622 19.055 19.1495 19.0501C19.1009 19.0308 19.0487 19.0209 18.9961 19.021H17.1519C17.0993 19.0209 17.0472 19.0308 16.9986 19.0501C16.986 19.0548 16.9739 19.0605 16.9621 19.0668C16.8962 19.1004 16.8412 19.1508 16.8034 19.2125C16.7998 19.2179 16.7966 19.2235 16.7939 19.2292C16.7638 19.2844 16.748 19.3457 16.748 19.408V20.3349C16.727 20.4532 16.6996 20.5705 16.6657 20.686C16.1881 21.78 15.2615 22.3268 13.8859 22.3265H11.1596C11.0525 22.3265 10.9497 22.3673 10.874 22.44C10.7983 22.5126 10.7557 22.6111 10.7557 22.7138V24.4813C10.7556 24.5779 10.7931 24.671 10.861 24.7423C10.9289 24.8137 11.0221 24.8582 11.1224 24.8669V24.869H14.1421C15.2295 24.8914 16.295 24.5748 17.1786 23.9668H17.2212V24.2025C17.2459 24.3702 17.3266 24.5258 17.4512 24.6459C17.5757 24.766 17.7375 24.8443 17.9123 24.869H33.7816L33.8133 24.8386C33.8869 24.8457 33.9612 24.8515 34.0361 24.856C34.145 24.8638 34.255 24.8665 34.3674 24.8676H34.4329H39.5226C39.5444 24.8676 39.5666 24.8676 39.5881 24.8676C41.5547 24.8495 43.0522 24.0026 44.0806 22.327C44.1456 22.2211 44.2087 22.1121 44.2699 21.9999C44.5145 21.5364 44.6686 21.0339 44.7246 20.5173C44.7348 20.4097 44.7403 20.3015 44.7403 20.1947V16.8721L44.6544 16.7898H44.4831Z" fill="white"/>
</mask>
<g mask="url(#mask5_1_604)">
<path d="M44.7398 16.7898H10.7557V24.8678H44.7398V16.7898Z" fill="url(#paint41_linear_1_604)"/>
</g>
<defs>
<linearGradient id="paint0_linear_1_604" x1="10.0302" y1="21.2376" x2="7.19483" y2="26.1127" gradientUnits="userSpaceOnUse">
<stop stop-color="#4B2A7A"/>
<stop offset="1" stop-color="#08A1A7"/>
</linearGradient>
<linearGradient id="paint1_linear_1_604" x1="6.47223" y1="21.2376" x2="3.63689" y2="26.1127" gradientUnits="userSpaceOnUse">
<stop stop-color="#4B2A7A"/>
<stop offset="1" stop-color="#08A1A7"/>
</linearGradient>
<linearGradient id="paint2_linear_1_604" x1="2.91405" y1="21.2376" x2="0.0787101" y2="26.1127" gradientUnits="userSpaceOnUse">
<stop stop-color="#4B2A7A"/>
<stop offset="1" stop-color="#08A1A7"/>
</linearGradient>
<linearGradient id="paint3_linear_1_604" x1="2.91405" y1="17.6081" x2="0.0787101" y2="22.4832" gradientUnits="userSpaceOnUse">
<stop stop-color="#4B2A7A"/>
<stop offset="1" stop-color="#08A1A7"/>
</linearGradient>
<linearGradient id="paint4_linear_1_604" x1="19.6617" y1="7.71933" x2="16.8261" y2="12.5931" gradientUnits="userSpaceOnUse">
<stop stop-color="#4B2A7A"/>
<stop offset="1" stop-color="#08A1A7"/>
</linearGradient>
<linearGradient id="paint5_linear_1_604" x1="19.6617" y1="11.1305" x2="16.8257" y2="16.0045" gradientUnits="userSpaceOnUse">
<stop stop-color="#4B2A7A"/>
<stop offset="1" stop-color="#08A1A7"/>
</linearGradient>
<linearGradient id="paint6_linear_1_604" x1="19.6617" y1="14.5419" x2="16.8257" y2="19.4159" gradientUnits="userSpaceOnUse">
<stop stop-color="#4B2A7A"/>
<stop offset="1" stop-color="#08A1A7"/>
</linearGradient>
<linearGradient id="paint7_linear_1_604" x1="33.9632" y1="-3.32511" x2="28.0141" y2="15.5265" gradientUnits="userSpaceOnUse">
<stop stop-color="#4B2A7A"/>
<stop offset="1" stop-color="#08A1A7"/>
</linearGradient>
<linearGradient id="paint8_linear_1_604" x1="23.7876" y1="5.84843" x2="21.0269" y2="10.5932" gradientUnits="userSpaceOnUse">
<stop stop-color="#4B2A7A"/>
<stop offset="1" stop-color="#08A1A7"/>
</linearGradient>
<linearGradient id="paint9_linear_1_604" x1="28.9383" y1="5.85114" x2="26.1814" y2="10.5914" gradientUnits="userSpaceOnUse">
<stop stop-color="#4B2A7A"/>
<stop offset="1" stop-color="#08A1A7"/>
</linearGradient>
<linearGradient id="paint10_linear_1_604" x1="23.7864" y1="10.7881" x2="21.0267" y2="15.5307" gradientUnits="userSpaceOnUse">
<stop stop-color="#4B2A7A"/>
<stop offset="1" stop-color="#08A1A7"/>
</linearGradient>
<linearGradient id="paint11_linear_1_604" x1="25.2526" y1="11.0268" x2="25.2486" y2="11.0329" gradientUnits="userSpaceOnUse">
<stop stop-color="#4B2A7A"/>
<stop offset="1" stop-color="#08A1A7"/>
</linearGradient>
<linearGradient id="paint12_linear_1_604" x1="26.9633" y1="13.4958" x2="26.9604" y2="13.5016" gradientUnits="userSpaceOnUse">
<stop stop-color="#4B2A7A"/>
<stop offset="1" stop-color="#08A1A7"/>
</linearGradient>
<linearGradient id="paint13_linear_1_604" x1="25.253" y1="11.8551" x2="25.2478" y2="11.8619" gradientUnits="userSpaceOnUse">
<stop stop-color="#4B2A7A"/>
<stop offset="1" stop-color="#08A1A7"/>
</linearGradient>
<linearGradient id="paint14_linear_1_604" x1="27.1288" y1="8.45052" x2="22.2159" y2="11.82" gradientUnits="userSpaceOnUse">
<stop stop-color="#4B2A7A"/>
<stop offset="1" stop-color="#08A1A7"/>
</linearGradient>
<linearGradient id="paint15_linear_1_604" x1="26.9632" y1="12.6651" x2="26.9592" y2="12.6712" gradientUnits="userSpaceOnUse">
<stop stop-color="#4B2A7A"/>
<stop offset="1" stop-color="#08A1A7"/>
</linearGradient>
<linearGradient id="paint16_linear_1_604" x1="25.2526" y1="11.0272" x2="25.2491" y2="11.0331" gradientUnits="userSpaceOnUse">
<stop stop-color="#4B2A7A"/>
<stop offset="1" stop-color="#08A1A7"/>
</linearGradient>
<linearGradient id="paint17_linear_1_604" x1="25.3338" y1="9.85655" x2="24.4178" y2="11.4293" gradientUnits="userSpaceOnUse">
<stop stop-color="#4B2A7A"/>
<stop offset="1" stop-color="#08A1A7"/>
</linearGradient>
<linearGradient id="paint18_linear_1_604" x1="26.9638" y1="11.025" x2="26.9586" y2="11.0333" gradientUnits="userSpaceOnUse">
<stop stop-color="#4B2A7A"/>
<stop offset="1" stop-color="#08A1A7"/>
</linearGradient>
<linearGradient id="paint19_linear_1_604" x1="27.9195" y1="10.6762" x2="27.0017" y2="12.2694" gradientUnits="userSpaceOnUse">
<stop stop-color="#4B2A7A"/>
<stop offset="1" stop-color="#08A1A7"/>
</linearGradient>
<linearGradient id="paint20_linear_1_604" x1="26.9631" y1="11.8558" x2="26.9594" y2="11.8614" gradientUnits="userSpaceOnUse">
<stop stop-color="#4B2A7A"/>
<stop offset="1" stop-color="#08A1A7"/>
</linearGradient>
<linearGradient id="paint21_linear_1_604" x1="27.8292" y1="12.6649" x2="27.8254" y2="12.6713" gradientUnits="userSpaceOnUse">
<stop stop-color="#4B2A7A"/>
<stop offset="1" stop-color="#08A1A7"/>
</linearGradient>
<linearGradient id="paint22_linear_1_604" x1="27.9098" y1="12.314" x2="26.9848" y2="13.9007" gradientUnits="userSpaceOnUse">
<stop stop-color="#4B2A7A"/>
<stop offset="1" stop-color="#08A1A7"/>
</linearGradient>
<linearGradient id="paint23_linear_1_604" x1="26.9644" y1="13.4955" x2="26.961" y2="13.5028" gradientUnits="userSpaceOnUse">
<stop stop-color="#4B2A7A"/>
<stop offset="1" stop-color="#08A1A7"/>
</linearGradient>
<linearGradient id="paint24_linear_1_604" x1="27.8281" y1="13.4962" x2="27.8242" y2="13.5026" gradientUnits="userSpaceOnUse">
<stop stop-color="#4B2A7A"/>
<stop offset="1" stop-color="#08A1A7"/>
</linearGradient>
<linearGradient id="paint25_linear_1_604" x1="28.758" y1="13.1528" x2="27.8526" y2="14.7106" gradientUnits="userSpaceOnUse">
<stop stop-color="#4B2A7A"/>
<stop offset="1" stop-color="#08A1A7"/>
</linearGradient>
<linearGradient id="paint26_linear_1_604" x1="25.329" y1="8.21638" x2="24.4284" y2="9.77394" gradientUnits="userSpaceOnUse">
<stop stop-color="#4B2A7A"/>
<stop offset="1" stop-color="#08A1A7"/>
</linearGradient>
<linearGradient id="paint27_linear_1_604" x1="21.8906" y1="9.86014" x2="20.9864" y2="11.4148" gradientUnits="userSpaceOnUse">
<stop stop-color="#4B2A7A"/>
<stop offset="1" stop-color="#08A1A7"/>
</linearGradient>
<linearGradient id="paint28_linear_1_604" x1="23.6065" y1="9.85803" x2="22.6976" y2="11.4133" gradientUnits="userSpaceOnUse">
<stop stop-color="#4B2A7A"/>
<stop offset="1" stop-color="#08A1A7"/>
</linearGradient>
<linearGradient id="paint29_linear_1_604" x1="28.7548" y1="9.85305" x2="27.8184" y2="11.4146" gradientUnits="userSpaceOnUse">
<stop stop-color="#4B2A7A"/>
<stop offset="1" stop-color="#08A1A7"/>
</linearGradient>
<linearGradient id="paint30_linear_1_604" x1="27.8359" y1="11.033" x2="27.8316" y2="11.0383" gradientUnits="userSpaceOnUse">
<stop stop-color="#4B2A7A"/>
<stop offset="1" stop-color="#08A1A7"/>
</linearGradient>
<linearGradient id="paint31_linear_1_604" x1="25.3423" y1="13.1485" x2="24.4438" y2="14.7226" gradientUnits="userSpaceOnUse">
<stop stop-color="#4B2A7A"/>
<stop offset="1" stop-color="#08A1A7"/>
</linearGradient>
<linearGradient id="paint32_linear_1_604" x1="25.2604" y1="13.5028" x2="25.2579" y2="13.5075" gradientUnits="userSpaceOnUse">
<stop stop-color="#4B2A7A"/>
<stop offset="1" stop-color="#08A1A7"/>
</linearGradient>
<linearGradient id="paint33_linear_1_604" x1="25.3267" y1="6.56929" x2="24.4225" y2="8.12662" gradientUnits="userSpaceOnUse">
<stop stop-color="#4B2A7A"/>
<stop offset="1" stop-color="#08A1A7"/>
</linearGradient>
<linearGradient id="paint34_linear_1_604" x1="25.3342" y1="11.4992" x2="24.4238" y2="13.0685" gradientUnits="userSpaceOnUse">
<stop stop-color="#4B2A7A"/>
<stop offset="1" stop-color="#08A1A7"/>
</linearGradient>
<linearGradient id="paint35_linear_1_604" x1="25.2541" y1="12.6641" x2="25.2494" y2="12.672" gradientUnits="userSpaceOnUse">
<stop stop-color="#4B2A7A"/>
<stop offset="1" stop-color="#08A1A7"/>
</linearGradient>
<linearGradient id="paint36_linear_1_604" x1="27.8288" y1="11.8555" x2="27.8239" y2="11.8614" gradientUnits="userSpaceOnUse">
<stop stop-color="#4B2A7A"/>
<stop offset="1" stop-color="#08A1A7"/>
</linearGradient>
<linearGradient id="paint37_linear_1_604" x1="28.7559" y1="11.5154" x2="27.8593" y2="13.0649" gradientUnits="userSpaceOnUse">
<stop stop-color="#4B2A7A"/>
<stop offset="1" stop-color="#08A1A7"/>
</linearGradient>
<linearGradient id="paint38_linear_1_604" x1="28.3922" y1="15.9367" x2="24.4337" y2="21.3634" gradientUnits="userSpaceOnUse">
<stop stop-color="#4B2A7A"/>
<stop offset="1" stop-color="#08A1A7"/>
</linearGradient>
<linearGradient id="paint39_linear_1_604" x1="23.9449" y1="15.9365" x2="19.9864" y2="21.3632" gradientUnits="userSpaceOnUse">
<stop stop-color="#4B2A7A"/>
<stop offset="1" stop-color="#08A1A7"/>
</linearGradient>
<linearGradient id="paint40_linear_1_604" x1="58.0288" y1="12.5515" x2="49.1624" y2="30.1923" gradientUnits="userSpaceOnUse">
<stop stop-color="#4B2A7A"/>
<stop offset="1" stop-color="#08A1A7"/>
</linearGradient>
<linearGradient id="paint41_linear_1_604" x1="48.1042" y1="13.3324" x2="45.1759" y2="33.641" gradientUnits="userSpaceOnUse">
<stop stop-color="#4B2A7A"/>
<stop offset="1" stop-color="#08A1A7"/>
</linearGradient>
</defs>
</svg>
