<?xml version="1.0" encoding="utf-8"?>
<!-- Generator: Adobe Illustrator 26.0.1, SVG Export Plug-In . SVG Version: 6.00 Build 0)  -->
<svg version="1.1" id="Layer_1" xmlns="http://www.w3.org/2000/svg" xmlns:xlink="http://www.w3.org/1999/xlink" x="0px" y="0px"
	 viewBox="0 0 174.7 83.1" style="enable-background:new 0 0 174.7 83.1;" xml:space="preserve">
<style type="text/css">
	.st0{fill:#FFFFFF;filter:url(#Adobe_OpacityMaskFilter);}
	.st1{mask:url(#mask0_1_604_00000102504836980124560460000014529247621090201278_);}
	.st2{fill:url(#SVGID_1_);}
	.st3{fill:url(#SVGID_00000137854522285414319390000003747621626003719552_);}
	.st4{fill:url(#SVGID_00000011732892617655508310000013103543621732366214_);}
	.st5{fill:url(#SVGID_00000160895611303529155100000005997742446868572579_);}
	.st6{fill:url(#SVGID_00000039840709137993093230000004672440566695848348_);}
	.st7{fill:url(#SVGID_00000037678363399855292910000003095881040850261400_);}
	.st8{fill:url(#SVGID_00000075151543910494791560000000931165906567000501_);}
	.st9{fill:#FFFFFF;filter:url(#Adobe_OpacityMaskFilter_00000029753603493450103120000012547673789099760289_);}
	.st10{mask:url(#mask1_1_604_00000116946300515734109000000018043915173393381287_);}
	.st11{fill:url(#SVGID_00000106858810560358562200000006020939161189373610_);}
	.st12{fill:url(#SVGID_00000142894415821910629760000002790703823074502568_);}
	.st13{fill:url(#SVGID_00000125562192883105610000000000065358771958022305_);}
	.st14{fill:url(#SVGID_00000013159797641551762230000015858206481506794920_);}
	.st15{fill:url(#SVGID_00000060743529164354123470000014199937765420710076_);}
	.st16{fill:url(#SVGID_00000016049122700834488910000007911706718019147413_);}
	.st17{fill:url(#SVGID_00000091698143389250086900000016494290345337339291_);}
	.st18{fill:url(#SVGID_00000145051565749065849660000014749237433216069258_);}
	.st19{fill:url(#SVGID_00000115496289668833639080000010472161547514985866_);}
	.st20{fill:url(#SVGID_00000132071799585450012150000013882636366765869972_);}
	.st21{fill:url(#SVGID_00000146478459534194377700000011765493361938700464_);}
	.st22{fill:url(#SVGID_00000008147287223236902460000013310638869221048999_);}
	.st23{fill:url(#SVGID_00000160906391270596076670000004409543330558106016_);}
	.st24{fill:url(#SVGID_00000048483043788610548520000004386580185305299390_);}
	.st25{fill:url(#SVGID_00000170970350124145220290000004374584907147371399_);}
	.st26{fill:url(#SVGID_00000021100754338722513550000000867506539963018939_);}
	.st27{fill:url(#SVGID_00000007412605785444961500000010773477366436146593_);}
	.st28{fill:url(#SVGID_00000045608641885519121700000002233348806268017302_);}
	.st29{fill:url(#SVGID_00000112623046350665158560000013899751193422948515_);}
	.st30{fill:url(#SVGID_00000084501160558486585940000000298653594926775470_);}
	.st31{fill:url(#SVGID_00000162318548250470727530000014990805776838068610_);}
	.st32{fill:url(#SVGID_00000102534091500990699760000002362972497895929481_);}
	.st33{fill:url(#SVGID_00000154397576228213386460000005515309945835481523_);}
	.st34{fill:url(#SVGID_00000038375783455316223190000015918025827114621079_);}
	.st35{fill:url(#SVGID_00000045599945275649076590000004835985898335270564_);}
	.st36{fill:url(#SVGID_00000001663906063305013940000015557326575437851574_);}
	.st37{fill:url(#SVGID_00000001652334725511771260000008548420195963017133_);}
	.st38{fill:url(#SVGID_00000085934134584075149560000017169454265915028130_);}
	.st39{fill:url(#SVGID_00000155146304486778258280000013297494455448546953_);}
	.st40{fill:url(#SVGID_00000052819327023856227570000002807940643592516482_);}
	.st41{fill:url(#SVGID_00000011006990251254120000000017121861629176852137_);}
	.st42{fill:#FFFFFF;filter:url(#Adobe_OpacityMaskFilter_00000033328824794205453710000004695241535124379835_);}
	.st43{mask:url(#mask2_1_604_00000034807389017945555660000015780264962506793402_);}
	.st44{fill:url(#SVGID_00000068654009009675778610000007678128965474547100_);}
	.st45{fill:#FFFFFF;filter:url(#Adobe_OpacityMaskFilter_00000069371284195629519540000015397851700309278132_);}
	.st46{mask:url(#mask3_1_604_00000068635221225167471680000014335155533936396950_);}
	.st47{fill:url(#SVGID_00000132075208072754964240000011362810280972770692_);}
	.st48{fill:#FFFFFF;filter:url(#Adobe_OpacityMaskFilter_00000171705225923332679540000010003357555952977296_);}
	.st49{mask:url(#mask4_1_604_00000087382021194705086990000013436551375894893980_);}
	.st50{fill:url(#SVGID_00000168835963113592668080000017581444113921453970_);}
	.st51{fill:#FFFFFF;filter:url(#Adobe_OpacityMaskFilter_00000015318357967881071660000001452073014866802314_);}
	.st52{mask:url(#mask5_1_604_00000039100059481875059930000015552452248228950411_);}
	.st53{fill:url(#SVGID_00000180332179677517982050000014901971821269687485_);}
</style>
<g>
	<defs>
		<filter id="Adobe_OpacityMaskFilter" filterUnits="userSpaceOnUse" x="0" y="26.59" width="59.46" height="49.22">
			<feColorMatrix  type="matrix" values="1 0 0 0 0  0 1 0 0 0  0 0 1 0 0  0 0 0 1 0"/>
		</filter>
	</defs>
	
		<mask maskUnits="userSpaceOnUse" x="0" y="26.59" width="59.46" height="49.22" id="mask0_1_604_00000102504836980124560460000014529247621090201278_">
		<path class="st0" d="M174.7,0H0v75.81h174.7V0z"/>
	</mask>
	<g class="st1">
		<linearGradient id="SVGID_1_" gradientUnits="userSpaceOnUse" x1="-41.2439" y1="28.0886" x2="157.1053" y2="157.6124">
			<stop  offset="0" style="stop-color:#4B2A7A"/>
			<stop  offset="1" style="stop-color:#08A1A7"/>
		</linearGradient>
		<path class="st2" d="M28.7,68.02h-5.65c-0.33,0-0.64,0.13-0.88,0.35c-0.23,0.22-0.36,0.52-0.36,0.84v5.42
			c0,0.31,0.13,0.62,0.36,0.84c0.23,0.22,0.55,0.35,0.88,0.35h5.65c0.33,0,0.64-0.13,0.88-0.35c0.23-0.22,0.36-0.52,0.36-0.84v-5.42
			c0-0.31-0.13-0.62-0.36-0.84C29.34,68.15,29.03,68.02,28.7,68.02z"/>
		
			<linearGradient id="SVGID_00000025413000016975833640000016848426251921352602_" gradientUnits="userSpaceOnUse" x1="-44.5038" y1="33.0807" x2="153.8454" y2="162.6045">
			<stop  offset="0" style="stop-color:#4B2A7A"/>
			<stop  offset="1" style="stop-color:#08A1A7"/>
		</linearGradient>
		<path style="fill:url(#SVGID_00000025413000016975833640000016848426251921352602_);" d="M17.79,68.02h-5.65
			c-0.33,0-0.64,0.13-0.88,0.35c-0.23,0.22-0.36,0.52-0.36,0.84v5.42c0,0.31,0.13,0.62,0.36,0.84c0.23,0.22,0.55,0.35,0.88,0.35
			h5.65c0.33,0,0.64-0.13,0.88-0.35c0.23-0.22,0.36-0.52,0.36-0.84v-5.42c0-0.31-0.13-0.62-0.36-0.84
			C18.44,68.15,18.12,68.02,17.79,68.02z"/>
		
			<linearGradient id="SVGID_00000106858026545511854560000000885194832222248856_" gradientUnits="userSpaceOnUse" x1="-47.7639" y1="38.0732" x2="150.5853" y2="167.597">
			<stop  offset="0" style="stop-color:#4B2A7A"/>
			<stop  offset="1" style="stop-color:#08A1A7"/>
		</linearGradient>
		<path style="fill:url(#SVGID_00000106858026545511854560000000885194832222248856_);" d="M6.89,68.02H1.24
			c-0.33,0-0.64,0.13-0.88,0.35C0.13,68.59,0,68.89,0,69.21v5.42c0,0.31,0.13,0.62,0.36,0.84c0.23,0.22,0.55,0.35,0.88,0.35h5.65
			c0.33,0,0.64-0.13,0.88-0.35c0.23-0.22,0.36-0.52,0.36-0.84v-5.42c0-0.31-0.13-0.62-0.36-0.84C7.53,68.15,7.22,68.02,6.89,68.02z"
			/>
		
			<linearGradient id="SVGID_00000037656601736552394890000014753462258028745364_" gradientUnits="userSpaceOnUse" x1="-42.6715" y1="30.2748" x2="155.6777" y2="159.7986">
			<stop  offset="0" style="stop-color:#4B2A7A"/>
			<stop  offset="1" style="stop-color:#08A1A7"/>
		</linearGradient>
		<path style="fill:url(#SVGID_00000037656601736552394890000014753462258028745364_);" d="M6.89,56.9H1.24
			c-0.33,0-0.64,0.13-0.88,0.35C0.13,57.47,0,57.77,0,58.08v5.42c0,0.31,0.13,0.62,0.36,0.84c0.23,0.22,0.55,0.35,0.88,0.35h5.65
			c0.33,0,0.64-0.13,0.88-0.35C8,64.12,8.13,63.82,8.13,63.5v-5.42c0-0.31-0.13-0.62-0.36-0.84C7.53,57.02,7.22,56.9,6.89,56.9z"/>
		
			<linearGradient id="SVGID_00000071536478202503376090000009610546112082500502_" gradientUnits="userSpaceOnUse" x1="-13.4508" y1="-14.4729" x2="184.8984" y2="115.0509">
			<stop  offset="0" style="stop-color:#4B2A7A"/>
			<stop  offset="1" style="stop-color:#08A1A7"/>
		</linearGradient>
		<path style="fill:url(#SVGID_00000071536478202503376090000009610546112082500502_);" d="M52.1,34.29
			c0.15,0.06,0.31,0.09,0.47,0.09h5.65c0.16,0,0.32-0.03,0.47-0.09c0.23-0.09,0.42-0.24,0.56-0.44c0.14-0.2,0.21-0.43,0.21-0.66
			v-5.42c0-0.31-0.13-0.61-0.36-0.84c-0.23-0.22-0.54-0.35-0.87-0.35h-5.65c-0.33,0-0.64,0.13-0.88,0.35
			c-0.23,0.22-0.36,0.52-0.36,0.84v5.42c0,0.24,0.07,0.46,0.21,0.66C51.68,34.05,51.88,34.2,52.1,34.29"/>
		
			<linearGradient id="SVGID_00000105385988247239558430000013068909939205719439_" gradientUnits="userSpaceOnUse" x1="-18.2369" y1="-7.1436" x2="180.1123" y2="122.3802">
			<stop  offset="0" style="stop-color:#4B2A7A"/>
			<stop  offset="1" style="stop-color:#08A1A7"/>
		</linearGradient>
		<path style="fill:url(#SVGID_00000105385988247239558430000013068909939205719439_);" d="M52.1,44.75
			c0.15,0.06,0.31,0.09,0.47,0.09h5.65c0.16,0,0.32-0.03,0.47-0.09c0.23-0.09,0.42-0.24,0.56-0.44c0.14-0.2,0.21-0.43,0.21-0.66
			v-5.42c0-0.31-0.13-0.62-0.36-0.84s-0.54-0.35-0.87-0.35h-5.65c-0.33,0-0.64,0.13-0.87,0.35c-0.23,0.22-0.36,0.52-0.36,0.84v5.42
			c0,0.21,0.06,0.42,0.17,0.6C51.64,44.47,51.85,44.65,52.1,44.75"/>
		
			<linearGradient id="SVGID_00000002369412080785983210000017901226097049685910_" gradientUnits="userSpaceOnUse" x1="-23.0236" y1="0.1866" x2="175.3256" y2="129.7104">
			<stop  offset="0" style="stop-color:#4B2A7A"/>
			<stop  offset="1" style="stop-color:#08A1A7"/>
		</linearGradient>
		<path style="fill:url(#SVGID_00000002369412080785983210000017901226097049685910_);" d="M51.95,55.13
			c0.19,0.1,0.4,0.16,0.62,0.16h5.65c0.23,0,0.46-0.06,0.66-0.18c0.2-0.12,0.35-0.29,0.45-0.49c0.01-0.02,0.02-0.04,0.03-0.06
			c0.06-0.14,0.09-0.3,0.09-0.45v-5.42c0-0.31-0.13-0.62-0.36-0.84c-0.23-0.22-0.54-0.35-0.87-0.35h-5.65
			c-0.16,0-0.32,0.03-0.47,0.09c-0.25,0.1-0.46,0.27-0.6,0.5c-0.11,0.18-0.17,0.39-0.17,0.6v5.42c0,0.21,0.06,0.41,0.17,0.59
			C51.61,54.88,51.77,55.03,51.95,55.13"/>
	</g>
	<defs>
		
			<filter id="Adobe_OpacityMaskFilter_00000109727258865618781670000017068240246724592042_" filterUnits="userSpaceOnUse" x="51.8" y="0" width="47.59" height="43.49">
			<feColorMatrix  type="matrix" values="1 0 0 0 0  0 1 0 0 0  0 0 1 0 0  0 0 0 1 0"/>
		</filter>
	</defs>
	
		<mask maskUnits="userSpaceOnUse" x="51.8" y="0" width="47.59" height="43.49" id="mask1_1_604_00000116946300515734109000000018043915173393381287_">
		<path style="fill:#FFFFFF;filter:url(#Adobe_OpacityMaskFilter_00000109727258865618781670000017068240246724592042_);" d="
			M174.7,0H0v75.81h174.7V0z"/>
	</mask>
	<g class="st10">
		
			<linearGradient id="SVGID_00000103957058244266849740000010833166425362619573_" gradientUnits="userSpaceOnUse" x1="-0.7039" y1="-33.9932" x2="197.6453" y2="95.5307">
			<stop  offset="0" style="stop-color:#4B2A7A"/>
			<stop  offset="1" style="stop-color:#08A1A7"/>
		</linearGradient>
		<path style="fill:url(#SVGID_00000103957058244266849740000010833166425362619573_);" d="M52.19,24.76h0.79l0.11-0.01
			c0.4-0.02,0.8-0.07,1.2-0.16l0.65-0.08c0.48-0.2,0.95-0.43,1.4-0.7c1.35-0.73,2.41-1.87,3.01-3.24c0.3-0.75,0.45-1.55,0.44-2.35
			v-2.76c0-0.89,0.14-1.78,0.39-2.64c1.46-3.35,4.3-5.03,8.52-5.03h0.7v0.38c0,0.66,0.27,1.29,0.76,1.75
			c0.48,0.46,1.14,0.73,1.83,0.73h7.66c0.69,0,1.34-0.26,1.83-0.73c0.48-0.46,0.76-1.09,0.76-1.75V7.79h0.23
			c4.22,0,7.06,1.68,8.52,5.03c0.26,0.86,0.39,1.75,0.39,2.64v2.76c0,2.83,1.62,4.92,4.85,6.28l0.65,0.08
			c0.39,0.08,0.8,0.13,1.2,0.16l0.11,0.01h0.92l0.26-0.25V14.33c-0.03-1.93-0.52-3.82-1.44-5.53c-0.19-0.35-0.38-0.68-0.58-1
			C94.21,2.65,89.62,0.06,83.59,0h-0.2h-15.6c-0.07,0-0.13,0-0.2,0c-6.03,0.06-10.62,2.65-13.77,7.79c-0.2,0.33-0.39,0.66-0.58,1
			c-0.75,1.42-1.22,2.96-1.39,4.54c-0.03,0.33-0.05,0.66-0.05,0.99V24.5l0.26,0.25H52.19z"/>
		
			<linearGradient id="SVGID_00000027583811523906177800000014995691541094996647_" gradientUnits="userSpaceOnUse" x1="-6.9179" y1="-24.4772" x2="191.4313" y2="105.0466">
			<stop  offset="0" style="stop-color:#4B2A7A"/>
			<stop  offset="1" style="stop-color:#08A1A7"/>
		</linearGradient>
		<path style="fill:url(#SVGID_00000027583811523906177800000014995691541094996647_);" d="M72.12,22.14
			c0.02-0.19-0.01-0.37-0.07-0.55c-0.07-0.17-0.17-0.33-0.31-0.46c-0.14-0.13-0.3-0.23-0.49-0.29c-0.18-0.06-0.38-0.08-0.57-0.06
			c-0.83,0-1.66,0-2.49,0H65.7c-0.2-0.02-0.4,0-0.59,0.06c-0.19,0.06-0.36,0.16-0.5,0.3c-0.14,0.13-0.25,0.3-0.32,0.48
			c-0.07,0.18-0.09,0.37-0.07,0.56c0,1.59,0,3.18,0,4.78c-0.02,0.18,0,0.37,0.06,0.55c0.06,0.18,0.17,0.34,0.3,0.47
			c0.14,0.13,0.3,0.24,0.48,0.3c0.18,0.06,0.38,0.09,0.57,0.07c1.68,0.01,3.37,0.01,5.05,0c0.19,0.02,0.39-0.01,0.57-0.07
			c0.18-0.06,0.35-0.17,0.48-0.3c0.14-0.13,0.24-0.29,0.3-0.47c0.06-0.18,0.09-0.36,0.07-0.55C72.12,25.35,72.12,23.75,72.12,22.14
			 M69.47,25.8h-2.6v-2.49h2.6V25.8z"/>
		
			<linearGradient id="SVGID_00000119099493264199093460000006977200938208310940_" gradientUnits="userSpaceOnUse" x1="-2.1977" y1="-31.7056" x2="196.1515" y2="97.8183">
			<stop  offset="0" style="stop-color:#4B2A7A"/>
			<stop  offset="1" style="stop-color:#08A1A7"/>
		</linearGradient>
		<path style="fill:url(#SVGID_00000119099493264199093460000006977200938208310940_);" d="M87.9,22.11
			c0.02-0.18-0.01-0.36-0.08-0.53c-0.07-0.17-0.17-0.32-0.3-0.45c-0.13-0.13-0.3-0.22-0.47-0.29c-0.18-0.06-0.37-0.08-0.55-0.07
			c-0.84-0.01-1.68,0-2.52,0c-0.84,0-1.7,0-2.55,0c-0.19-0.02-0.38,0.01-0.55,0.07c-0.18,0.06-0.34,0.16-0.47,0.29
			s-0.24,0.28-0.3,0.45c-0.07,0.17-0.09,0.35-0.08,0.53c-0.01,1.63-0.01,3.27,0,4.9c-0.01,0.17,0.01,0.35,0.08,0.52
			c0.06,0.16,0.16,0.31,0.29,0.44c0.13,0.13,0.28,0.22,0.45,0.29c0.17,0.06,0.35,0.09,0.54,0.08c1.72,0.02,3.45,0.02,5.17,0
			c0.18,0.01,0.37-0.02,0.54-0.08c0.17-0.06,0.33-0.16,0.45-0.29c0.13-0.13,0.23-0.28,0.29-0.44c0.06-0.16,0.09-0.34,0.08-0.52
			C87.91,25.38,87.91,23.75,87.9,22.11 M85.25,25.79h-2.6v-2.48h2.6V25.79z"/>
		
			<linearGradient id="SVGID_00000028294022506333992720000014321603631448721580_" gradientUnits="userSpaceOnUse" x1="-13.8476" y1="-13.8653" x2="184.5016" y2="115.6585">
			<stop  offset="0" style="stop-color:#4B2A7A"/>
			<stop  offset="1" style="stop-color:#08A1A7"/>
		</linearGradient>
		<path style="fill:url(#SVGID_00000028294022506333992720000014321603631448721580_);" d="M64.22,42.1c-0.02,0.18,0,0.37,0.07,0.54
			c0.06,0.17,0.17,0.33,0.3,0.46c0.13,0.13,0.3,0.23,0.48,0.3c0.18,0.06,0.37,0.09,0.56,0.08c1.69,0.01,3.38,0.01,5.08,0
			c0.19,0.01,0.38-0.01,0.56-0.08s0.34-0.16,0.48-0.3c0.13-0.13,0.24-0.29,0.3-0.46c0.06-0.17,0.09-0.36,0.07-0.54
			c0.01-1.61,0.01-3.23,0-4.84c0.02-0.18-0.01-0.37-0.07-0.54c-0.07-0.17-0.17-0.33-0.3-0.46s-0.3-0.23-0.48-0.29
			c-0.18-0.06-0.37-0.08-0.56-0.07c-0.83,0-1.66,0-2.49,0c-0.83,0-1.68,0-2.52,0c-0.2-0.02-0.39,0-0.58,0.06
			c-0.19,0.06-0.35,0.16-0.49,0.3c-0.14,0.13-0.25,0.29-0.31,0.47c-0.07,0.18-0.09,0.37-0.07,0.55C64.22,38.9,64.22,40.5,64.22,42.1
			 M66.87,38.45h2.6v2.49h-2.6V38.45z"/>
		
			<linearGradient id="SVGID_00000096774873464094531930000014700076411897595560_" gradientUnits="userSpaceOnUse" x1="50.7513" y1="16.0054" x2="104.0284" y2="50.7958">
			<stop  offset="0" style="stop-color:#4B2A7A"/>
			<stop  offset="1" style="stop-color:#08A1A7"/>
		</linearGradient>
		<path style="fill:url(#SVGID_00000096774873464094531930000014700076411897595560_);" d="M77.39,33.41L77.39,33.41l0.01-0.01
			L77.39,33.41z"/>
		
			<linearGradient id="SVGID_00000134235676319401252850000016730238903883815808_" gradientUnits="userSpaceOnUse" x1="-10.1085" y1="-19.5912" x2="81.4828" y2="40.2188">
			<stop  offset="0" style="stop-color:#4B2A7A"/>
			<stop  offset="1" style="stop-color:#08A1A7"/>
		</linearGradient>
		<path style="fill:url(#SVGID_00000134235676319401252850000016730238903883815808_);" d="M82.63,40.97h0.01H82.63L82.63,40.97z"/>
		
			<linearGradient id="SVGID_00000114047075826087671920000003310656844628061078_" gradientUnits="userSpaceOnUse" x1="-9.3737" y1="-20.7165" x2="95.6465" y2="47.8627">
			<stop  offset="0" style="stop-color:#4B2A7A"/>
			<stop  offset="1" style="stop-color:#08A1A7"/>
		</linearGradient>
		<path style="fill:url(#SVGID_00000114047075826087671920000003310656844628061078_);" d="M77.4,35.95v-0.01h-0.01v0.01H77.4z"/>
		
			<linearGradient id="SVGID_00000006678119007883637900000017133096642418203009_" gradientUnits="userSpaceOnUse" x1="-8.7607" y1="-21.6552" x2="189.5885" y2="107.8686">
			<stop  offset="0" style="stop-color:#4B2A7A"/>
			<stop  offset="1" style="stop-color:#08A1A7"/>
		</linearGradient>
		<path style="fill:url(#SVGID_00000006678119007883637900000017133096642418203009_);" d="M80.04,38.42h2.59c0-0.82,0-1.65,0-2.47
			c-0.62-0.01-1.23-0.02-1.85-0.03c-0.24,0-0.48,0-0.75,0v-2.52h2.59v-2.51h-2.62v2.53H77.4l0,2.53h2.59v2.49H77.4
			c0.01,0.85,0.01,1.71,0.02,2.56h2.6v2.47h2.61v-2.49h-2.59L80.04,38.42z"/>
		
			<linearGradient id="SVGID_00000106855854463255915880000002181095755270922376_" gradientUnits="userSpaceOnUse" x1="-8.942" y1="-21.3775" x2="84.2352" y2="39.4681">
			<stop  offset="0" style="stop-color:#4B2A7A"/>
			<stop  offset="1" style="stop-color:#08A1A7"/>
		</linearGradient>
		<path style="fill:url(#SVGID_00000106855854463255915880000002181095755270922376_);" d="M82.64,38.42L82.64,38.42l-0.01,0.01
			h0.01V38.42z"/>
		
			<linearGradient id="SVGID_00000085972673757764016810000006023993818114279816_" gradientUnits="userSpaceOnUse" x1="50.7467" y1="16.0025" x2="104.0239" y2="50.793">
			<stop  offset="0" style="stop-color:#4B2A7A"/>
			<stop  offset="1" style="stop-color:#08A1A7"/>
		</linearGradient>
		<path style="fill:url(#SVGID_00000085972673757764016810000006023993818114279816_);" d="M77.39,33.41L77.39,33.41L77.39,33.41
			L77.39,33.41z"/>
		
			<linearGradient id="SVGID_00000041273174737637910890000016336161955110922397_" gradientUnits="userSpaceOnUse" x1="-8.026" y1="-22.7804" x2="190.3233" y2="106.7434">
			<stop  offset="0" style="stop-color:#4B2A7A"/>
			<stop  offset="1" style="stop-color:#08A1A7"/>
		</linearGradient>
		<path style="fill:url(#SVGID_00000041273174737637910890000016336161955110922397_);" d="M74.77,30.88v2.52h2.62v-2.52H74.77z"/>
		
			<linearGradient id="SVGID_00000116217728936315078920000012032044636805015211_" gradientUnits="userSpaceOnUse" x1="-6.6425" y1="-24.899" x2="120.6237" y2="58.2069">
			<stop  offset="0" style="stop-color:#4B2A7A"/>
			<stop  offset="1" style="stop-color:#08A1A7"/>
		</linearGradient>
		<path style="fill:url(#SVGID_00000116217728936315078920000012032044636805015211_);" d="M82.64,33.41v-0.01h-0.01v0.01H82.64z"/>
		
			<linearGradient id="SVGID_00000011747077753553557040000015702921153039611068_" gradientUnits="userSpaceOnUse" x1="-6.8281" y1="-24.6148" x2="191.5211" y2="104.909">
			<stop  offset="0" style="stop-color:#4B2A7A"/>
			<stop  offset="1" style="stop-color:#08A1A7"/>
		</linearGradient>
		<path style="fill:url(#SVGID_00000011747077753553557040000015702921153039611068_);" d="M85.28,35.94l0.02-2.51l-2.67-0.02
			c0,0.84,0,1.69,0,2.53L85.28,35.94z"/>
		
			<linearGradient id="SVGID_00000129205216214446749750000011695574087688872579_" gradientUnits="userSpaceOnUse" x1="-7.8062" y1="-23.117" x2="76.8624" y2="32.1724">
			<stop  offset="0" style="stop-color:#4B2A7A"/>
			<stop  offset="1" style="stop-color:#08A1A7"/>
		</linearGradient>
		<path style="fill:url(#SVGID_00000129205216214446749750000011695574087688872579_);" d="M82.64,35.94L82.64,35.94L82.64,35.94
			L82.64,35.94L82.64,35.94z"/>
		
			<linearGradient id="SVGID_00000072257879241130563200000016836188552401520054_" gradientUnits="userSpaceOnUse" x1="-8.1484" y1="-22.5929" x2="88.4386" y2="40.4793">
			<stop  offset="0" style="stop-color:#4B2A7A"/>
			<stop  offset="1" style="stop-color:#08A1A7"/>
		</linearGradient>
		<path style="fill:url(#SVGID_00000072257879241130563200000016836188552401520054_);" d="M85.28,38.43h0.01v-0.01h-0.01V38.43z"/>
		
			<linearGradient id="SVGID_00000132061873686462067140000011568444376981715877_" gradientUnits="userSpaceOnUse" x1="-9.1277" y1="-21.0932" x2="189.2215" y2="108.4306">
			<stop  offset="0" style="stop-color:#4B2A7A"/>
			<stop  offset="1" style="stop-color:#08A1A7"/>
		</linearGradient>
		<path style="fill:url(#SVGID_00000132061873686462067140000011568444376981715877_);" d="M82.64,38.43v2.54h2.64
			c0-0.85,0-1.69,0-2.54L82.64,38.43z"/>
		
			<linearGradient id="SVGID_00000042701013739671683230000002631047723194313875_" gradientUnits="userSpaceOnUse" x1="-10.1049" y1="-19.5967" x2="106.5563" y2="56.5841">
			<stop  offset="0" style="stop-color:#4B2A7A"/>
			<stop  offset="1" style="stop-color:#08A1A7"/>
		</linearGradient>
		<path style="fill:url(#SVGID_00000042701013739671683230000002631047723194313875_);" d="M82.64,40.97v-0.01h-0.01L82.64,40.97z"
			/>
		
			<linearGradient id="SVGID_00000030451268893610950280000005404715675997635759_" gradientUnits="userSpaceOnUse" x1="-9.316" y1="-20.8048" x2="87.271" y2="42.2673">
			<stop  offset="0" style="stop-color:#4B2A7A"/>
			<stop  offset="1" style="stop-color:#08A1A7"/>
		</linearGradient>
		<path style="fill:url(#SVGID_00000030451268893610950280000005404715675997635759_);" d="M85.29,40.96h-0.01v0.01h0.01V40.96z"/>
		
			<linearGradient id="SVGID_00000149342632861873417820000015222370002669351081_" gradientUnits="userSpaceOnUse" x1="-9.4983" y1="-20.5256" x2="188.8514" y2="108.9986">
			<stop  offset="0" style="stop-color:#4B2A7A"/>
			<stop  offset="1" style="stop-color:#08A1A7"/>
		</linearGradient>
		<path style="fill:url(#SVGID_00000149342632861873417820000015222370002669351081_);" d="M87.88,40.97h-2.6c0,0.82,0,1.65,0,2.49
			h2.6V40.97z"/>
		
			<linearGradient id="SVGID_00000081607775000198889970000009917121380045169038_" gradientUnits="userSpaceOnUse" x1="-5.712" y1="-26.3239" x2="192.6372" y2="103.1999">
			<stop  offset="0" style="stop-color:#4B2A7A"/>
			<stop  offset="1" style="stop-color:#08A1A7"/>
		</linearGradient>
		<path style="fill:url(#SVGID_00000081607775000198889970000009917121380045169038_);" d="M77.37,25.84h-2.6v2.48h2.6V25.84z"/>
		
			<linearGradient id="SVGID_00000088094374375248663340000008842959910580314526_" gradientUnits="userSpaceOnUse" x1="-11.1677" y1="-17.9692" x2="187.1815" y2="111.5546">
			<stop  offset="0" style="stop-color:#4B2A7A"/>
			<stop  offset="1" style="stop-color:#08A1A7"/>
		</linearGradient>
		<path style="fill:url(#SVGID_00000088094374375248663340000008842959910580314526_);" d="M66.84,30.88h-2.59v2.49h2.59V30.88z"/>
		
			<linearGradient id="SVGID_00000151515705491078062210000010191782728960488627_" gradientUnits="userSpaceOnUse" x1="-9.5947" y1="-20.3781" x2="188.7545" y2="109.1457">
			<stop  offset="0" style="stop-color:#4B2A7A"/>
			<stop  offset="1" style="stop-color:#08A1A7"/>
		</linearGradient>
		<path style="fill:url(#SVGID_00000151515705491078062210000010191782728960488627_);" d="M72.1,30.88h-2.59v2.49h2.59V30.88z"/>
		
			<linearGradient id="SVGID_00000121972339560508743900000003068341144823201941_" gradientUnits="userSpaceOnUse" x1="-4.8852" y1="-27.59" x2="193.464" y2="101.9338">
			<stop  offset="0" style="stop-color:#4B2A7A"/>
			<stop  offset="1" style="stop-color:#08A1A7"/>
		</linearGradient>
		<path style="fill:url(#SVGID_00000121972339560508743900000003068341144823201941_);" d="M87.88,30.88h-2.56v2.54h2.56V30.88z"/>
		
			<linearGradient id="SVGID_00000013912197337186902460000014817996465056441243_" gradientUnits="userSpaceOnUse" x1="-5.8515" y1="-26.1103" x2="73.6369" y2="25.7963">
			<stop  offset="0" style="stop-color:#4B2A7A"/>
			<stop  offset="1" style="stop-color:#08A1A7"/>
		</linearGradient>
		<path style="fill:url(#SVGID_00000013912197337186902460000014817996465056441243_);" d="M85.31,33.42L85.31,33.42L85.31,33.42
			L85.31,33.42L85.31,33.42L85.31,33.42L85.31,33.42z"/>
		
			<linearGradient id="SVGID_00000137832774791892522550000016051593189438709908_" gradientUnits="userSpaceOnUse" x1="-12.6393" y1="-15.7156" x2="185.7099" y2="113.8082">
			<stop  offset="0" style="stop-color:#4B2A7A"/>
			<stop  offset="1" style="stop-color:#08A1A7"/>
		</linearGradient>
		<path style="fill:url(#SVGID_00000137832774791892522550000016051593189438709908_);" d="M74.76,40.98v2.47h2.62
			c0-0.16,0-0.29,0-0.42c0.01-0.68,0.02-1.36,0.03-2.04c-0.81-0.01-1.61-0.02-2.42-0.03C74.92,40.96,74.84,40.97,74.76,40.98"/>
		
			<linearGradient id="SVGID_00000170992479920012648270000014728695338383266223_" gradientUnits="userSpaceOnUse" x1="-11.6761" y1="-17.1907" x2="61.6492" y2="30.6914">
			<stop  offset="0" style="stop-color:#4B2A7A"/>
			<stop  offset="1" style="stop-color:#08A1A7"/>
		</linearGradient>
		<path style="fill:url(#SVGID_00000170992479920012648270000014728695338383266223_);" d="M77.41,40.99L77.41,40.99L77.41,40.99
			L77.41,40.99L77.41,40.99"/>
		
			<linearGradient id="SVGID_00000099642778052698811190000001596064625212645265_" gradientUnits="userSpaceOnUse" x1="-3.4041" y1="-29.8581" x2="194.9451" y2="99.6657">
			<stop  offset="0" style="stop-color:#4B2A7A"/>
			<stop  offset="1" style="stop-color:#08A1A7"/>
		</linearGradient>
		<path style="fill:url(#SVGID_00000099642778052698811190000001596064625212645265_);" d="M77.37,20.79h-2.6v2.49h2.6V20.79z"/>
		
			<linearGradient id="SVGID_00000055676682225378566660000017254645190635265187_" gradientUnits="userSpaceOnUse" x1="-10.3349" y1="-19.2446" x2="188.0143" y2="110.2792">
			<stop  offset="0" style="stop-color:#4B2A7A"/>
			<stop  offset="1" style="stop-color:#08A1A7"/>
		</linearGradient>
		<path style="fill:url(#SVGID_00000055676682225378566660000017254645190635265187_);" d="M75.67,35.91c-0.3,0-0.6,0-0.91,0v2.5
			h2.62c0-0.82,0-1.64,0-2.47C76.82,35.94,76.25,35.92,75.67,35.91"/>
		
			<linearGradient id="SVGID_00000017515777635764563490000007124960121087644585_" gradientUnits="userSpaceOnUse" x1="-10.5082" y1="-18.9791" x2="109.4438" y2="59.3506">
			<stop  offset="0" style="stop-color:#4B2A7A"/>
			<stop  offset="1" style="stop-color:#08A1A7"/>
		</linearGradient>
		<path style="fill:url(#SVGID_00000017515777635764563490000007124960121087644585_);" d="M77.39,38.42v0.01h0.01v-0.01H77.39z"/>
		
			<linearGradient id="SVGID_00000093881731615866768410000015587372215473718458_" gradientUnits="userSpaceOnUse" x1="-7.0135" y1="-24.3308" x2="86.6035" y2="36.802">
			<stop  offset="0" style="stop-color:#4B2A7A"/>
			<stop  offset="1" style="stop-color:#08A1A7"/>
		</linearGradient>
		<path style="fill:url(#SVGID_00000093881731615866768410000015587372215473718458_);" d="M85.29,35.95v-0.01h-0.01L85.29,35.95
			L85.29,35.95z"/>
		
			<linearGradient id="SVGID_00000129165793694414225690000008403437245634202502_" gradientUnits="userSpaceOnUse" x1="-7.1933" y1="-24.0555" x2="191.1559" y2="105.4683">
			<stop  offset="0" style="stop-color:#4B2A7A"/>
			<stop  offset="1" style="stop-color:#08A1A7"/>
		</linearGradient>
		<path style="fill:url(#SVGID_00000129165793694414225690000008403437245634202502_);" d="M87.88,38.42v-2.47h-2.59
			c0,0.82,0,1.65,0,2.47H87.88z"/>
	</g>
	<defs>
		
			<filter id="Adobe_OpacityMaskFilter_00000181796561836721215020000002724526464922933685_" filterUnits="userSpaceOnUse" x="77.94" y="52.69" width="8.26" height="9.93">
			<feColorMatrix  type="matrix" values="1 0 0 0 0  0 1 0 0 0  0 0 1 0 0  0 0 0 1 0"/>
		</filter>
	</defs>
	
		<mask maskUnits="userSpaceOnUse" x="77.94" y="52.69" width="8.26" height="9.93" id="mask2_1_604_00000034807389017945555660000015780264962506793402_">
		<path style="fill:#FFFFFF;filter:url(#Adobe_OpacityMaskFilter_00000181796561836721215020000002724526464922933685_);" d="
			M82.53,53.32c-3.06,1.3-4.59,3.39-4.59,6.28v2.76l0.26,0.25c1.94,0.1,3.85-0.48,5.37-1.63c1.75-1.07,2.62-3.42,2.62-7.04v-1.13
			l-0.13-0.13C84.86,52.67,83.66,52.89,82.53,53.32"/>
	</mask>
	<g class="st43">
		
			<linearGradient id="SVGID_00000124840144921114228290000017021216730463820943_" gradientUnits="userSpaceOnUse" x1="-17.914" y1="-7.6381" x2="180.4352" y2="121.8857">
			<stop  offset="0" style="stop-color:#4B2A7A"/>
			<stop  offset="1" style="stop-color:#08A1A7"/>
		</linearGradient>
		<path style="fill:url(#SVGID_00000124840144921114228290000017021216730463820943_);" d="M86.2,52.69h-8.26v9.93h8.26V52.69z"/>
	</g>
	<defs>
		
			<filter id="Adobe_OpacityMaskFilter_00000075849275811284241060000016065212724184772736_" filterUnits="userSpaceOnUse" x="64.31" y="52.69" width="8.26" height="9.93">
			<feColorMatrix  type="matrix" values="1 0 0 0 0  0 1 0 0 0  0 0 1 0 0  0 0 0 1 0"/>
		</filter>
	</defs>
	
		<mask maskUnits="userSpaceOnUse" x="64.31" y="52.69" width="8.26" height="9.93" id="mask3_1_604_00000068635221225167471680000014335155533936396950_">
		<path style="fill:#FFFFFF;filter:url(#Adobe_OpacityMaskFilter_00000075849275811284241060000016065212724184772736_);" d="
			M64.31,52.94v3.65c0.94,4.02,3.52,6.03,7.73,6.03h0.26l0.26-0.25v-0.88l-0.26-3.52c-1.31-3.52-3.84-5.28-7.6-5.28
			C64.44,52.69,64.31,52.77,64.31,52.94"/>
	</mask>
	<g class="st46">
		
			<linearGradient id="SVGID_00000109723395565783369350000016481591035665557649_" gradientUnits="userSpaceOnUse" x1="-21.9885" y1="-1.3985" x2="176.3607" y2="128.1253">
			<stop  offset="0" style="stop-color:#4B2A7A"/>
			<stop  offset="1" style="stop-color:#08A1A7"/>
		</linearGradient>
		<path style="fill:url(#SVGID_00000109723395565783369350000016481591035665557649_);" d="M72.57,52.69h-8.26v9.93h8.26V52.69z"/>
	</g>
	<defs>
		
			<filter id="Adobe_OpacityMaskFilter_00000088828963797136619900000012431279685378421667_" filterUnits="userSpaceOnUse" x="142.85" y="49.36" width="31.85" height="26.39">
			<feColorMatrix  type="matrix" values="1 0 0 0 0  0 1 0 0 0  0 0 1 0 0  0 0 0 1 0"/>
		</filter>
	</defs>
	
		<mask maskUnits="userSpaceOnUse" x="142.85" y="49.36" width="31.85" height="26.39" id="mask4_1_604_00000087382021194705086990000013436551375894893980_">
		<path style="fill:#FFFFFF;filter:url(#Adobe_OpacityMaskFilter_00000088828963797136619900000012431279685378421667_);" d="
			M143.11,49.36l-0.26,0.25v0.25l0.26,2.26c1.31,3.35,3.5,5.03,6.55,5.03h8.78c1.27-0.03,2.53,0.23,3.67,0.75
			c3.15,1.67,4.72,3.81,4.72,6.41v3.64h-16.65c-0.85-0.03-1.69,0.1-2.49,0.38c-3.23,1.3-4.85,3.64-4.85,7.04v0.13l0.26,0.25h31.33
			l0.26-0.25V64.19c0-2.28-0.79-4.84-2.36-7.67c-3.67-4.77-7.91-7.16-12.71-7.16L143.11,49.36z"/>
	</mask>
	<g class="st49">
		
			<linearGradient id="SVGID_00000153693253589887883590000008513578302485989528_" gradientUnits="userSpaceOnUse" x1="2.772" y1="-39.316" x2="201.1212" y2="90.2078">
			<stop  offset="0" style="stop-color:#4B2A7A"/>
			<stop  offset="1" style="stop-color:#08A1A7"/>
		</linearGradient>
		<path style="fill:url(#SVGID_00000153693253589887883590000008513578302485989528_);" d="M174.7,49.36h-31.85v26.39h31.85V49.36z"
			/>
	</g>
	<defs>
		
			<filter id="Adobe_OpacityMaskFilter_00000150075729308728622840000014448432590310283170_" filterUnits="userSpaceOnUse" x="32.97" y="51.05" width="104.16" height="24.76">
			<feColorMatrix  type="matrix" values="1 0 0 0 0  0 1 0 0 0  0 0 1 0 0  0 0 0 1 0"/>
		</filter>
	</defs>
	
		<mask maskUnits="userSpaceOnUse" x="32.97" y="51.05" width="104.16" height="24.76" id="mask5_1_604_00000039100059481875059930000015552452248228950411_">
		<path style="fill:#FFFFFF;filter:url(#Adobe_OpacityMaskFilter_00000150075729308728622840000014448432590310283170_);" d="
			M92.26,73.05h0.13l-0.2,0.04C92.22,73.08,92.24,73.06,92.26,73.05z M136.34,51.05c-0.17,0-0.34,0-0.51,0.01
			c-0.4,0.02-0.8,0.07-1.2,0.16c-0.71,0.14-1.4,0.41-2.02,0.78c-1.35,0.87-2.39,2.12-2.96,3.58c-0.02,0.07-0.04,0.13-0.06,0.2
			c-0.26,1.05-0.37,2.12-0.33,3.2v2.13c0,2.26-1.4,4.27-4.19,6.03c-1.35,0.61-2.83,0.91-4.33,0.88h-3.67c0.2-0.32,0.39-0.66,0.58-1
			c0.75-1.42,1.22-2.96,1.39-4.54c0.03-0.33,0.05-0.66,0.05-0.99V51.31l-0.26-0.25h-0.53c-0.17,0-0.34,0-0.51,0.01
			c-0.4,0.02-0.8,0.07-1.2,0.16c-0.71,0.14-1.4,0.41-2.02,0.78c-1.35,0.87-2.39,2.12-2.96,3.58c-0.02,0.07-0.04,0.13-0.06,0.2
			c-0.26,1.05-0.37,2.12-0.33,3.2v2.13c0,2.26-1.4,4.27-4.19,6.03c-0.79,0.37-1.63,0.63-2.51,0.75c-1.24-0.13-2.43-0.53-3.47-1.19
			c-1.04-0.65-1.91-1.53-2.53-2.57c0.29-1.28,0.44-2.59,0.42-3.91v-8.92l-0.26-0.25H97.9l-1.96,0.25c-0.56,0.23-1.11,0.51-1.62,0.83
			c-1,0.55-1.82,1.35-2.39,2.31c-0.57,0.96-0.86,2.05-0.84,3.15v2.77c0,0.89-0.14,1.78-0.39,2.64c-0.17,0.39-0.37,0.78-0.59,1.15
			c-1.58,2.59-4.22,3.88-7.93,3.88H67.88c-1.49,0.03-2.97-0.27-4.33-0.88c-2.38-1.5-3.75-3.18-4.1-5.05v-3.02
			c0-0.21-0.06-0.42-0.18-0.61c-0.11-0.18-0.28-0.33-0.48-0.44c-0.04-0.02-0.07-0.04-0.11-0.05c-0.15-0.06-0.31-0.09-0.47-0.09
			h-5.65c-0.16,0-0.32,0.03-0.47,0.09c-0.04,0.01-0.08,0.03-0.11,0.05c-0.2,0.1-0.37,0.26-0.49,0.45c-0.01,0.02-0.02,0.03-0.03,0.05
			c-0.09,0.17-0.14,0.36-0.14,0.55v2.84c-0.06,0.36-0.15,0.72-0.25,1.08c-1.46,3.35-4.3,5.03-8.52,5.03H34.2
			c-0.33,0-0.64,0.13-0.88,0.35c-0.23,0.22-0.36,0.52-0.36,0.84v5.42c0,0.3,0.11,0.58,0.32,0.8c0.21,0.22,0.49,0.36,0.8,0.38v0.01
			h9.26c3.33,0.07,6.6-0.9,9.31-2.77h0.13v0.72c0.08,0.51,0.32,0.99,0.7,1.36c0.38,0.37,0.88,0.61,1.41,0.68h48.64l0.1-0.09
			c0.23,0.02,0.45,0.04,0.68,0.05c0.33,0.02,0.67,0.03,1.02,0.04h0.2h15.6c0.07,0,0.13,0,0.2,0c6.03-0.06,10.62-2.65,13.77-7.79
			c0.2-0.32,0.39-0.66,0.58-1c0.75-1.42,1.22-2.96,1.39-4.54c0.03-0.33,0.05-0.66,0.05-0.99V51.31l-0.26-0.25H136.34z"/>
	</mask>
	<g class="st52">
		
			<linearGradient id="SVGID_00000025438477511230959180000004091071445160587433_" gradientUnits="userSpaceOnUse" x1="-19.6716" y1="-4.9466" x2="178.6777" y2="124.5772">
			<stop  offset="0" style="stop-color:#4B2A7A"/>
			<stop  offset="1" style="stop-color:#08A1A7"/>
		</linearGradient>
		<path style="fill:url(#SVGID_00000025438477511230959180000004091071445160587433_);" d="M137.12,51.05H32.97v24.76h104.16V51.05z
			"/>
	</g>
</g>
</svg>
