<svg id="picture" xmlns="http://www.w3.org/2000/svg" width="21.147" height="16.917" viewBox="0 0 21.147 16.917">
  <path id="Path_2130" data-name="Path 2130" d="M6.115,10.115V22.8H23.032V10.115ZM6.115,8H23.032a2.115,2.115,0,0,1,2.115,2.115V22.8a2.115,2.115,0,0,1-2.115,2.115H6.115A2.115,2.115,0,0,1,4,22.8V10.115A2.115,2.115,0,0,1,6.115,8Zm3.7,7.4a1.586,1.586,0,1,0-1.586-1.586A1.586,1.586,0,0,0,9.815,15.4Zm-.529,3.172L11.4,16.459l2.115,2.115,4.229-4.229,3.172,3.172v3.172H9.287Z" transform="translate(-4 -8)" fill="#959595"/>
</svg>
