<svg id="Group_30" data-name="Group 30" xmlns="http://www.w3.org/2000/svg" xmlns:xlink="http://www.w3.org/1999/xlink" width="31.69" height="40.941" viewBox="0 0 31.69 40.941">
  <defs>
    <clipPath id="clip-path">
      <rect id="Rectangle_20" data-name="Rectangle 20" width="31.69" height="40.941" fill="none"/>
    </clipPath>
    <clipPath id="clip-path-2">
      <path id="Path_65" data-name="Path 65" d="M58.1,57.4l.013,0c0-.011,0-.019-.005-.03Z" transform="translate(-58.095 -57.368)" fill="none"/>
    </clipPath>
    <linearGradient id="linear-gradient" x1="-1570.188" y1="671.209" x2="-1543.16" y2="671.209" gradientUnits="objectBoundingBox">
      <stop offset="0" stop-color="#3e4ea1"/>
      <stop offset="0.237" stop-color="#006383"/>
      <stop offset="0.456" stop-color="#008d96"/>
      <stop offset="0.635" stop-color="#47b645"/>
      <stop offset="0.818" stop-color="#aed93a"/>
      <stop offset="1" stop-color="#f8f659"/>
    </linearGradient>
  </defs>
  <g id="Group_26" data-name="Group 26" transform="translate(0 0)">
    <g id="Group_25" data-name="Group 25" clip-path="url(#clip-path)">
      <path id="Path_64" data-name="Path 64" d="M24.148,72.052a.2.2,0,0,0,.005-.024c.005-.022.011-.045.015-.068a.549.549,0,0,0,.011-.117.7.7,0,0,0-.05-.26.706.706,0,0,0-.424-.406.686.686,0,0,0-.232-.04.7.7,0,0,0-.669.485.657.657,0,0,0-.03.138.029.029,0,0,0,0,.011A9.812,9.812,0,0,1,20.484,76.2l-2.059,2.29a.7.7,0,1,0,1.044.939l2.06-2.288A11.223,11.223,0,0,0,24.148,72.052Z" transform="translate(-11.599 -45.227)" fill="none" stroke="#662d91" stroke-width="1"/>
    </g>
  </g>
  <g id="Group_28" data-name="Group 28" transform="translate(21.159 20.895)">
    <g id="Group_27" data-name="Group 27" clip-path="url(#clip-path-2)">
      <rect id="Rectangle_21" data-name="Rectangle 21" width="0.013" height="0.03" transform="translate(0 0)" fill="url(#linear-gradient)"/>
    </g>
  </g>
  <g id="Group_30-2" data-name="Group 30" transform="translate(0 0)">
    <g id="Group_29" data-name="Group 29" clip-path="url(#clip-path)">
      <path id="Path_66" data-name="Path 66" d="M66.983,82.958a.705.705,0,0,0-.857.5,23.934,23.934,0,0,1-.9,2.741.7.7,0,0,0,1.307.518,25.192,25.192,0,0,0,.951-2.9.7.7,0,0,0-.5-.858" transform="translate(-41.438 -52.729)" fill="#f8a23b"/>
      <path id="Path_67" data-name="Path 67" d="M12.214,65.74a.7.7,0,1,0-1.406,0A4.209,4.209,0,0,1,9.727,68.56l-1.65,1.833a.7.7,0,1,0,1.045.94L10.771,69.5a5.612,5.612,0,0,0,1.443-3.761" transform="translate(-5.02 -41.349)" fill="#f15a24"/>
      <path id="Path_68" data-name="Path 68" d="M16.6,42.289a.7.7,0,0,0,.7-.7,9.178,9.178,0,0,1,7.83-9.043.7.7,0,0,0-.2-1.392,10.592,10.592,0,0,0-9.036,10.434.7.7,0,0,0,.7.7" transform="translate(-10.104 -19.801)" fill="#f8a23b"/>
      <path id="Path_69" data-name="Path 69" d="M35.442,76.854l.029-.119a.6.6,0,0,0,.009-.11.7.7,0,0,0-.408-.638.665.665,0,0,0-.3-.068.7.7,0,0,0-.447.161.713.713,0,0,0-.224.329c-.007.031-.013.062-.022.093a15.412,15.412,0,0,1-3.607,6.837l-2.823,3.106a.7.7,0,1,0,1.039.946l2.824-3.106a16.833,16.833,0,0,0,3.927-7.43" transform="translate(-17.464 -48.268)" fill="#39b54a"/>
      <path id="Path_70" data-name="Path 70" d="M49.973,33.331a.7.7,0,0,0,.6-1.27,10.439,10.439,0,0,0-3.011-.91.7.7,0,0,0-.2,1.392,9.025,9.025,0,0,1,2.607.788" transform="translate(-29.731 -19.801)" fill="#f15a24"/>
      <path id="Path_71" data-name="Path 71" d="M7.217,46.055V43.449a11.9,11.9,0,0,1,3.256-8.189A.7.7,0,1,0,9.451,34.3a13.294,13.294,0,0,0-3.639,9.153v2.606a1.4,1.4,0,0,1-.361.94l-.812.9a.7.7,0,1,0,1.045.94l.812-.9A2.806,2.806,0,0,0,7.217,46.055Z" transform="translate(-2.835 -21.664)" fill="none" stroke="#0071bc" stroke-width="1"/>
      <path id="Path_72" data-name="Path 72" d="M28.869,75.946c.007-.022.012-.042.019-.064a.67.67,0,0,0,.021-.168.69.69,0,0,0-.116-.385.7.7,0,0,0-.589-.32.668.668,0,0,0-.245.045.7.7,0,0,0-.413.406.561.561,0,0,0-.034.12,12.643,12.643,0,0,1-2.754,4.961l-2.9,3.22a.7.7,0,1,0,1.045.939l2.9-3.218a14.012,14.012,0,0,0,3.067-5.537" transform="translate(-13.784 -47.69)" fill="#29abe2"/>
      <path id="Path_73" data-name="Path 73" d="M62.116,37.976a.7.7,0,0,0-.94,1.046,9.15,9.15,0,0,1,3.035,6.793V48.7a24.079,24.079,0,0,1-.224,3.275.7.7,0,0,0,.6.792.62.62,0,0,0,.1.007.7.7,0,0,0,.695-.606,25.481,25.481,0,0,0,.237-3.468V45.815A10.559,10.559,0,0,0,62.116,37.976Z" transform="translate(-38.747 -24.03)" fill="none" stroke="#29abe2" stroke-width="1"/>
      <path id="Path_74" data-name="Path 74" d="M23.828,27.64a.7.7,0,0,0,.4-.126,11.854,11.854,0,0,1,3.565-1.686.7.7,0,0,0-.382-1.353,13.3,13.3,0,0,0-3.986,1.884.7.7,0,0,0,.4,1.28" transform="translate(-14.702 -15.544)" fill="#29abe2"/>
      <path id="Path_75" data-name="Path 75" d="M16.647,16.841a14.814,14.814,0,0,1,2.119.152.7.7,0,0,0,.2-1.392,16.391,16.391,0,0,0-2.32-.165A16.13,16.13,0,0,0,.5,30.864a.7.7,0,0,0,.671.734H1.2a.7.7,0,0,0,.7-.671A14.727,14.727,0,0,1,16.647,16.841Z" transform="translate(-0.318 -9.813)" fill="none" stroke="#2e3192" stroke-width="1"/>
      <path id="Path_76" data-name="Path 76" d="M78.8,35.2a16.073,16.073,0,0,0-3.422-5.781.7.7,0,0,0-1.035.951,14.676,14.676,0,0,1,3.125,5.279.7.7,0,0,0,.666.478.719.719,0,0,0,.224-.036A.7.7,0,0,0,78.8,35.2" transform="translate(-47.15 -18.559)" fill="#2e3192"/>
      <path id="Path_77" data-name="Path 77" d="M57.543,17.744a.7.7,0,1,0-.455,1.33,14.726,14.726,0,0,1,4.042,2.134.7.7,0,0,0,.42.14.7.7,0,0,0,.421-1.266,16.1,16.1,0,0,0-4.427-2.339" transform="translate(-35.993 -11.258)" fill="#662d91"/>
      <path id="Path_78" data-name="Path 78" d="M3.658,18.418a.7.7,0,0,0,.987-.12,17.685,17.685,0,0,1,7.131-5.426.7.7,0,0,0-.539-1.3,19.092,19.092,0,0,0-7.7,5.859.7.7,0,0,0,.12.986" transform="translate(-2.154 -7.324)" fill="#662d91"/>
      <path id="Path_79" data-name="Path 79" d="M31.881,8.226A.7.7,0,1,0,32.2,9.593a17.615,17.615,0,0,1,4.05-.471A17.418,17.418,0,0,1,48.92,14.528a.7.7,0,1,0,1.014-.973A18.809,18.809,0,0,0,36.254,7.717,19,19,0,0,0,31.881,8.226Z" transform="translate(-19.925 -4.906)" fill="none" stroke="#f7931e" stroke-width="1"/>
      <path id="Path_80" data-name="Path 80" d="M32.37,46.319a7.675,7.675,0,0,0-1.36-4.373c-.1-.153-.215-.3-.331-.447-.011-.015-.023-.03-.036-.044-.067-.084-.138-.166-.208-.247q-.18-.2-.375-.4c-.141-.139-.286-.272-.438-.4a7.726,7.726,0,0,0-12.713,5.9v2.606a7.02,7.02,0,0,1-1.8,4.7L13.25,55.687a.7.7,0,0,0,1.046.94l1.854-2.061a8.418,8.418,0,0,0,2.166-5.642V46.319a6.326,6.326,0,0,1,7.874-6.132c.11.027.221.059.329.093.053.016.106.034.158.052h0a6.306,6.306,0,0,1,1.659.86,6.169,6.169,0,0,1,.721.606,6.435,6.435,0,0,1,.841,1.011c.083.124.161.251.236.38a6.27,6.27,0,0,1,.738,2.06.081.081,0,0,1,0,.026c.03.169.051.341.064.515s.023.35.023.529v2.887a21.037,21.037,0,0,1-5.482,14.181l-.66.725a.7.7,0,0,0,1.041.946l.658-.725A22.443,22.443,0,0,0,32.37,49.206Z" transform="translate(-8.31 -24.534)" fill="#0071bc"/>
      <path id="Path_81" data-name="Path 81" d="M42.376,23.153q-.373,0-.742.02a.7.7,0,0,0,.074,1.4q.331-.018.668-.019A11.96,11.96,0,0,1,54.322,36.505v2.887a.7.7,0,1,0,1.406,0V36.505A13.367,13.367,0,0,0,42.376,23.153" transform="translate(-26.047 -14.72)" fill="#39b54a"/>
      <path id="Path_82" data-name="Path 82" d="M64.7,5.433a20.6,20.6,0,0,1,1.994.922.7.7,0,0,0,.658-1.242,21.7,21.7,0,0,0-2.132-.986A.7.7,0,1,0,64.7,5.433Z" transform="translate(-40.851 -2.592)" fill="none" stroke="#39b54a" stroke-width="1"/>
      <path id="Path_83" data-name="Path 83" d="M18.525,3.489a.7.7,0,0,0,.305-.07,20.147,20.147,0,0,1,8.83-2.014,20.4,20.4,0,0,1,4.768.563A.7.7,0,0,0,32.757.6a21.81,21.81,0,0,0-5.1-.6,21.543,21.543,0,0,0-9.441,2.153.7.7,0,0,0,.306,1.336" transform="translate(-11.33 0)" fill="#29abe2"/>
      <path id="Path_84" data-name="Path 84" d="M35.492,45.577a5.223,5.223,0,1,0,5.763,6.174.1.1,0,0,0-.19-.066,4.314,4.314,0,1,1-5.52-5.914.1.1,0,0,0-.053-.194" transform="translate(-19.649 -28.977)" fill="#39b54a"/>
      <path id="Path_85" data-name="Path 85" d="M43.383,51.344l-1.558.668a.1.1,0,0,0,.016.18l1.653.376a.1.1,0,0,1,.074.084l.154,1.688a.1.1,0,0,0,.176.04l.868-1.456a.1.1,0,0,1,.1-.044l1.654.375a.1.1,0,0,0,.092-.155L45.5,51.823a.1.1,0,0,1-.01-.111l.868-1.456a.1.1,0,0,0-.119-.135l-1.558.668a.1.1,0,0,1-.109-.025l-1.117-1.275a.1.1,0,0,0-.166.071l.154,1.688a.1.1,0,0,1-.057.1" transform="translate(-26.555 -31.443)" fill="#0071bc"/>
      <path id="Path_86" data-name="Path 86" d="M42.933,73.55c0-.027.008-.056.012-.084s0-.038,0-.057a.7.7,0,0,0-.7-.7.576.576,0,0,0-.11.009.7.7,0,0,0-.515.371.6.6,0,0,0-.066.183c0,.031-.007.061-.012.093a18.211,18.211,0,0,1-4.583,9.826l-2.384,2.62a.7.7,0,1,0,1.04.946L38,84.132a19.632,19.632,0,0,0,4.936-10.579Z" transform="translate(-21.865 -46.224)" fill="none" stroke="#f15a24" stroke-width="1"/>
    </g>
  </g>
</svg>
