<svg xmlns="http://www.w3.org/2000/svg" xmlns:xlink="http://www.w3.org/1999/xlink" width="81.068" height="84.049" viewBox="0 0 81.068 84.049">
  <defs>
    <clipPath id="clip-path">
      <rect id="Rectangle_19" data-name="Rectangle 19" width="81.068" height="84.049" fill="#fff"/>
    </clipPath>
  </defs>
  <g id="Group_17" data-name="Group 17" transform="translate(-52.449 -741.914)">
    <g id="Group_15" data-name="Group 15" transform="translate(52.449 741.914)">
      <g id="Group_14" data-name="Group 14" clip-path="url(#clip-path)">
        <path id="Path_54" data-name="Path 54" d="M32.65,81.269c.3.232.461.336.771.557.208-.229.319-.35.538-.584-.319-.206-.478-.317-.776-.531-.212.221-.321.332-.533.557m7.384-.631c.306.159.478.244.81.4.157-.262.249-.4.41-.648-.332-.164-.478-.242-.81-.4-.17.253-.251.378-.41.65m2.159.034c.319.138.491.209.835.355.161-.274.213-.412.385-.67-.357-.145-.517-.21-.835-.368-.161.274-.251.4-.385.684m1.152-.064c.319.145.491.213.8.336.159-.263.251-.408.4-.682-.342-.127-.5-.187-.82-.334-.159.27-.225.41-.372.68m-10.13-.14c.3.227.444.329.744.542.228-.225.359-.338.57-.565-.323-.217-.482-.325-.778-.534-.2.225-.312.33-.536.557m-1.2-.234c.314.234.457.355.769.563.217-.221.336-.329.557-.563-.312-.213-.452-.323-.759-.54-.221.217-.333.327-.567.54m16.363-.3c-.106.187-.172.278-.289.459.1-.108,1.324-.482,1.562-.631a.888.888,0,0,0,.317-.489c-.622.268-.941.408-1.591.661m-7.667-2.1a1.144,1.144,0,0,1,.381.434,1.325,1.325,0,0,1,.068.512c-.45-.011-.689-.011-1.154-.038a.672.672,0,0,1-.5-.14,2.052,2.052,0,0,1-.636-.452c-.026.412-.038.618-.077,1.024a2,2,0,0,0,.5.317,1.377,1.377,0,0,1-.461.64,2.627,2.627,0,0,1-1.073.48,4.2,4.2,0,0,1-.907.1c-.263,0-.387.008-.387.032,0,.06.083.145.281.266a1.521,1.521,0,0,0,.723.248,2.011,2.011,0,0,0,1.454-.376,2.181,2.181,0,0,0,.8-1.282l.187.008h.053c.888.049,1.339.056,2.2.049.183,0,.278-.008.45-.011.886-.013,1.309-.038,2.2-.1h.147c1.059-.087,1.577-.14,2.621-.283a3.059,3.059,0,0,0,1.524-.812c.132-.138.213-.227.213-.227l-.253.025a1.289,1.289,0,0,1-.37-.047.792.792,0,0,1-.291-.115c-.041-.017-.121-.059-.293-.153a9.711,9.711,0,0,0-.914-.533,2.069,2.069,0,0,0-.98-.249,1.224,1.224,0,0,0-.687.338,1.766,1.766,0,0,0-.346.729,1.708,1.708,0,0,1,2.014.211c-.742.111-1.114.142-1.853.206-.185.019-.266.019-.436.032l-.161.027c-.145.008-.227.008-.372.013l-.011-.181-.027-.009-.055-.315a2.267,2.267,0,0,0-.174-.419H44.1l-.357-.414c-.145.325-.227.5-.359.82l.028.011a.876.876,0,0,1,.359.55h-.015a2.222,2.222,0,0,0-.344.021c-.319.008-.478.008-.8.019-.2,0-.291.006-.463.006H41.77a2.965,2.965,0,0,0-.278-1.362,2.812,2.812,0,0,0-.33-.442c-.161.344-.266.514-.45.852m5.219-1.458c.3.121.476.168.78.278.1-.278.157-.421.251-.712-.293-.095-.452-.157-.756-.274-.121.293-.172.425-.276.708m5.323.015c.37.036.557.051.9.085a6.094,6.094,0,0,0,.106-.71c-.346-.036-.544-.045-.888-.1-.053.293-.066.425-.119.723m1.035-.372c.355.04.529.064.873.111.04-.306.053-.44.106-.729-.357-.028-.529-.051-.888-.091a6.525,6.525,0,0,1-.091.708m-21.657-.316c.257.232.387.355.635.576.215-.215.336-.31.542-.533-.264-.223-.378-.346-.623-.578-.219.219-.333.314-.553.534m-5.959-.1-.119-.18.147-.068.151.226.034.172Zm-.244-.622-.293.189-.242.272a.524.524,0,0,0,.062.64,1.8,1.8,0,0,0,.6.446l-.051-.023a1.906,1.906,0,0,1-1.05.527,2.049,2.049,0,0,1-1.292-.189L22,76.716a3.939,3.939,0,0,1-.312-.3c-.159.036-.23.066-.381.1a5.466,5.466,0,0,0,.55.731l.2.168a1.481,1.481,0,0,0,.646.3,1.289,1.289,0,0,0,.429.064,2.281,2.281,0,0,0,.886-.246,1.949,1.949,0,0,0,.516-.347c.166-.168.317-.3.444-.452l.245.121c.172.074.259.113.421.189,1.01.448,1.52.652,2.567,1.028.195.072.278.091.457.166.23.078.344.112.565.181.261.089.378.13.635.2a1.19,1.19,0,0,0,.8.038.613.613,0,0,0,.353-.323l.077-.262.062-.215.013-.072.164.094a2.484,2.484,0,0,0-.13.3.7.7,0,0,0,.087.659A1.2,1.2,0,0,0,32,79.2a2.565,2.565,0,0,0,.348.089c.181.042.276.062.453.108a30.3,30.3,0,0,0,3.349.587l.13-.948a3.106,3.106,0,0,0,.025-.929,5.131,5.131,0,0,0-.416-.759c-.221.308-.331.455-.57.767a2.8,2.8,0,0,1,.34.51,2,2,0,0,1,.009.429c-1.073-.17-1.62-.268-2.676-.5-.178-.045-.255-.068-.44-.111-.134-.034-.211-.051-.344-.087a.848.848,0,0,1-.306-.109l-.047-.113a2.334,2.334,0,0,0,.448.168c.216-.259.329-.391.544-.644a3.812,3.812,0,0,1-.565-.195c-.145-.057-.266-.113-.336-.145a4.221,4.221,0,0,1-.627-.374,6.408,6.408,0,0,0-.635-.4,1.689,1.689,0,0,0-1.111-.238,2.264,2.264,0,0,0-.733.442l-.1.079a1.038,1.038,0,0,1,.484.017,4.516,4.516,0,0,1,.893.3h.011s.121.06.245.136c.1.06.163.127.3.2l-.011.041c-.045.134-.081.327-.221.323a.888.888,0,0,1-.325-.066c-.381-.123-.584-.181-.965-.317l-.1-.023-.087-.047c-.191-.053-.28-.085-.453-.14-.321-.128-.482-.187-.8-.308l.057-.174,0-.019.068-.31a1.759,1.759,0,0,0,.011-.461v0l-.164-.523c-.276.234-.419.359-.691.586v.017a1.052,1.052,0,0,1,.164.5l-.055.155c-.23-.111-.353-.149-.589-.259a5.074,5.074,0,0,1-.5-.216c-.174-.073-.255-.109-.416-.181l-.2-.089a1.381,1.381,0,0,0,.079-.629.618.618,0,0,0-.283-.548l-.291-.032a2.184,2.184,0,0,0-.472.221m33.1.157.066-.157a2.681,2.681,0,0,1,.557.187l-.24.1a1.6,1.6,0,0,1-.4.059Zm-.264-.829a1.127,1.127,0,0,0-.357.8,1.658,1.658,0,0,0-.053.283v.017c-.013.151-.042.28-.055.374-.025.123-.04.185-.066.3l-.013.017c0,.036-.04.1-.185.179l-.264.147c-.108.049-.145.085-.266.147l-.145-.147-.225-.227a2.5,2.5,0,0,0-.423-.28v-.008l-.544-.176c.027.346.04.5.066.842h.015a1.082,1.082,0,0,1,.674.3c-.531.242-.78.37-1.338.589a16.555,16.555,0,0,1-1.736.625,3.675,3.675,0,0,1-.992.144.959.959,0,0,1-.757-.3c-.3-.206-.5-.986-.5-.986a4.548,4.548,0,0,0-.145.62,1.133,1.133,0,0,0,.091.684,1.328,1.328,0,0,0,1.088.778,3.442,3.442,0,0,0,1.549-.144c.227-.068.346-.108.57-.185a16.853,16.853,0,0,0,3.695-1.687,1.534,1.534,0,0,0,.57-.457,1.018,1.018,0,0,0,.174-.429,2.207,2.207,0,0,0,1.269-.446l.055-.044c.423-.347-.2-.831-.226-.856l-.013-.011-.119-.07a2.209,2.209,0,0,0-.452-.2c-.328-.094-.6-.191-.793-.257Zm-29.617.236c.21.253.314.385.542.646.236-.191.381-.287.619-.493-.228-.236-.344-.359-.57-.627-.217.2-.351.285-.591.474m-1-.4c.212.274.327.4.557.669.246-.193.365-.293.6-.474-.223-.253-.336-.389-.559-.644-.242.183-.366.272-.6.45m-3.693-1.9c.185.3.3.433.478.714.261-.153.393-.232.667-.395-.208-.278-.3-.416-.491-.714-.251.157-.385.247-.653.395m-2.386-1.573c.155.3.244.448.408.75.285-.142.425-.21.693-.346-.176-.3-.255-.436-.414-.731Zm-3.283.147-.09-.13.009-.043.166-.049.1.255v.174Zm-.1-.657-.312.119a1.142,1.142,0,0,0-.325.191.529.529,0,0,0-.075.635,1.648,1.648,0,0,0,.485.588l-.049-.021a1.91,1.91,0,0,1-1.156.246,1.855,1.855,0,0,1-1.2-.491l-.159-.151c-.077-.157-.13-.227-.213-.381h-.412a6.084,6.084,0,0,0,.38.852l.14.223a1.932,1.932,0,0,0,.584.442,1.836,1.836,0,0,0,.4.153,2.338,2.338,0,0,0,.92-.03,2.256,2.256,0,0,0,.6-.213c.189-.125.372-.223.523-.327l.2.155.389.3c.191.147.291.2.478.353.221.153.317.232.525.383a1.3,1.3,0,0,0,.761.293.626.626,0,0,0,.423-.2l.189-.229.1-.183.042-.062.108.119c-.089.126-.123.187-.214.3a.691.691,0,0,0-.106.621,1.244,1.244,0,0,0,.544.58c.128.087.185.119.319.2s.232.13.383.223c.733.446,1.1.656,1.883,1.054.168-.342.259-.506.452-.848a3.77,3.77,0,0,0,.332-.863,5.087,5.087,0,0,0-.106-.854c-.332.217-.493.325-.8.529a2.829,2.829,0,0,1,.121.576,1.076,1.076,0,0,1-.121.406c-.527-.285-.806-.429-1.32-.742a3.078,3.078,0,0,0-.37-.217c-.125-.087-.18-.121-.293-.193a.989.989,0,0,1-.266-.21l-.013-.126a3.966,3.966,0,0,0,.372.287c.278-.17.431-.261.706-.427-.229-.187-.389-.3-.463-.367l-.266-.236a4.854,4.854,0,0,1-.491-.565,6.383,6.383,0,0,0-.461-.572,1.642,1.642,0,0,0-.975-.57,2.381,2.381,0,0,0-.839.181l-.128.038a1.326,1.326,0,0,1,.452.174,4.107,4.107,0,0,1,.772.574,1.414,1.414,0,0,1,.189.208,1.841,1.841,0,0,1,.215.3l-.011.009c-.083.119-.191.293-.334.238l-.268-.159c-.332-.229-.495-.346-.822-.6l-.076-.066-.09-.059c-.151-.115-.221-.172-.382-.3l-.151-.106a1.29,1.29,0,0,0,.227-.608.621.621,0,0,0-.149-.584l-.283-.1a2.112,2.112,0,0,0-.512.1m42.463,4.014.027-.157a.611.611,0,0,1,.264-.009l.147.062-.225.076a.4.4,0,0,1-.161.047.072.072,0,0,1-.053-.019m.531-3.863c-.159.244-.278.465-.385.665a.515.515,0,0,0,.24.608c.344.161.514.238.873.383l.28.121a1.208,1.208,0,0,1,.569.367l.093.332a.449.449,0,0,1-.2.3c-.345.213-.533.312-.863.533l-.079.045-.2.125a1.477,1.477,0,0,0-.5-.391.761.761,0,0,0-.6-.051l-.17.219a1.146,1.146,0,0,0-.04.474l.04.313a.634.634,0,0,0,.1.334.582.582,0,0,0,.6.259,1.712,1.712,0,0,0,.691-.24l-.055.045a1.7,1.7,0,0,1-.013,1.058,1.515,1.515,0,0,1-.716.878l-.2.079c-.159.03-.24.057-.4.1a1.408,1.408,0,0,0-.081.347,6.015,6.015,0,0,0,.9-.094.563.563,0,0,0,.238-.066,1.307,1.307,0,0,0,.557-.344l.225-.3a2.233,2.233,0,0,0,.094-1.36c-.079-.212-.132-.383-.2-.551l.253-.159.066-.042c.345-.2.5-.31.833-.518a.828.828,0,0,0,.293-.385,1.641,1.641,0,0,0,.106-.555,1.964,1.964,0,0,0,.687.032,1.372,1.372,0,0,0,.663-.261l.185-.132c.584-.416.875-.629,1.43-1.047a2.632,2.632,0,0,0,.837-1.33,1.427,1.427,0,0,0,.04-.28l-.187.13a1.294,1.294,0,0,1-.319.125.809.809,0,0,1-.3.047c-.041,0-.134,0-.317,0a10.13,10.13,0,0,0-1.033-.019,1.853,1.853,0,0,0-.969.276,1.008,1.008,0,0,0-.4.6,1.615,1.615,0,0,0,.106.725,1.6,1.6,0,0,1,1.774-.754c-.423.329-.661.495-1.111.814H63.61l-.013.021-.036.032-.017.008-.011.009a1.309,1.309,0,0,1-1.179.3,5.383,5.383,0,0,1-.518-.3A6.8,6.8,0,0,0,61,71.464a2.87,2.87,0,0,1-.6-.285l.053-.051c.661-1.022.978-1.526,1.575-2.567-.145-.293-.212-.429-.357-.718-.557,1-.861,1.492-1.5,2.472m-42.5-3.083c-.164.055-.3.1-.393.14-.257.335-.461.582-.561.741-.752.961-1.262,1.6-1.545,1.878l-.113.108-.252.206c.057.127.072.193.125.323.312-.083.523-.128.657-.178a1.162,1.162,0,0,0,.48-.342,7.153,7.153,0,0,0,.7-.831c.355-.472.614-.822.765-1.028.366-.514.542-.756.931-1.256-.453.121-.71.208-.79.24M32.8,35.448a.279.279,0,0,0,.025.393l3.708,3.354.2.072.2-.1a.267.267,0,0,0-.021-.389l-3.71-3.355a.342.342,0,0,0-.2-.07.254.254,0,0,0-.2.091m3.612-12.929.175-.057.157.089-.178.058Zm-.72-2.476a.817.817,0,0,0,.163.744,2.659,2.659,0,0,0-.28.41.981.981,0,0,0-.348-.773.629.629,0,0,0-.366.686,1.46,1.46,0,0,0,.4.669c-.149.489-.4,1.613.091,1.947l.026.019c-.026-.195-.117-.553.008-.71a1.423,1.423,0,0,1,.827.346,1.866,1.866,0,0,1,.506.67,1.5,1.5,0,0,1,.125.442,2.775,2.775,0,0,0,.484,1.254,3.46,3.46,0,0,0,3.3,1.2l.134-.017.132.11c.132.121.278.272.412.395a1.946,1.946,0,0,1,.41.616l.028.138c.569-.213,1.15-.451,1.747-.669a10.328,10.328,0,0,1-2.029-1.426l-.251-.329a.61.61,0,0,1-.132-.434,4.139,4.139,0,0,0,3.406-2.788,5.74,5.74,0,0,1-1.711.374,6.144,6.144,0,0,1-1.893-.145.648.648,0,0,1,.053-.474,4.526,4.526,0,0,1,.714-1.026,6.983,6.983,0,0,0-2.04.521,1.84,1.84,0,0,0-1.192,1.345,2.83,2.83,0,0,0-1.262-.9,1.719,1.719,0,0,0-.948-.036,2.023,2.023,0,0,0-.712.37c-.14-.119-.1-.45-.017-.6a1.011,1.011,0,0,0,1.307-.584,1.294,1.294,0,0,0-.969.072l.172-.323.064-.094.155.109a.907.907,0,0,0,.6.1,1.558,1.558,0,0,0,.667-.3.708.708,0,0,0-.553-.378,2,2,0,0,0,1.337-.644.722.722,0,0,0-.465-.253,1.4,1.4,0,0,0-.833.253,5.529,5.529,0,0,0-.578.5,1.56,1.56,0,0,0-.132-.8.755.755,0,0,0-.552.421M25.816,65.155H55.175a26.68,26.68,0,0,1-29.358,0M33,58.282c6.768-2.61,14.159-.172,14.689,0l-.557,6.038H33.555ZM52.39,36.749l.108-.126,2.994-3.515L66.844,46.733A26.4,26.4,0,0,1,56.672,64.086L55.651,49.4H54.126v.863H52.987V49.4H51.214v.863h-.8V49.4H48.484L48.3,51.48H46.658v1.141H45.319V51.48H43.545v1.141H42.459V51.48H40.749v1.141H39.584V51.48H37.771v1.141h-.986V51.48h-1.98v1.141h-.99V51.48H32.384L32.2,49.4H30.266v.863h-.8V49.4H27.7v.863H26.57V49.4H25.036l-1,14.461A26.358,26.358,0,0,1,14.37,48.1l10.26-13.01L36.838,46.56l6.152-6.435,4,3.706Zm-9.3-5.022L50.1,37.639l-3.234,4.429-3.932-3.647-6.144,6.426-8.16-7.665,3.326-3.948,5.083,4.548ZM13.9,43.148a26.6,26.6,0,0,1,53.191,0c0,.627-.027,1.266-.079,1.9l-11.5-13.888-4.584,5.4-7.92-6.685-6.114,6.1-5.06-4.535-4.091,4.9L24.5,33.291,14.119,46.461a24.893,24.893,0,0,1-.215-3.313m-1.351,0A27.637,27.637,0,0,0,23.3,64.989v.166h.206a28.026,28.026,0,0,0,33.969,0h.174v-.13a27.826,27.826,0,1,0-45.1-21.876M31.026,10.181s0,0,0,0,0,0,0,0m19.034,0a.006.006,0,0,1,0,0s0,0,0,0M8.993,67.641c2.437-1.265,4.843-2.61,7.225-3.967A31,31,0,0,0,40.629,74.934c9.684-.214,18.705-4.335,24.2-11.082,2.346,1.362,4.781,2.707,7.217,3.982C65.306,77.1,53.32,82.844,40.629,82.868h-.091c-12.764,0-24.781-5.823-31.545-15.228m48.8-55.77A8.109,8.109,0,0,0,59.7,14.4c-1.007-.644-2-1.2-2.9-1.666a4.748,4.748,0,0,0-2.3-2.027,5.994,5.994,0,0,0-2.49.038c-1.216-.383-1.934-.533-1.949-.569a10.17,10.17,0,0,0,1.709.618l-.092.009a5.542,5.542,0,0,0,2.267,2.057,3.984,3.984,0,0,0,2.7.074,37.211,37.211,0,0,1,3.683,2.27,8.656,8.656,0,0,0-3.379-.674,6.032,6.032,0,0,0-3.285,2.117,5.035,5.035,0,0,0,3.523.584,6.733,6.733,0,0,0,3.152-2.016,39.093,39.093,0,0,1,3.67,2.918,7.346,7.346,0,0,0-3.047-.5,5.046,5.046,0,0,0-3.139,1.8,6.27,6.27,0,0,0,3.867.9,6.945,6.945,0,0,0,2.491-1.439c.079-.1.187-.219.28-.342a28.587,28.587,0,0,1,4.5,5.168,8.7,8.7,0,0,0-3.022-1.819,6.443,6.443,0,0,0-3.972.922A5.224,5.224,0,0,0,65.2,24.621,7.1,7.1,0,0,0,69,23.78a35.143,35.143,0,0,1,2.782,4.92,7.477,7.477,0,0,0-2.4-2,6.643,6.643,0,0,0-4.159.223,5.179,5.179,0,0,0,2.914,2.389,7.713,7.713,0,0,0,3.867-.13,39.213,39.213,0,0,1,1.83,5.107,7.152,7.152,0,0,0-1.949-2.242,6.668,6.668,0,0,0-4.212-.506,5.356,5.356,0,0,0,2.518,2.916,7.472,7.472,0,0,0,3.827.55,33.222,33.222,0,0,1,.956,5.4,7.312,7.312,0,0,0-1.575-2.64,6.845,6.845,0,0,0-4.135-1.254,5.4,5.4,0,0,0,2.012,3.37,8.039,8.039,0,0,0,3.764,1.243,30.655,30.655,0,0,1-.028,5.411A8.014,8.014,0,0,0,73.9,43.592a7,7,0,0,0-3.948-1.978,5.552,5.552,0,0,0,1.42,3.744,7.927,7.927,0,0,0,3.574,1.895,29.69,29.69,0,0,1-.927,4.735l-.038.177a7.339,7.339,0,0,0-.582-2.884c-1-1.832-3.617-2.684-3.617-2.684a5.677,5.677,0,0,0,.767,4.016,7.907,7.907,0,0,0,3.181,2.5,30,30,0,0,1-1.762,4.728,7.707,7.707,0,0,0-.053-3.064c-.661-2.017-3.152-3.334-3.152-3.334a5.718,5.718,0,0,0,.038,4.159A8.319,8.319,0,0,0,71.547,58.7a32,32,0,0,1-2.452,4.08,6.884,6.884,0,0,0,.384-2.8c-.3-2.14-2.556-3.9-2.556-3.9a5.76,5.76,0,0,0-.689,4.18,8.332,8.332,0,0,0,2.133,3.515c-.119.168-.251.323-.384.493-1.02-.561-2.027-1.12-3.007-1.687l-.45-.268-.319.412c-5.258,6.7-14.079,10.815-23.6,11.027A29.793,29.793,0,0,1,16.828,62.543l-.321-.421-.452.263c-1.012.593-2.038,1.166-3.071,1.755l-.272-.359a8.513,8.513,0,0,0,2.134-3.515,5.873,5.873,0,0,0-.7-4.18s-2.27,1.761-2.575,3.9a7.193,7.193,0,0,0,.4,2.8A32.908,32.908,0,0,1,9.518,58.7a8.319,8.319,0,0,0,2.739-3.094,5.721,5.721,0,0,0,.053-4.159s-2.486,1.317-3.155,3.334A7.816,7.816,0,0,0,9.1,57.845,30.721,30.721,0,0,1,7.34,53.118a7.972,7.972,0,0,0,3.181-2.5,5.623,5.623,0,0,0,.767-4.016s-2.633.852-3.623,2.684a7.526,7.526,0,0,0-.574,2.888l-.042-.181a27.712,27.712,0,0,1-.914-4.735A8.027,8.027,0,0,0,9.7,45.358a5.543,5.543,0,0,0,1.415-3.744s-2.682.378-3.951,1.978A8.011,8.011,0,0,0,6.061,46.56a31.265,31.265,0,0,1-.034-5.43,8.015,8.015,0,0,0,3.764-1.243,5.331,5.331,0,0,0,2.012-3.37,6.891,6.891,0,0,0-4.146,1.254,7.863,7.863,0,0,0-1.575,2.635,35.426,35.426,0,0,1,.967-5.395,7.486,7.486,0,0,0,3.825-.55,5.367,5.367,0,0,0,2.518-2.916,6.669,6.669,0,0,0-4.212.506,7.088,7.088,0,0,0-1.94,2.242,35.042,35.042,0,0,1,1.844-5.107,7.607,7.607,0,0,0,3.849.13,5.286,5.286,0,0,0,2.922-2.389A6.634,6.634,0,0,0,11.7,26.7a7.4,7.4,0,0,0-2.4,2,34.718,34.718,0,0,1,2.773-4.92,7.06,7.06,0,0,0,3.795.841,5.178,5.178,0,0,0,3.234-1.806,6.5,6.5,0,0,0-3.97-.922,8.512,8.512,0,0,0-3.013,1.813,28.136,28.136,0,0,1,4.369-5.043,7.242,7.242,0,0,0,3.1,1.577,5.067,5.067,0,0,0,3.517-.871,6.277,6.277,0,0,0-3.477-1.923,6.143,6.143,0,0,0-2.382.533,40.38,40.38,0,0,1,3.477-2.76,6.909,6.909,0,0,0,3.155,2.016,5.064,5.064,0,0,0,3.532-.584,6.083,6.083,0,0,0-3.289-2.117,8.348,8.348,0,0,0-3.379.674,35.047,35.047,0,0,1,3.649-2.238,3.912,3.912,0,0,0,2.594-.106,5.549,5.549,0,0,0,2.274-2.057h-.015a10.143,10.143,0,0,0,1.779-.627c0,.032-.761.185-2.014.584a6.259,6.259,0,0,0-2.578-.053,4.873,4.873,0,0,0-2.346,2.133c-.869.448-1.776.959-2.739,1.56a7.272,7.272,0,0,0,1.917-2.533,6.1,6.1,0,0,0-.48-3.847A4.861,4.861,0,0,0,20.715,10.9a6.564,6.564,0,0,0,.414,3.661A35.635,35.635,0,0,0,16.7,17.942,7.8,7.8,0,0,0,17.984,15.3,6.221,6.221,0,0,0,16.807,11.5a5.021,5.021,0,0,0-1.575,3.262,7.088,7.088,0,0,0,1.035,3.551,26.031,26.031,0,0,0-3.555,3.762,6.629,6.629,0,0,0,.625-2.472,6.305,6.305,0,0,0-1.862-3.595,5.07,5.07,0,0,0-.984,3.551,7.224,7.224,0,0,0,1.6,3.313,35.9,35.9,0,0,0-2.864,4.645,6.934,6.934,0,0,0,.248-2.788,6.551,6.551,0,0,0-2.5-3.311,5.242,5.242,0,0,0-.38,3.761,7.356,7.356,0,0,0,2.257,3.071,37.412,37.412,0,0,0-2.016,5.1,7.17,7.17,0,0,0-.242-2.9,6.731,6.731,0,0,0-3.117-2.871,5.315,5.315,0,0,0,.3,3.827A7.606,7.606,0,0,0,6.6,34.12a39.417,39.417,0,0,0-1.092,5.075,7,7,0,0,0-.722-2.59,6.968,6.968,0,0,0-3.64-2.329,5.45,5.45,0,0,0,.984,3.8,8.023,8.023,0,0,0,3.253,2.2,32.869,32.869,0,0,0-.189,4.888,6.508,6.508,0,0,0-1.131-2.225A7.03,7.03,0,0,0,0,41.235a5.588,5.588,0,0,0,1.668,3.642,8.114,8.114,0,0,0,3.594,1.636,34.126,34.126,0,0,0,.729,4.773,6.443,6.443,0,0,0-1.551-2.1c-1.653-1.279-4.4-1-4.4-1A5.661,5.661,0,0,0,2.384,51.55a8.2,8.2,0,0,0,3.923,1,33.341,33.341,0,0,0,1.417,4.409,6.384,6.384,0,0,0-1.836-1.709c-1.881-.988-4.592-.23-4.592-.23a5.8,5.8,0,0,0,2.935,2.971,8.27,8.27,0,0,0,4.093.319,32.388,32.388,0,0,0,2.3,4.189,7.29,7.29,0,0,0-2.248-1.486c-2.078-.657-4.654.584-4.654.584a5.832,5.832,0,0,0,3.489,2.459,8.4,8.4,0,0,0,4.2-.395c.228.321.466.64.708.948-1.407.793-2.841,1.566-4.274,2.314l-.591.3.376.55.085.1a135.727,135.727,0,0,0,7,12.115c1.243-1.024,1.932-1.6,3.013-2.54a42.306,42.306,0,0,0,22.807,6.6h.091a42.606,42.606,0,0,0,22.8-6.59c1.047.927,1.749,1.5,2.967,2.5a132.2,132.2,0,0,0,7.021-12l.383-.54-.6-.312c-1.469-.763-2.926-1.536-4.371-2.348.278-.363.557-.727.835-1.1a8.355,8.355,0,0,0,4.187.395,5.882,5.882,0,0,0,3.5-2.459s-2.586-1.241-4.648-.584A7.29,7.29,0,0,0,70.446,62.5a37.715,37.715,0,0,0,2.318-4.189,8.171,8.171,0,0,0,4.067-.319,5.821,5.821,0,0,0,2.941-2.971s-2.7-.758-4.582.23a6.238,6.238,0,0,0-1.842,1.709,30.3,30.3,0,0,0,1.415-4.409,8.212,8.212,0,0,0,3.936-1,5.7,5.7,0,0,0,2.331-3.368s-2.742-.28-4.4,1a6.536,6.536,0,0,0-1.564,2.1,33.338,33.338,0,0,0,.744-4.773A8.089,8.089,0,0,0,79.4,44.877a5.511,5.511,0,0,0,1.67-3.642A7.05,7.05,0,0,0,77,42.943a6.6,6.6,0,0,0-1.126,2.225,35.375,35.375,0,0,0-.187-4.888,8.014,8.014,0,0,0,3.247-2.2,5.445,5.445,0,0,0,.994-3.8,6.929,6.929,0,0,0-3.63,2.329,6.569,6.569,0,0,0-.74,2.59,38.331,38.331,0,0,0-1.088-5.075,7.665,7.665,0,0,0,2.809-2.709,5.315,5.315,0,0,0,.319-3.827,6.625,6.625,0,0,0-3.115,2.871,7.145,7.145,0,0,0-.251,2.9,36.106,36.106,0,0,0-2.04-5.1,7.23,7.23,0,0,0,2.278-3.071,5.226,5.226,0,0,0-.372-3.761,6.627,6.627,0,0,0-2.516,3.311,6.841,6.841,0,0,0,.266,2.788,35.157,35.157,0,0,0-2.875-4.645,7.276,7.276,0,0,0,1.617-3.313,5.074,5.074,0,0,0-1-3.551,6.4,6.4,0,0,0-1.853,3.595,6.391,6.391,0,0,0,.622,2.472,26.262,26.262,0,0,0-3.549-3.772,7.263,7.263,0,0,0,1.022-3.542A5.032,5.032,0,0,0,64.275,11.5,6.231,6.231,0,0,0,63.1,15.3a7.273,7.273,0,0,0,1.283,2.633,39.872,39.872,0,0,0-4.424-3.366A7.145,7.145,0,0,0,60.38,10.9,4.964,4.964,0,0,0,58.3,8.024a6.121,6.121,0,0,0-.5,3.847M44.246,6.707A5.48,5.48,0,0,1,33.58,5.869,6.376,6.376,0,1,0,41.754.308a3.959,3.959,0,0,0-.633-.17,5.449,5.449,0,0,1,3.124,6.569M36.8,1.658l-1.628.3,1.564.538-.2,1.63,1-1.3,1.511.689L38.088,2.17,39.214.982l-1.577.469L36.828,0Z" fill="#fff"/>
      </g>
    </g>
  </g>
</svg>
