<svg xmlns="http://www.w3.org/2000/svg" width="19.371" height="19.371" viewBox="0 0 19.371 19.371">
  <g id="bx-support" transform="translate(-3 -4)">
    <path id="Path_3100" data-name="Path 3100" d="M13.686,4A9.7,9.7,0,0,0,4,13.686V17.7a1.874,1.874,0,0,0,1.937,1.8h.969a.969.969,0,0,0,.969-.969V13.547a.969.969,0,0,0-.969-.969H6.026a7.737,7.737,0,0,1,15.319,0h-.879a.969.969,0,0,0-.969.969V19.5a1.939,1.939,0,0,1-1.937,1.937H15.623v-.969H11.748v2.906H17.56A3.878,3.878,0,0,0,21.434,19.5a1.874,1.874,0,0,0,1.937-1.8V13.686A9.7,9.7,0,0,0,13.686,4Z" transform="translate(-1)" fill="#6e78f7"/>
  </g>
</svg>
