<svg id="icon_maps_place_24px" data-name="icon/maps/place_24px" xmlns="http://www.w3.org/2000/svg" width="35.946" height="35.946" viewBox="0 0 35.946 35.946">
  <path id="Path" d="M11.755,17.975a6.857,6.857,0,0,1,2.07-3.167A8.319,8.319,0,0,0,16.81,8.414,8.405,8.405,0,1,0,2.986,14.809a6.534,6.534,0,0,1,2.131,3.167Z" transform="translate(8.818 7.369)" fill="#ffd15c"/>
  <path id="Path-2" data-name="Path" d="M2.46,10.109h.548L.572,1.035H.755A1.2,1.2,0,0,0,1.607.67.553.553,0,0,1,2.033.487.553.553,0,0,1,2.46.67a1.04,1.04,0,0,0,1.583,0A.553.553,0,0,1,4.469.487.658.658,0,0,1,4.9.67a1.106,1.106,0,0,0,.853.365h.183L3.556,10.109H4.1L6.6.609c0-.122,0-.244-.122-.3a.268.268,0,0,0-.3.061.526.526,0,0,1-.365.183A.81.81,0,0,1,5.322.365a1.04,1.04,0,0,0-1.583,0,.589.589,0,0,1-.853,0A.982.982,0,0,0,2.094,0h0A.982.982,0,0,0,1.3.365.691.691,0,0,1,.816.548.434.434,0,0,1,.45.365.268.268,0,0,0,.146.3a.222.222,0,0,0-.122.3Z" transform="translate(13.973 15.357)" fill="#fff"/>
  <g id="Group" transform="translate(13.936 25.283)">
    <path id="Path-3" data-name="Path" d="M0,0A2.07,2.07,0,0,0,1.888,1.279,2.07,2.07,0,0,0,3.776,0Z" transform="translate(1.401 5.663)" fill="#344a5e"/>
    <path id="Path-4" data-name="Path" d="M5.542,5.724H1.1A1.092,1.092,0,0,1,0,4.628V0H6.638V4.628A1.092,1.092,0,0,1,5.542,5.724Z" fill="#344a5e"/>
  </g>
  <g id="Group-2" data-name="Group" transform="translate(13.266 26.258)">
    <path id="Path-5" data-name="Path" d="M7.247,1.34H.67A.676.676,0,0,1,0,.67H0A.676.676,0,0,1,.67,0H7.247a.676.676,0,0,1,.67.67h0A.676.676,0,0,1,7.247,1.34Z" fill="#415a6b"/>
    <path id="Path-6" data-name="Path" d="M7.247,1.34H.67A.676.676,0,0,1,0,.67H0A.676.676,0,0,1,.67,0H7.247a.676.676,0,0,1,.67.67h0A.676.676,0,0,1,7.247,1.34Z" transform="translate(0 2.131)" fill="#415a6b"/>
  </g>
  <g id="Group-3" data-name="Group" transform="translate(4.497 2.996)">
    <path id="Path-7" data-name="Path" d="M.609,0A.61.61,0,0,0,0,.609v2.07a.61.61,0,0,0,.609.609.575.575,0,0,0,.609-.609V.609A.61.61,0,0,0,.609,0Z" transform="translate(12.118)" fill="#ffd15c"/>
    <path id="Path-8" data-name="Path" d="M1.035.183a.589.589,0,0,0-.853,0,.589.589,0,0,0,0,.853L1.644,2.5A.6.6,0,0,0,2.5,1.644Z" transform="translate(3.532 3.532)" fill="#ffd15c"/>
    <path id="Path-9" data-name="Path" d="M2.679,0H.609A.61.61,0,0,0,0,.609H0a.61.61,0,0,0,.609.609h2.07A.61.61,0,0,0,3.288.609h0A.655.655,0,0,0,2.679,0Z" transform="translate(0 12.118)" fill="#ffd15c"/>
    <path id="Path-10" data-name="Path" d="M1.644.183.183,1.644a.589.589,0,0,0,0,.853.589.589,0,0,0,.853,0L2.5,1.035a.589.589,0,0,0,0-.853A.589.589,0,0,0,1.644.183Z" transform="translate(3.532 19.243)" fill="#ffd15c"/>
    <path id="Path-11" data-name="Path" d="M1.035.183a.589.589,0,0,0-.853,0,.589.589,0,0,0,0,.853L1.644,2.5A.6.6,0,1,0,2.5,1.644Z" transform="translate(19.243 19.243)" fill="#ffd15c"/>
    <path id="Path-12" data-name="Path" d="M2.679,0H.609A.61.61,0,0,0,0,.609H0a.61.61,0,0,0,.609.609h2.07A.61.61,0,0,0,3.288.609h0A.61.61,0,0,0,2.679,0Z" transform="translate(22.166 12.118)" fill="#ffd15c"/>
    <path id="Path-13" data-name="Path" d="M1.644.183.183,1.644a.589.589,0,0,0,0,.853.589.589,0,0,0,.853,0L2.5,1.035a.589.589,0,0,0,0-.853A.589.589,0,0,0,1.644.183Z" transform="translate(19.243 3.532)" fill="#ffd15c"/>
  </g>
</svg>
