<svg id="icon_maps_place_24px" data-name="icon/maps/place_24px" xmlns="http://www.w3.org/2000/svg" width="35.946" height="35.946" viewBox="0 0 35.946 35.946">
  <g id="_547844" data-name="547844" transform="translate(4.493 4.493)">
    <path id="Path" d="M-2.488,1.667H.847A.834.834,0,0,0,.847,0H-2.488a.882.882,0,0,0-.889.834A.882.882,0,0,0-2.488,1.667Z" transform="translate(21.774 1.667)" fill="#0d70b2"/>
    <path id="Path-2" data-name="Path" d="M-2.543,1.667H.847A.834.834,0,0,0,.847,0h-3.39a.833.833,0,0,0-.834.834A.833.833,0,0,0-2.543,1.667Z" transform="translate(15.049 1.667)" fill="#095c92"/>
    <path id="Path-3" data-name="Path" d="M-1.113.834V4.1a.826.826,0,0,0,.834.834h.067A.837.837,0,0,0,.554,4.1V.834A.849.849,0,0,0-.213,0H-.28A.836.836,0,0,0-1.113.834Z" transform="translate(17.777 3.402)" fill="#0d70b2"/>
    <path id="Path-4" data-name="Path" d="M-.6.834V4.1a.826.826,0,0,0,.834.834H.3V0H.233A.836.836,0,0,0-.6.834Z" transform="translate(17.264 3.402)" fill="#095c92"/>
    <path id="Path-5" data-name="Path" d="M-5.608.584A5.47,5.47,0,0,1-3.107,0h6.67a.874.874,0,0,1,.889.834v5a.874.874,0,0,1-.889.834h-5a.826.826,0,0,0-.834.834v3.335a.826.826,0,0,1-.834.834h-5a.826.826,0,0,1-.834-.834v-5A5.8,5.8,0,0,1-5.608.584Z" transform="translate(10.611 8.337)" fill="#a8aff1"/>
    <path id="Path-6" data-name="Path" d="M-4.1,5.258-1.869.484A.821.821,0,0,1-1.118,0a.821.821,0,0,1,.75.484L1.9,5.291a3.273,3.273,0,0,1,.317,1.434,3.393,3.393,0,0,1-3.335,3.39,3.393,3.393,0,0,1-3.335-3.39A3.172,3.172,0,0,1-4.1,5.258Z" transform="translate(6.121 18.342)" fill="#1bd9de"/>
    <path id="Path-7" data-name="Path" d="M-4.733,6.67h6.67a.833.833,0,0,0,.834-.834v-5A.833.833,0,0,0,1.937,0h-6.67a.833.833,0,0,0-.834.834v5A.833.833,0,0,0-4.733,6.67Z" transform="translate(25.687 8.337)" fill="#c5c9f7"/>
    <path id="Path-8" data-name="Path" d="M-.839,5a2.5,2.5,0,0,0,2.5-2.5A2.5,2.5,0,0,0-.839,0a2.5,2.5,0,0,0-2.5,2.5A2.5,2.5,0,0,0-.839,5Z" transform="translate(11.677)" fill="#1689fc"/>
    <path id="Path-9" data-name="Path" d="M-.839,5a2.5,2.5,0,0,0,2.5-2.5A2.5,2.5,0,0,0-.839,0a2.5,2.5,0,0,0-2.5,2.5A2.5,2.5,0,0,0-.839,5Z" transform="translate(25.128)" fill="#18a7fc"/>
    <path id="Path-10" data-name="Path" d="M-3.084,0H.307a2.5,2.5,0,0,1,2.5,2.5v5A2.5,2.5,0,0,1,.307,10h-3.39A2.546,2.546,0,0,1-5.641,7.5v-5A2.546,2.546,0,0,1-3.084,0Z" transform="translate(18.98 6.67)" fill="#e1e4fb"/>
    <path id="Path-11" data-name="Path" d="M-2.82,2.5v5A2.546,2.546,0,0,0-.264,10H1.4V0H-.264A2.546,2.546,0,0,0-2.82,2.5Z" transform="translate(16.16 6.67)" fill="#c5c9f7"/>
    <path id="Path-12" data-name="Path" d="M-6.68.834a.826.826,0,0,0,.834.834H2.491A.826.826,0,0,0,3.325.834.826.826,0,0,0,2.491,0H-5.846A.826.826,0,0,0-6.68.834Z" transform="translate(6.68 18.342)" fill="#e1e4fb"/>
    <path id="Path-13" data-name="Path" d="M-3.34.834a.826.826,0,0,0,.834.834H1.662V0H-2.506A.826.826,0,0,0-3.34.834Z" transform="translate(3.34 18.342)" fill="#c5c9f7"/>
    <path id="Path-14" data-name="Path" d="M-.876,0A2.546,2.546,0,0,1,1.681,2.5V4.169A.826.826,0,0,1,.847,5h-3.39a.826.826,0,0,1-.834-.834V2.5A2.5,2.5,0,0,1-.876,0Z" transform="translate(18.439)" fill="#18a7fc"/>
    <path id="Path-15" data-name="Path" d="M-1.67,2.5V4.169A.826.826,0,0,0-.836,5H.831V0A2.5,2.5,0,0,0-1.67,2.5Z" transform="translate(16.732)" fill="#1689fc"/>
  </g>
</svg>
