<svg id="icon_maps_place_24px" data-name="icon/maps/place_24px" xmlns="http://www.w3.org/2000/svg" width="35.946" height="35.946" viewBox="0 0 35.946 35.946">
  <g id="_429130" data-name="429130" transform="translate(2.996 10.513)">
    <rect id="Rectangle" width="29.926" height="17.204" fill="#44c4a1"/>
    <g id="Group" transform="translate(1.088 1.053)">
      <path id="Shape" d="M0,15.1V0H27.75V15.1Z" fill="#31978c"/>
      <ellipse id="Oval" cx="4.37" cy="5.331" rx="4.37" ry="5.331" transform="translate(9.504 2.218)" fill="#31978c"/>
      <ellipse id="Oval-2" data-name="Oval" cx="1.139" cy="1.102" rx="1.139" ry="1.102" transform="translate(22.312 6.446)" fill="#31978c"/>
      <ellipse id="Oval-3" data-name="Oval" cx="1.139" cy="1.102" rx="1.139" ry="1.102" transform="translate(3.161 6.446)" fill="#31978c"/>
    </g>
    <path id="Shape-2" data-name="Shape" d="M2.031,7.255V6.616A3.481,3.481,0,0,1,0,5.662L.6,4.9a2.8,2.8,0,0,0,1.429.76v-1.7A3.267,3.267,0,0,1,.665,3.343,1.449,1.449,0,0,1,.231,2.2,1.646,1.646,0,0,1,.731.962a1.96,1.96,0,0,1,1.3-.526V0h.527V.446A3.332,3.332,0,0,1,4.276,1.1l-.537.8A2.575,2.575,0,0,0,2.558,1.4V3.045h.026a3.271,3.271,0,0,1,1.394.639,1.491,1.491,0,0,1,.446,1.169A1.629,1.629,0,0,1,3.912,6.1a2.06,2.06,0,0,1-1.353.526v.63Z" transform="translate(12.751 4.974)" fill="#44c4a1"/>
  </g>
</svg>
