<svg xmlns="http://www.w3.org/2000/svg" width="34.522" height="28.861" viewBox="0 0 34.522 28.861">
  <g id="Group_50" data-name="Group 50" transform="translate(-4092 3524)">
    <g id="Group_49" data-name="Group 49" transform="translate(4092 -3524)">
      <g id="home_2_" data-name="home (2)">
        <path id="Path_92" data-name="Path 92" d="M103.642,124.209v14.8H94.5v-8.971H89.435v8.971H79.894v-14.8l11.874-9.134Z" transform="translate(-74.507 -110.146)" fill="#ffb74f"/>
        <path id="Path_93" data-name="Path 93" d="M29.633,51.5V45.238h-5V47.65l-7.371-5.671L0,55.258l3.616,4.7,13.645-10.5,13.645,10.5,3.616-4.7Z" transform="translate(0 -41.979)" fill="#ff7d3c"/>
        <path id="Path_94" data-name="Path 94" d="M267.874,124.209v14.8h-9.138v-8.971H256V115.075Z" transform="translate(-238.739 -110.146)" fill="#ff9a00"/>
        <path id="Path_95" data-name="Path 95" d="M273.261,55.258l-3.616,4.7L256,49.462V41.979l7.371,5.671V45.238h5V51.5Z" transform="translate(-238.739 -41.979)" fill="#ff4e19"/>
      </g>
    </g>
  </g>
</svg>
