<svg id="icon_maps_place_24px" data-name="icon/maps/place_24px" xmlns="http://www.w3.org/2000/svg" width="35.946" height="35.946" viewBox="0 0 35.946 35.946">
  <g id="_449786" data-name="449786" transform="translate(4.493 6.039)">
    <g id="Group">
      <path id="Path" d="M26.709,5.626a1.624,1.624,0,0,1-2.181.474A22.042,22.042,0,0,0,13.477,3.208h-.016A21.92,21.92,0,0,0,2.431,6.1,1.574,1.574,0,1,1,.74,3.445,24.689,24.689,0,0,1,13.366,0h.111A25.5,25.5,0,0,1,26.235,3.445,1.577,1.577,0,0,1,26.709,5.626Z" transform="translate(0 0)" fill="#50b9ff"/>
      <path id="Path-2" data-name="Path" d="M19.657,4.6a1.627,1.627,0,0,1-2.181.474A15.31,15.31,0,0,0,9.954,3.145,15.31,15.31,0,0,0,2.431,5.073,1.578,1.578,0,0,1,.725,2.418,18.491,18.491,0,0,1,9.954,0a18.491,18.491,0,0,1,9.229,2.418A1.577,1.577,0,0,1,19.657,4.6Z" transform="translate(3.523 6.369)" fill="#50b9ff"/>
      <path id="Path-3" data-name="Path" d="M13.335,3.619a1.573,1.573,0,0,1-2.181.49,9.942,9.942,0,0,0-4.362-.964,9.942,9.942,0,0,0-4.362.964A1.585,1.585,0,0,1,.725,1.438,12.979,12.979,0,0,1,6.793,0a12.979,12.979,0,0,1,6.068,1.438A1.58,1.58,0,0,1,13.335,3.619Z" transform="translate(6.684 12.674)" fill="#50b9ff"/>
      <path id="Path-4" data-name="Path" d="M3.161,6.321A3.161,3.161,0,1,1,6.321,3.161,3.164,3.164,0,0,1,3.161,6.321Z" transform="translate(10.316 18.964)" fill="#50b9ff"/>
    </g>
    <g id="Group-2" data-name="Group" transform="translate(13.477)">
      <path id="Path-5" data-name="Path" d="M3.161,3.161A3.164,3.164,0,0,0,0,0V6.321A3.164,3.164,0,0,0,3.161,3.161Z" transform="translate(0 18.964)" fill="#4596e6"/>
      <path id="Path-6" data-name="Path" d="M6.542,3.619a1.573,1.573,0,0,1-2.181.49A9.942,9.942,0,0,0,0,3.145V0A12.979,12.979,0,0,1,6.068,1.438,1.58,1.58,0,0,1,6.542,3.619Z" transform="translate(0 12.674)" fill="#4596e6"/>
      <path id="Path-7" data-name="Path" d="M9.7,4.6a1.627,1.627,0,0,1-2.181.474A15.31,15.31,0,0,0,0,3.145V0A18.491,18.491,0,0,1,9.229,2.418,1.577,1.577,0,0,1,9.7,4.6Z" transform="translate(0 6.369)" fill="#4596e6"/>
      <path id="Path-8" data-name="Path" d="M13.232,5.626a1.624,1.624,0,0,1-2.181.474A22.042,22.042,0,0,0,0,3.208V0A25.5,25.5,0,0,1,12.758,3.445,1.577,1.577,0,0,1,13.232,5.626Z" fill="#4596e6"/>
    </g>
  </g>
</svg>
