<svg id="Group_47" data-name="Group 47" xmlns="http://www.w3.org/2000/svg" xmlns:xlink="http://www.w3.org/1999/xlink" width="226.849" height="172.131" viewBox="0 0 226.849 172.131">
  <defs>
    <clipPath id="clip-path">
      <path id="Path_88" data-name="Path 88" d="M103.736,87.424h18.57a10.539,10.539,0,0,1,8.189,3.462,12.549,12.549,0,0,1,3.133,8.737A13.157,13.157,0,0,1,130.5,108.8a10.522,10.522,0,0,1-8.189,3.462l-18.57.224ZM90.218,73.8v38.687H73.187a31.168,31.168,0,0,0,.985-7.256V74.13l-13.4,5.161v25.935a6.671,6.671,0,0,1-2.09,5.057,6.5,6.5,0,0,1-5.052,2.2H35.606V74.24L21.978,79.292l.11,53.628a7.164,7.164,0,0,1-2.034,5.114,6.627,6.627,0,0,1-5,2.143H0l5.823,13.075H19.012a19.246,19.246,0,0,0,10.437-5.714,19.5,19.5,0,0,0,6.157-14.618v-7.033h68.13v-13.4l11.646,13.294,6.923.109a24.9,24.9,0,0,0,12.256-3.133,23.893,23.893,0,0,0,9.118-9.009,27.342,27.342,0,0,0,3.462-14.122A26.167,26.167,0,0,0,143.68,86a24.563,24.563,0,0,0-21.373-12.2Z" transform="translate(0 -73.797)" fill="#fff"/>
    </clipPath>
    <clipPath id="clip-path-2">
      <rect id="Rectangle_24" data-name="Rectangle 24" width="226.849" height="172.131" fill="none"/>
    </clipPath>
    <clipPath id="clip-path-3">
      <path id="Path_90" data-name="Path 90" d="M251.128,22.578V83.9a20.54,20.54,0,0,0,20.659,20.659h17.14A19.607,19.607,0,0,0,303.435,98.4,19.33,19.33,0,0,0,309.477,83.9V52.8L295.96,57.96V83.9a6.847,6.847,0,0,1-1.976,5.057,6.717,6.717,0,0,1-5.056,2.2h-17.14a6.5,6.5,0,0,1-5.056-2.2,6.353,6.353,0,0,1-1.976-4.838l-.224-66.593Z" transform="translate(-251.128 -17.522)" fill="#fff"/>
    </clipPath>
  </defs>
  <path id="Path_87" data-name="Path 87" d="M85.741,178.171,75.633,167.953,65.3,178.28l10.332,10.442L85.741,178.39l.11-.109Zm10.218-10.218L85.741,178.171l-.109.109.109.109,10.218,10.332L106.4,178.28Z" transform="translate(-24.753 -63.664)" fill="#ffc31c"/>
  <g id="Group_33" data-name="Group 33" transform="translate(0 45.824)">
    <g id="Group_32" data-name="Group 32" clip-path="url(#clip-path)">
      <rect id="Rectangle_23" data-name="Rectangle 23" width="147.141" height="79.454" fill="#fff"/>
    </g>
  </g>
  <g id="Group_35" data-name="Group 35">
    <g id="Group_34" data-name="Group 34" clip-path="url(#clip-path-2)">
      <path id="Path_89" data-name="Path 89" d="M295.68,167.953l-10.223,10.218-.109.109.109.11,10.223,10.332,10.437-10.442Zm-10.165,15.7-10.223,10.218-.11.109.11.109,10.223,10.332,10.437-10.442Zm-.057-5.477-10.108-10.218L265.017,178.28l10.332,10.442,10.108-10.332.109-.11Z" transform="translate(-100.457 -63.664)" fill="#ffc31c"/>
    </g>
  </g>
  <g id="Group_37" data-name="Group 37" transform="translate(155.936 10.88)">
    <g id="Group_36" data-name="Group 36" clip-path="url(#clip-path-3)">
      <rect id="Rectangle_25" data-name="Rectangle 25" width="58.349" height="87.033" transform="translate(0 0)" fill="#fff"/>
    </g>
  </g>
  <g id="Group_39" data-name="Group 39">
    <g id="Group_38" data-name="Group 38" clip-path="url(#clip-path-2)">
      <path id="Path_91" data-name="Path 91" d="M305.473,22.8q.686,2.551,1.023,3.834a1.073,1.073,0,0,0,1.513.687,53.41,53.41,0,0,1,6.484-2.7,1.073,1.073,0,0,0,.656-1.4c-.7-1.816-1.175-3.047-1.469-3.808A1.074,1.074,0,0,0,312.3,18.8a44.535,44.535,0,0,0-6.323,2.8,1.062,1.062,0,0,0-.5,1.208m8.2-22.8c-25.028,8.81-34.146,25.42-25.961,47.578l.057.258-.02-.161q.277.75.58,1.507c-1.637-13.55-3.208-22.166,7.032-33.4,3.786-4.154,9.382-7.228,16.1-9.774q4.359,10.207,8.715,20.417-36.55,9.685-26.229,40.445C290.554,35.78,315.941,35.845,334.8,38.8L330.424,5.353A66.9,66.9,0,0,0,319.01,7l1.9,4.309a56.715,56.715,0,0,1,6.062-.815s.916,7.343,2.748,22.029c-7.508-.422-15.474-.034-21.812,2.636,5.392-3.311,12.847-4.141,19.264-4.6l-8.323-18.811.011,0L317,7.529l-.008,0Z" transform="translate(-107.952)" fill="#fff" fill-rule="evenodd"/>
    </g>
  </g>
  <text id="Khyber_Pakhtunkhwa_" data-name="Khyber Pakhtunkhwa " transform="translate(4.185 146.658)" fill="#fff" font-size="16" font-family="Gilroy-Medium, Gilroy ☞" font-weight="500"><tspan x="0" y="0" letter-spacing="-0.004em">K</tspan><tspan y="0" letter-spacing="-0.024em">h</tspan><tspan y="0" letter-spacing="-0.003em">y</tspan><tspan y="0" letter-spacing="-0.002em">be</tspan><tspan y="0">r </tspan><tspan y="0" letter-spacing="-0.024em">P</tspan><tspan y="0" letter-spacing="-0.003em">a</tspan><tspan y="0" letter-spacing="-0.007em">k</tspan><tspan y="0" letter-spacing="-0.012em">h</tspan><tspan y="0" letter-spacing="-0.014em">t</tspan><tspan y="0" letter-spacing="-0.004em">u</tspan><tspan y="0">n</tspan><tspan y="0" letter-spacing="-0.007em">k</tspan><tspan y="0" letter-spacing="-0.017em">h</tspan><tspan y="0" letter-spacing="-0.025em">w</tspan><tspan y="0">a </tspan></text>
  <g id="Group_41" data-name="Group 41">
    <g id="Group_40" data-name="Group 40" clip-path="url(#clip-path-2)">
      <text id="eDigital_Payment_Platform" data-name="eDigital Payment Platform" transform="translate(4.185 166.82)" fill="#fff" font-size="16" font-family="Gilroy-Medium, Gilroy ☞" font-weight="500"><tspan x="0" y="0">eD</tspan><tspan y="0" letter-spacing="-0.007em">i</tspan><tspan y="0" letter-spacing="-0.003em">g</tspan><tspan y="0" letter-spacing="-0.009em">i</tspan><tspan y="0" letter-spacing="-0.028em">t</tspan><tspan y="0" letter-spacing="-0.003em">a</tspan><tspan y="0">l </tspan><tspan y="0" letter-spacing="-0.024em">P</tspan><tspan y="0" letter-spacing="-0.004em">a</tspan><tspan y="0" letter-spacing="-0.003em">y</tspan><tspan y="0" letter-spacing="-0.001em">m</tspan><tspan y="0" letter-spacing="-0.002em">e</tspan><tspan y="0" letter-spacing="-0.012em">n</tspan><tspan y="0">t </tspan><tspan y="0" letter-spacing="-0.017em">P</tspan><tspan y="0" letter-spacing="-0.003em">l</tspan><tspan y="0" letter-spacing="-0.009em">a</tspan><tspan y="0" letter-spacing="0.001em">t</tspan><tspan y="0" letter-spacing="-0.008em">f</tspan><tspan y="0" letter-spacing="-0.003em">o</tspan><tspan y="0" letter-spacing="-0.009em">r</tspan><tspan y="0">m</tspan></text>
    </g>
  </g>
</svg>
