<svg xmlns="http://www.w3.org/2000/svg" width="19.371" height="20.178" viewBox="0 0 19.371 20.178">
  <g id="notification-solid-badged" transform="translate(-4.067 -1.333)">
    <path id="Path_3102" data-name="Path 3102" d="M22.052,44.049a1.619,1.619,0,0,0,1.564-1.382H20.427a1.619,1.619,0,0,0,1.625,1.382Z" transform="translate(-8.921 -22.538)" fill="#bcbec1"/>
    <path id="Path_3103" data-name="Path 3103" d="M22.134,18.346l-.206-.182a8.712,8.712,0,0,1-1.522-1.776,7.658,7.658,0,0,1-.819-2.916v-3a6.621,6.621,0,0,0-.1-1.085,4.547,4.547,0,0,1-3.632-4.462V4.546a6.409,6.409,0,0,0-2.013-.606V3.176a.809.809,0,1,0-1.619,0V3.97a6.554,6.554,0,0,0-5.639,6.506v3a7.658,7.658,0,0,1-.819,2.916,8.731,8.731,0,0,1-1.5,1.776l-.206.182v1.71H22.134Z" transform="translate(0 -0.563)" fill="#bcbec1"/>
    <circle id="Ellipse_6" data-name="Ellipse 6" cx="3.032" cy="3.032" r="3.032" transform="translate(17.375 1.333)" fill="#bcbec1"/>
  </g>
</svg>
