<svg id="Group_47" data-name="Group 47" xmlns="http://www.w3.org/2000/svg" xmlns:xlink="http://www.w3.org/1999/xlink" width="234.849" height="172.131" viewBox="0 0 234.849 172.131">
  <defs>
    <clipPath id="clip-path">
      <path id="Path_88" data-name="Path 88" d="M103.736,87.424h18.57a10.539,10.539,0,0,1,8.189,3.462,12.549,12.549,0,0,1,3.133,8.737A13.157,13.157,0,0,1,130.5,108.8a10.522,10.522,0,0,1-8.189,3.462l-18.57.224ZM90.218,73.8v38.687H73.187a31.168,31.168,0,0,0,.985-7.256V74.13l-13.4,5.161v25.935a6.671,6.671,0,0,1-2.09,5.057,6.5,6.5,0,0,1-5.052,2.2H35.606V74.24L21.978,79.292l.11,53.628a7.164,7.164,0,0,1-2.034,5.114,6.627,6.627,0,0,1-5,2.143H0l5.823,13.075H19.012a19.246,19.246,0,0,0,10.437-5.714,19.5,19.5,0,0,0,6.157-14.618v-7.033h68.13v-13.4l11.646,13.294,6.923.109a24.9,24.9,0,0,0,12.256-3.133,23.893,23.893,0,0,0,9.118-9.009,27.342,27.342,0,0,0,3.462-14.122A26.167,26.167,0,0,0,143.68,86a24.563,24.563,0,0,0-21.373-12.2Z" transform="translate(0 -73.797)" fill="#fff"/>
    </clipPath>
    <clipPath id="clip-path-2">
      <rect id="Rectangle_24" data-name="Rectangle 24" width="226.849" height="172.131" fill="none"/>
    </clipPath>
    <clipPath id="clip-path-3">
      <path id="Path_90" data-name="Path 90" d="M251.128,22.578V83.9a20.54,20.54,0,0,0,20.659,20.659h17.14A19.607,19.607,0,0,0,303.435,98.4,19.33,19.33,0,0,0,309.477,83.9V52.8L295.96,57.96V83.9a6.847,6.847,0,0,1-1.976,5.057,6.717,6.717,0,0,1-5.056,2.2h-17.14a6.5,6.5,0,0,1-5.056-2.2,6.353,6.353,0,0,1-1.976-4.838l-.224-66.593Z" transform="translate(-251.128 -17.522)" fill="#fff"/>
    </clipPath>
    <clipPath id="clip-path-5">
      <rect id="Rectangle_27" data-name="Rectangle 27" width="234.849" height="172.131" fill="none"/>
    </clipPath>
  </defs>
  <path id="Path_87" data-name="Path 87" d="M85.741,178.171,75.633,167.953,65.3,178.28l10.332,10.442L85.741,178.39l.11-.109Zm10.218-10.218L85.741,178.171l-.109.109.109.109,10.218,10.332L106.4,178.28Z" transform="translate(-24.753 -63.664)" fill="#ffc31c"/>
  <g id="Group_33" data-name="Group 33" transform="translate(0 45.824)">
    <g id="Group_32" data-name="Group 32" clip-path="url(#clip-path)">
      <rect id="Rectangle_23" data-name="Rectangle 23" width="147.141" height="79.454" fill="#fff"/>
    </g>
  </g>
  <g id="Group_35" data-name="Group 35">
    <g id="Group_34" data-name="Group 34" clip-path="url(#clip-path-2)">
      <path id="Path_89" data-name="Path 89" d="M295.68,167.953l-10.223,10.218-.109.109.109.11,10.223,10.332,10.437-10.442Zm-10.165,15.7-10.223,10.218-.11.109.11.109,10.223,10.332,10.437-10.442Zm-.057-5.477-10.108-10.218L265.017,178.28l10.332,10.442,10.108-10.332.109-.11Z" transform="translate(-100.457 -63.664)" fill="#ffc31c"/>
    </g>
  </g>
  <g id="Group_37" data-name="Group 37" transform="translate(155.936 10.88)">
    <g id="Group_36" data-name="Group 36" clip-path="url(#clip-path-3)">
      <rect id="Rectangle_25" data-name="Rectangle 25" width="58.349" height="87.033" transform="translate(0 0)" fill="#fff"/>
    </g>
  </g>
  <g id="Group_39" data-name="Group 39">
    <g id="Group_38" data-name="Group 38" clip-path="url(#clip-path-2)">
      <path id="Path_91" data-name="Path 91" d="M305.473,22.8q.686,2.551,1.023,3.834a1.073,1.073,0,0,0,1.513.687,53.41,53.41,0,0,1,6.484-2.7,1.073,1.073,0,0,0,.656-1.4c-.7-1.816-1.175-3.047-1.469-3.808A1.074,1.074,0,0,0,312.3,18.8a44.535,44.535,0,0,0-6.323,2.8,1.062,1.062,0,0,0-.5,1.208m8.2-22.8c-25.028,8.81-34.146,25.42-25.961,47.578l.057.258-.02-.161q.277.75.58,1.507c-1.637-13.55-3.208-22.166,7.032-33.4,3.786-4.154,9.382-7.228,16.1-9.774q4.359,10.207,8.715,20.417-36.55,9.685-26.229,40.445C290.554,35.78,315.941,35.845,334.8,38.8L330.424,5.353A66.9,66.9,0,0,0,319.01,7l1.9,4.309a56.715,56.715,0,0,1,6.062-.815s.916,7.343,2.748,22.029c-7.508-.422-15.474-.034-21.812,2.636,5.392-3.311,12.847-4.141,19.264-4.6l-8.323-18.811.011,0L317,7.529l-.008,0Z" transform="translate(-107.952)" fill="#fff" fill-rule="evenodd"/>
    </g>
  </g>
  <path id="Path_3086" data-name="Path 3086" d="M9.344,0H7.52L2.688-5.38V0H1.2V-11.2H2.688v5.07L7.36-11.2H9.184L4.24-5.76Zm5.1-8.208A2.974,2.974,0,0,1,16.7-7.32a3.342,3.342,0,0,1,.848,2.408V0H16.16V-4.832a2.063,2.063,0,0,0-.528-1.512,1.951,1.951,0,0,0-1.456-.536,2.256,2.256,0,0,0-1.68.648,2.734,2.734,0,0,0-.64,1.992V0H10.464V-11.2h1.392v4.352A2.844,2.844,0,0,1,14.448-8.208ZM24.512-8H26L22.736.5A4.578,4.578,0,0,1,21.3,2.568a3.021,3.021,0,0,1-2.12.632V1.9q1.466.112,2.151-1.636l.153-.3L18-8h1.488l2.668,6.133Zm7.024-.208A3.838,3.838,0,0,1,34.4-6.984,4.131,4.131,0,0,1,35.584-4,4.131,4.131,0,0,1,34.4-1.016,3.838,3.838,0,0,1,31.536.208a3.394,3.394,0,0,1-3.024-1.584V0H27.12V-11.2h1.392v4.576A3.394,3.394,0,0,1,31.536-8.208ZM31.36-1.136a2.725,2.725,0,0,0,2.016-.824A2.785,2.785,0,0,0,34.192-4a2.785,2.785,0,0,0-.816-2.04,2.725,2.725,0,0,0-2.016-.824,2.744,2.744,0,0,0-2.032.824A2.785,2.785,0,0,0,28.512-4a2.785,2.785,0,0,0,.816,2.04A2.744,2.744,0,0,0,31.36-1.136ZM38.192-3.36A2.638,2.638,0,0,0,39.176-1.7a3.06,3.06,0,0,0,1.912.592,2.5,2.5,0,0,0,2.3-1.168l1.184.672A3.909,3.909,0,0,1,41.056.208a4.188,4.188,0,0,1-3.1-1.192A4.087,4.087,0,0,1,36.768-4a4.139,4.139,0,0,1,1.168-3.008,4.033,4.033,0,0,1,3.024-1.2,3.68,3.68,0,0,1,2.872,1.24,4.314,4.314,0,0,1,1.112,2.984,4.2,4.2,0,0,1-.048.624ZM40.96-6.9a2.748,2.748,0,0,0-1.856.632,2.736,2.736,0,0,0-.912,1.688h5.344a2.666,2.666,0,0,0-.9-1.728A2.566,2.566,0,0,0,40.96-6.9Zm6.944.24a2.509,2.509,0,0,1,2.5-1.488v1.456a2.522,2.522,0,0,0-1.76.544,2.3,2.3,0,0,0-.736,1.9V0H46.512V-8H47.9ZM59.968-11.2a3.505,3.505,0,0,1,2.584,1.032A3.486,3.486,0,0,1,63.584-7.6a3.493,3.493,0,0,1-1.032,2.56A3.491,3.491,0,0,1,59.968-4H57.392V0H55.9V-11.2Zm0,5.808A2.041,2.041,0,0,0,61.5-6.024,2.184,2.184,0,0,0,62.112-7.6,2.176,2.176,0,0,0,61.5-9.184a2.054,2.054,0,0,0-1.536-.624H57.392v4.416ZM70.832-8h1.392V0H70.832V-1.376A3.394,3.394,0,0,1,67.808.208a3.838,3.838,0,0,1-2.864-1.224A4.131,4.131,0,0,1,63.76-4a4.131,4.131,0,0,1,1.184-2.984,3.838,3.838,0,0,1,2.864-1.224,3.394,3.394,0,0,1,3.024,1.584ZM67.984-1.136a2.744,2.744,0,0,0,2.032-.824A2.785,2.785,0,0,0,70.832-4a2.785,2.785,0,0,0-.816-2.04,2.744,2.744,0,0,0-2.032-.824,2.725,2.725,0,0,0-2.016.824A2.785,2.785,0,0,0,65.152-4a2.785,2.785,0,0,0,.816,2.04A2.725,2.725,0,0,0,67.984-1.136ZM81.056,0H79.328L75.68-3.788V0H74.288V-11.2H75.68v6.722L79.136-8h1.792L77.1-4.128Zm5.168-8.208a2.974,2.974,0,0,1,2.256.888,3.342,3.342,0,0,1,.848,2.408V0H87.936V-4.832a2.063,2.063,0,0,0-.528-1.512,1.951,1.951,0,0,0-1.456-.536,2.256,2.256,0,0,0-1.68.648,2.734,2.734,0,0,0-.64,1.992V0H82.24V-11.2h1.392v4.352A2.844,2.844,0,0,1,86.224-8.208Zm9.2,1.552H93.3V-2.32a1.217,1.217,0,0,0,.232.84.954.954,0,0,0,.712.256q.48.008,1.184-.024V0a4.117,4.117,0,0,1-2.672-.3A2.209,2.209,0,0,1,91.9-2.32V-6.656H90.32V-8H91.9V-9.824L93.3-10.24V-8h2.128ZM102.416-8h1.392V0h-1.392V-1.152A2.844,2.844,0,0,1,99.824.208,2.974,2.974,0,0,1,97.568-.68a3.342,3.342,0,0,1-.848-2.408V-8h1.392v4.832a2.063,2.063,0,0,0,.528,1.512,1.951,1.951,0,0,0,1.456.536,2.256,2.256,0,0,0,1.68-.648,2.734,2.734,0,0,0,.64-1.992Zm7.424-.208a2.974,2.974,0,0,1,2.256.888,3.342,3.342,0,0,1,.848,2.408V0h-1.392V-4.832a2.063,2.063,0,0,0-.528-1.512,1.951,1.951,0,0,0-1.456-.536,2.256,2.256,0,0,0-1.68.648,2.734,2.734,0,0,0-.64,1.992V0h-1.392V-8h1.392v1.152A2.844,2.844,0,0,1,109.84-8.208ZM121.648,0H119.92l-3.648-3.788V0H114.88V-11.2h1.392v6.722L119.728-8h1.792L117.7-4.128Zm5.168-8.208a2.974,2.974,0,0,1,2.256.888,3.342,3.342,0,0,1,.848,2.408V0h-1.392V-4.832A2.063,2.063,0,0,0,128-6.344a1.951,1.951,0,0,0-1.456-.536,2.256,2.256,0,0,0-1.68.648,2.734,2.734,0,0,0-.64,1.992V0h-1.392V-11.2h1.392v4.352A2.844,2.844,0,0,1,126.816-8.208ZM140.9-8H142.2l-2.331,8h-1.424L136.54-6l-1.9,6h-1.489L130.8-8h1.457l1.758,6.079L135.9-8h1.373l1.883,6.081Zm8.8,0h1.392V0H149.7V-1.376A3.394,3.394,0,0,1,146.672.208a3.838,3.838,0,0,1-2.864-1.224A4.131,4.131,0,0,1,142.624-4a4.131,4.131,0,0,1,1.184-2.984,3.838,3.838,0,0,1,2.864-1.224A3.394,3.394,0,0,1,149.7-6.624Zm-2.848,6.864a2.744,2.744,0,0,0,2.032-.824A2.785,2.785,0,0,0,149.7-4a2.785,2.785,0,0,0-.816-2.04,2.744,2.744,0,0,0-2.032-.824,2.725,2.725,0,0,0-2.016.824A2.785,2.785,0,0,0,144.016-4a2.785,2.785,0,0,0,.816,2.04A2.725,2.725,0,0,0,146.848-1.136Z" transform="translate(4.185 146.658)" fill="#fff"/>
  <g id="Group_41" data-name="Group 41">
    <g id="Group_40" data-name="Group 40" clip-path="url(#clip-path-5)">
      <path id="Path_3087" data-name="Path 3087" d="M5.568-11.2a4.973,4.973,0,0,1,3.8,1.624A5.619,5.619,0,0,1,10.88-5.6,5.619,5.619,0,0,1,9.368-1.624,4.973,4.973,0,0,1,5.568,0H1.2V-11.2Zm0,9.792a3.608,3.608,0,0,0,2.8-1.2A4.288,4.288,0,0,0,9.456-5.6,4.288,4.288,0,0,0,8.368-8.592a3.608,3.608,0,0,0-2.8-1.2H2.688v8.384Zm7.68-8.048a.913.913,0,0,1-.672-.272.894.894,0,0,1-.272-.656.921.921,0,0,1,.272-.664.9.9,0,0,1,.672-.28.881.881,0,0,1,.656.28.921.921,0,0,1,.272.664.894.894,0,0,1-.272.656A.894.894,0,0,1,13.248-9.456ZM12.544,0V-8h1.392V0ZM22.7-8H24.08V-.336a3.37,3.37,0,0,1-1.2,2.76A4.4,4.4,0,0,1,20,3.408a5,5,0,0,1-2.32-.5,3.359,3.359,0,0,1-1.472-1.448L17.424.768a2.614,2.614,0,0,0,2.608,1.344,2.782,2.782,0,0,0,1.96-.656A2.316,2.316,0,0,0,22.7-.336V-1.472A3.4,3.4,0,0,1,19.7.128a3.887,3.887,0,0,1-2.9-1.216,4.085,4.085,0,0,1-1.184-2.96A4.058,4.058,0,0,1,16.8-7a3.9,3.9,0,0,1,2.9-1.208A3.38,3.38,0,0,1,22.7-6.624Zm-4.88,5.984a2.758,2.758,0,0,0,2.032.816,2.758,2.758,0,0,0,2.032-.816A2.758,2.758,0,0,0,22.7-4.048a2.739,2.739,0,0,0-.816-2.016,2.758,2.758,0,0,0-2.032-.816,2.758,2.758,0,0,0-2.032.816,2.739,2.739,0,0,0-.816,2.016A2.758,2.758,0,0,0,17.824-2.016ZM26.9-9.456a.913.913,0,0,1-.672-.272.894.894,0,0,1-.272-.656.921.921,0,0,1,.272-.664.9.9,0,0,1,.672-.28.881.881,0,0,1,.656.28.921.921,0,0,1,.272.664.894.894,0,0,1-.272.656A.894.894,0,0,1,26.9-9.456ZM26.192,0V-8h1.392V0Zm7.872-6.656H31.936V-2.32a1.217,1.217,0,0,0,.232.84.954.954,0,0,0,.712.256q.48.008,1.184-.024V0a4.117,4.117,0,0,1-2.672-.3,2.209,2.209,0,0,1-.848-2.024V-6.656H28.96V-8h1.584V-9.824l1.392-.416V-8h2.128ZM41.936-8h1.392V0H41.936V-1.376A3.394,3.394,0,0,1,38.912.208a3.838,3.838,0,0,1-2.864-1.224A4.131,4.131,0,0,1,34.864-4a4.131,4.131,0,0,1,1.184-2.984,3.838,3.838,0,0,1,2.864-1.224,3.394,3.394,0,0,1,3.024,1.584ZM39.088-1.136A2.744,2.744,0,0,0,41.12-1.96,2.785,2.785,0,0,0,41.936-4a2.785,2.785,0,0,0-.816-2.04,2.744,2.744,0,0,0-2.032-.824,2.725,2.725,0,0,0-2.016.824A2.785,2.785,0,0,0,36.256-4a2.785,2.785,0,0,0,.816,2.04A2.725,2.725,0,0,0,39.088-1.136ZM45.44,0V-11.68h1.392V0ZM57.168-11.2a3.505,3.505,0,0,1,2.584,1.032A3.486,3.486,0,0,1,60.784-7.6a3.493,3.493,0,0,1-1.032,2.56A3.491,3.491,0,0,1,57.168-4H54.592V0H53.1V-11.2Zm0,5.808A2.041,2.041,0,0,0,58.7-6.024,2.184,2.184,0,0,0,59.312-7.6,2.176,2.176,0,0,0,58.7-9.184a2.054,2.054,0,0,0-1.536-.624H54.592v4.416ZM68.416-8h1.392V0H68.416V-1.376A3.394,3.394,0,0,1,65.392.208a3.838,3.838,0,0,1-2.864-1.224A4.131,4.131,0,0,1,61.344-4a4.131,4.131,0,0,1,1.184-2.984,3.838,3.838,0,0,1,2.864-1.224,3.394,3.394,0,0,1,3.024,1.584ZM65.568-1.136A2.744,2.744,0,0,0,67.6-1.96,2.785,2.785,0,0,0,68.416-4,2.785,2.785,0,0,0,67.6-6.04a2.744,2.744,0,0,0-2.032-.824,2.725,2.725,0,0,0-2.016.824A2.785,2.785,0,0,0,62.736-4a2.785,2.785,0,0,0,.816,2.04A2.725,2.725,0,0,0,65.568-1.136ZM77.5-8h1.488L75.728.5A4.578,4.578,0,0,1,74.3,2.568a3.021,3.021,0,0,1-2.12.632V1.9q1.466.112,2.151-1.636l.153-.3L70.992-8H72.48l2.668,6.133Zm11.3-.208a2.87,2.87,0,0,1,2.176.872,3.277,3.277,0,0,1,.832,2.36V0H90.416V-4.928a2.025,2.025,0,0,0-.48-1.44,1.671,1.671,0,0,0-1.28-.512,1.825,1.825,0,0,0-1.432.6,2.684,2.684,0,0,0-.536,1.832V0H85.3V-4.928a2.092,2.092,0,0,0-.456-1.44A1.576,1.576,0,0,0,83.6-6.88a1.945,1.945,0,0,0-1.464.608,2.541,2.541,0,0,0-.584,1.824V0H80.16V-8h1.392v1.072a2.653,2.653,0,0,1,2.384-1.28,2.483,2.483,0,0,1,2.352,1.36A2.75,2.75,0,0,1,88.8-8.208ZM94.72-3.36A2.638,2.638,0,0,0,95.7-1.7a3.06,3.06,0,0,0,1.912.592,2.5,2.5,0,0,0,2.3-1.168L101.1-1.6A3.909,3.909,0,0,1,97.584.208a4.188,4.188,0,0,1-3.1-1.192A4.087,4.087,0,0,1,93.3-4a4.139,4.139,0,0,1,1.168-3.008,4.033,4.033,0,0,1,3.024-1.2,3.68,3.68,0,0,1,2.872,1.24,4.314,4.314,0,0,1,1.112,2.984,4.2,4.2,0,0,1-.048.624ZM97.488-6.9a2.748,2.748,0,0,0-1.856.632,2.736,2.736,0,0,0-.912,1.688h5.344a2.666,2.666,0,0,0-.9-1.728A2.566,2.566,0,0,0,97.488-6.9Zm9.568-1.312a2.974,2.974,0,0,1,2.256.888,3.342,3.342,0,0,1,.848,2.408V0h-1.392V-4.832a2.063,2.063,0,0,0-.528-1.512,1.951,1.951,0,0,0-1.456-.536,2.256,2.256,0,0,0-1.68.648,2.734,2.734,0,0,0-.64,1.992V0h-1.392V-8h1.392v1.152A2.844,2.844,0,0,1,107.056-8.208Zm9.392,1.552H114.32V-2.32a1.217,1.217,0,0,0,.232.84.954.954,0,0,0,.712.256q.48.008,1.184-.024V0a4.117,4.117,0,0,1-2.672-.3,2.209,2.209,0,0,1-.848-2.024V-6.656h-1.584V-8h1.584V-9.824l1.392-.416V-8h2.128Zm9.9-4.544a3.505,3.505,0,0,1,2.584,1.032A3.486,3.486,0,0,1,129.968-7.6a3.493,3.493,0,0,1-1.032,2.56A3.491,3.491,0,0,1,126.352-4h-2.576V0h-1.488V-11.2Zm0,5.808a2.041,2.041,0,0,0,1.536-.632A2.184,2.184,0,0,0,128.5-7.6a2.176,2.176,0,0,0-.608-1.584,2.054,2.054,0,0,0-1.536-.624h-2.576v4.416ZM131.584,0V-11.68h1.392V0Zm10.144-8h1.392V0h-1.392V-1.376A3.394,3.394,0,0,1,138.7.208a3.838,3.838,0,0,1-2.864-1.224A4.131,4.131,0,0,1,134.656-4a4.131,4.131,0,0,1,1.184-2.984A3.838,3.838,0,0,1,138.7-8.208a3.394,3.394,0,0,1,3.024,1.584ZM138.88-1.136a2.744,2.744,0,0,0,2.032-.824A2.785,2.785,0,0,0,141.728-4a2.785,2.785,0,0,0-.816-2.04,2.744,2.744,0,0,0-2.032-.824,2.725,2.725,0,0,0-2.016.824A2.785,2.785,0,0,0,136.048-4a2.785,2.785,0,0,0,.816,2.04A2.725,2.725,0,0,0,138.88-1.136Zm10.7-5.52h-2.128V-2.32a1.217,1.217,0,0,0,.232.84.954.954,0,0,0,.712.256q.48.008,1.184-.024V0a4.117,4.117,0,0,1-2.672-.3,2.209,2.209,0,0,1-.848-2.024V-6.656H144.48V-8h1.584V-9.824l1.392-.416V-8h2.128Zm5.36-3.408q-2.112-.176-2.112,1.824V-8h2.112v1.344h-2.112V0H151.44V-6.656h-1.28V-8h1.28v-.24a3.163,3.163,0,0,1,.9-2.448,3.359,3.359,0,0,1,2.6-.72Zm7.376,9.056A4.1,4.1,0,0,1,159.328.208a4.074,4.074,0,0,1-2.984-1.216A4.053,4.053,0,0,1,155.12-4a4.053,4.053,0,0,1,1.224-2.992,4.074,4.074,0,0,1,2.984-1.216,4.1,4.1,0,0,1,2.992,1.216A4.04,4.04,0,0,1,163.552-4,4.04,4.04,0,0,1,162.32-1.008Zm-2.992-.144a2.739,2.739,0,0,0,2.016-.816A2.758,2.758,0,0,0,162.16-4a2.758,2.758,0,0,0-.816-2.032,2.739,2.739,0,0,0-2.016-.816,2.72,2.72,0,0,0-2,.816A2.758,2.758,0,0,0,156.512-4a2.758,2.758,0,0,0,.816,2.032A2.72,2.72,0,0,0,159.328-1.152Zm7.264-5.5a2.509,2.509,0,0,1,2.5-1.488v1.456a2.522,2.522,0,0,0-1.76.544,2.3,2.3,0,0,0-.736,1.9V0H165.2V-8h1.392Zm12.5-1.552a2.87,2.87,0,0,1,2.176.872,3.277,3.277,0,0,1,.832,2.36V0H180.7V-4.928a2.025,2.025,0,0,0-.48-1.44,1.671,1.671,0,0,0-1.28-.512,1.825,1.825,0,0,0-1.432.6,2.684,2.684,0,0,0-.536,1.832V0h-1.392V-4.928a2.092,2.092,0,0,0-.456-1.44,1.576,1.576,0,0,0-1.24-.512,1.945,1.945,0,0,0-1.464.608,2.541,2.541,0,0,0-.584,1.824V0h-1.392V-8h1.392v1.072a2.653,2.653,0,0,1,2.384-1.28,2.483,2.483,0,0,1,2.352,1.36A2.75,2.75,0,0,1,179.088-8.208ZM189.664,1.6a15.931,15.931,0,0,1-1.76-7.2,15.931,15.931,0,0,1,1.76-7.2h1.392a15.931,15.931,0,0,0-1.76,7.2,15.931,15.931,0,0,0,1.76,7.2Zm7.36-12.8a4.973,4.973,0,0,1,3.8,1.624A5.619,5.619,0,0,1,202.336-5.6a5.619,5.619,0,0,1-1.512,3.976A4.973,4.973,0,0,1,197.024,0h-4.368V-11.2Zm0,9.792a3.608,3.608,0,0,0,2.8-1.2A4.288,4.288,0,0,0,200.912-5.6a4.288,4.288,0,0,0-1.088-2.992,3.608,3.608,0,0,0-2.8-1.2h-2.88v8.384ZM203.2,0V-1.216l3.952-4.032a4.332,4.332,0,0,0,1.584-2.72,1.9,1.9,0,0,0-.576-1.472,2.008,2.008,0,0,0-1.408-.528,2.4,2.4,0,0,0-2.3,1.5L203.2-9.2a3.785,3.785,0,0,1,1.464-1.648,3.959,3.959,0,0,1,2.072-.56,3.558,3.558,0,0,1,2.448.928,3.178,3.178,0,0,1,1.04,2.5,5.57,5.57,0,0,1-2,3.7L205.369-1.44h5.063V0Zm13.12-11.2a3.505,3.505,0,0,1,2.584,1.032A3.486,3.486,0,0,1,219.936-7.6,3.493,3.493,0,0,1,218.9-5.04,3.491,3.491,0,0,1,216.32-4h-2.576V0h-1.488V-11.2Zm0,5.808a2.041,2.041,0,0,0,1.536-.632,2.184,2.184,0,0,0,.608-1.576,2.176,2.176,0,0,0-.608-1.584,2.054,2.054,0,0,0-1.536-.624h-2.576v4.416ZM222.288,1.6H220.9a15.931,15.931,0,0,0,1.76-7.2,15.931,15.931,0,0,0-1.76-7.2h1.392a15.931,15.931,0,0,1,1.76,7.2A15.931,15.931,0,0,1,222.288,1.6Z" transform="translate(4.185 166.82)" fill="#fff"/>
    </g>
  </g>
</svg>
