<svg xmlns="http://www.w3.org/2000/svg" width="22.204" height="22.204" viewBox="0 0 22.204 22.204">
  <g id="document-pdf" transform="translate(0 0)">
    <path id="Path_2131" data-name="Path 2131" d="M40.758,25.586V24H36v7.93h1.586V28.758h2.379V27.172H37.586V25.586Z" transform="translate(-18.554 -12.898)" fill="#959595"/>
    <path id="Path_2132" data-name="Path 2132" d="M25.672,31.93H22.5V24h3.172a2.381,2.381,0,0,1,2.379,2.379v3.172A2.381,2.381,0,0,1,25.672,31.93Zm-1.586-1.586h1.586a.794.794,0,0,0,.793-.793V26.379a.794.794,0,0,0-.793-.793H24.086Z" transform="translate(-12.191 -12.898)" fill="#959595"/>
    <path id="Path_2133" data-name="Path 2133" d="M12.965,24H9v7.93h1.586V29.551h2.379a1.588,1.588,0,0,0,1.586-1.586V25.586A1.588,1.588,0,0,0,12.965,24Zm-2.379,3.965V25.586h2.379v2.379Z" transform="translate(-5.828 -12.898)" fill="#959595"/>
    <path id="Path_2134" data-name="Path 2134" d="M18.86,12.516V9.344a.722.722,0,0,0-.238-.555L13.071,3.238A.721.721,0,0,0,12.516,3H4.586A1.591,1.591,0,0,0,3,4.586V23.618A1.586,1.586,0,0,0,4.586,25.2H17.274V23.618H4.586V4.586H10.93V9.344a1.591,1.591,0,0,0,1.586,1.586h4.758v1.586ZM12.516,9.344V4.9l4.441,4.441Z" transform="translate(-3 -2.999)" fill="#959595"/>
  </g>
</svg>
