<svg xmlns="http://www.w3.org/2000/svg" xmlns:xlink="http://www.w3.org/1999/xlink" width="34.25" height="39" viewBox="0 0 34.25 39">
  <defs>
    <linearGradient id="linear-gradient" x1="1.099" y1="-0.428" x2="-0.039" y2="1.448" gradientUnits="objectBoundingBox">
      <stop offset="0" stop-color="#4b2a7a"/>
      <stop offset="1" stop-color="#08a1a7"/>
    </linearGradient>
  </defs>
  <path id="Icon_awesome-hospital" data-name="Icon awesome-hospital" d="M33.25,36.516V38H0V36.516a.891.891,0,0,1,.891-.891H2.375V8.906A1.781,1.781,0,0,1,4.156,7.125h6.531V1.781A1.781,1.781,0,0,1,12.469,0h8.313a1.781,1.781,0,0,1,1.781,1.781V7.125h6.531a1.781,1.781,0,0,1,1.781,1.781V35.625h1.484A.891.891,0,0,1,33.25,36.516ZM22.859,14.25H19.891a.891.891,0,0,0-.891.891v2.969a.891.891,0,0,0,.891.891h2.969a.891.891,0,0,0,.891-.891V15.141A.891.891,0,0,0,22.859,14.25ZM10.391,19h2.969a.891.891,0,0,0,.891-.891V15.141a.891.891,0,0,0-.891-.891H10.391a.891.891,0,0,0-.891.891v2.969A.891.891,0,0,0,10.391,19Zm7.719,9.5H15.141a.891.891,0,0,0-.891.891v6.234H19V29.391A.891.891,0,0,0,18.109,28.5Zm4.75-7.125H19.891a.891.891,0,0,0-.891.891v2.969a.891.891,0,0,0,.891.891h2.969a.891.891,0,0,0,.891-.891V22.266A.891.891,0,0,0,22.859,21.375Zm-8.609.891a.891.891,0,0,0-.891-.891H10.391a.891.891,0,0,0-.891.891v2.969a.891.891,0,0,0,.891.891h2.969a.891.891,0,0,0,.891-.891ZM13.508,7.125h1.93v1.93a.445.445,0,0,0,.445.445h1.484a.445.445,0,0,0,.445-.445V7.125h1.93a.445.445,0,0,0,.445-.445V5.2a.445.445,0,0,0-.445-.445h-1.93V2.82a.445.445,0,0,0-.445-.445H15.883a.445.445,0,0,0-.445.445V4.75h-1.93a.445.445,0,0,0-.445.445V6.68A.445.445,0,0,0,13.508,7.125Z" transform="translate(0.5 0.5)" stroke="rgba(0,0,0,0)" stroke-width="1" fill="url(#linear-gradient)"/>
</svg>
