<svg id="qrcode" xmlns="http://www.w3.org/2000/svg" width="26.655" height="26.655" viewBox="0 0 26.655 26.655">
  <path id="Path_61" data-name="Path 61" d="M0,0V12.113H12.113V0ZM14.542,0V12.113H26.655V0ZM2.412,2.412H9.7V9.7H2.412Zm14.542,0h7.288V9.7H16.954ZM4.842,4.876V7.288H7.288V4.876Zm14.525,0V7.288h2.412V4.876ZM0,14.542V26.655H12.113V14.542Zm14.542,0V26.655h2.412V19.4h2.412v2.412h7.288V14.542H24.243v2.412H21.779V14.542ZM2.412,16.954H9.7v7.288H2.412Zm2.429,2.412v2.447H7.288V19.367Zm14.525,4.876v2.412h2.412V24.243Zm4.876,0v2.412h2.412V24.243Z" fill="#686868"/>
</svg>
