<svg id="qr-code-scan" xmlns="http://www.w3.org/2000/svg" width="74.296" height="74.296" viewBox="0 0 74.296 74.296">
  <g id="Group_17" data-name="Group 17">
    <path id="Path_62" data-name="Path 62" d="M0,2.322A2.322,2.322,0,0,1,2.322,0H16.252a2.322,2.322,0,0,1,0,4.644H4.644V16.252a2.322,2.322,0,1,1-4.644,0Zm55.722,0A2.322,2.322,0,0,1,58.044,0H71.974A2.322,2.322,0,0,1,74.3,2.322V16.252a2.322,2.322,0,1,1-4.644,0V4.644H58.044a2.322,2.322,0,0,1-2.322-2.322Zm-53.4,53.4a2.322,2.322,0,0,1,2.322,2.322V69.653H16.252a2.322,2.322,0,1,1,0,4.644H2.322A2.322,2.322,0,0,1,0,71.974V58.044a2.322,2.322,0,0,1,2.322-2.322Zm69.653,0A2.322,2.322,0,0,1,74.3,58.044V71.974A2.322,2.322,0,0,1,71.974,74.3H58.044a2.322,2.322,0,0,1,0-4.644H69.653V58.044A2.322,2.322,0,0,1,71.974,55.722Zm-53.4-37.148h4.644v4.644H18.574Z" fill="#4c32e6"/>
    <path id="Path_63" data-name="Path 63" d="M29.218,6H6V29.218H29.218ZM10.644,10.644H24.574V24.574H10.644Zm9.287,37.148H15.287v4.644h4.644Z" transform="translate(3.287 3.287)" fill="#4c32e6"/>
    <path id="Path_64" data-name="Path 64" d="M29.218,35.218H6V58.435H29.218ZM10.644,39.861H24.574V53.792H10.644ZM47.792,12h4.644v4.644H47.792Z" transform="translate(3.287 6.574)" fill="#4c32e6"/>
    <path id="Path_65" data-name="Path 65" d="M28.644,6H51.861V29.218H28.644Zm4.644,4.644V24.574H47.218V10.644ZM24,33.861v9.287h4.644v4.644H24v4.644h9.287V43.148h4.644v9.287h4.644V47.792h9.287V43.148H37.931V33.861Zm9.287,9.287H28.644V38.5h4.644Zm18.574,9.287H47.218v4.644H37.931v4.644H51.861ZM33.287,61.722V57.079H24v4.644Z" transform="translate(13.148 3.287)" fill="#4c32e6"/>
    <path id="Path_66" data-name="Path 66" d="M36,28.644h9.287V24H36Z" transform="translate(19.722 13.148)" fill="#4c32e6"/>
  </g>
</svg>
