<svg xmlns="http://www.w3.org/2000/svg" width="27.655" height="27.655" viewBox="0 0 27.655 27.655">
  <g id="settingsandroid" transform="translate(-0.014)">
    <path id="Path_56" data-name="Path 56" d="M25.941,15.556H17.3a1.753,1.753,0,0,1-1.728,1.728H12.113a1.648,1.648,0,0,1-1.229-.513,1.683,1.683,0,0,1-.5-1.215H1.743a1.648,1.648,0,0,1-1.229-.513,1.7,1.7,0,0,1-.5-1.229,1.654,1.654,0,0,1,.5-1.215,1.67,1.67,0,0,1,1.229-.5h8.642a1.706,1.706,0,0,1,1.728-1.728H15.57A1.706,1.706,0,0,1,17.3,12.1h8.642a1.706,1.706,0,0,1,1.728,1.715,1.7,1.7,0,0,1-.5,1.229,1.648,1.648,0,0,1-1.229.513ZM15.57,12.1H12.113v3.457H15.57ZM25.941,5.185H24.213A1.661,1.661,0,0,1,23.7,6.4a1.661,1.661,0,0,1-1.215.513H19.027A1.648,1.648,0,0,1,17.8,6.4a1.683,1.683,0,0,1-.5-1.215H1.743A1.648,1.648,0,0,1,.514,4.672a1.7,1.7,0,0,1-.5-1.229,1.654,1.654,0,0,1,.5-1.215,1.67,1.67,0,0,1,1.229-.5H17.3A1.67,1.67,0,0,1,17.8.5,1.67,1.67,0,0,1,19.027,0h3.457a1.67,1.67,0,0,1,1.229.5,1.67,1.67,0,0,1,.5,1.229h1.728A1.706,1.706,0,0,1,27.67,3.443a1.7,1.7,0,0,1-.5,1.229,1.648,1.648,0,0,1-1.229.513ZM22.484,1.728H19.027V5.185h3.457ZM1.743,22.47H3.471A1.706,1.706,0,0,1,5.2,20.741H8.657a1.683,1.683,0,0,1,1.215.5,1.648,1.648,0,0,1,.513,1.229H25.941a1.729,1.729,0,0,1,0,3.457H10.385a1.648,1.648,0,0,1-.513,1.229,1.683,1.683,0,0,1-1.215.5H5.2a1.648,1.648,0,0,1-1.229-.513,1.683,1.683,0,0,1-.5-1.215H1.743a1.648,1.648,0,0,1-1.229-.513,1.7,1.7,0,0,1-.5-1.229,1.654,1.654,0,0,1,.5-1.215,1.67,1.67,0,0,1,1.229-.5ZM5.2,25.927H8.657V22.47H5.2Z" transform="translate(0)" fill="#686868"/>
  </g>
</svg>
