<svg xmlns="http://www.w3.org/2000/svg" width="20.163" height="21.219" viewBox="0 0 20.163 21.219">
  <g id="bx-share-alt" transform="translate(0 0)">
    <path id="Path_2129" data-name="Path 2129" d="M7.691,17.736a3.711,3.711,0,0,0,2.5-.983l6.619,3.785a3.235,3.235,0,0,0-.127.9,3.732,3.732,0,1,0,1.205-2.717l-6.619-3.785a2.9,2.9,0,0,0,.127-.8l6.5-3.722a3.69,3.69,0,1,0-1.216-2.717,3.542,3.542,0,0,0,.127.9l-6.016,3.436a3.7,3.7,0,1,0-3.1,5.71Zm12.688,2.115a1.586,1.586,0,1,1-1.586,1.586A1.586,1.586,0,0,1,20.379,19.851Zm0-13.745a1.586,1.586,0,1,1-1.586,1.586A1.586,1.586,0,0,1,20.379,6.106ZM7.691,12.45a1.586,1.586,0,1,1-1.586,1.586A1.586,1.586,0,0,1,7.691,12.45Z" transform="translate(-3.981 -3.981)" fill="#959595"/>
  </g>
</svg>
