<svg width="36" height="36" viewBox="0 0 36 36" fill="none" xmlns="http://www.w3.org/2000/svg">
<g clip-path="url(#clip0_1_463)">
<path d="M10.8984 0H1.05469C0.472219 0 0 0.472219 0 1.05469V3.51562H11.9531V1.05469C11.9531 0.472219 11.4809 0 10.8984 0Z" fill="url(#paint0_linear_1_463)"/>
<path d="M35.4701 10.0539C35.1423 9.8659 34.7391 9.86752 34.4129 10.0583L23.9766 16.1615V10.9688C23.9766 10.5909 23.7744 10.2419 23.4467 10.0539C23.1189 9.8659 22.7156 9.86752 22.3895 10.0583L11.9531 16.1615V5.625H0V34.9453C0 35.5278 0.472219 36 1.05469 36H34.9453C35.5278 36 36 35.5278 36 34.9453V10.9688C36 10.5909 35.7979 10.2419 35.4701 10.0539ZM16.1719 28.582C16.1719 29.1645 15.6997 29.6367 15.1172 29.6367H10.8984C10.316 29.6367 9.84375 29.1645 9.84375 28.582V24.3633C9.84375 23.7808 10.316 23.3086 10.8984 23.3086H15.1172C15.6997 23.3086 16.1719 23.7808 16.1719 24.3633V28.582ZM28.1953 28.582C28.1953 29.1645 27.7231 29.6367 27.1406 29.6367H22.9219C22.3394 29.6367 21.8672 29.1645 21.8672 28.582V24.3633C21.8672 23.7808 22.3394 23.3086 22.9219 23.3086H27.1406C27.7231 23.3086 28.1953 23.7808 28.1953 24.3633V28.582Z" fill="url(#paint1_linear_1_463)"/>
</g>
<defs>
<linearGradient id="paint0_linear_1_463" x1="13.1365" y1="-1.50469" x2="11.5764" y2="7.2392" gradientUnits="userSpaceOnUse">
<stop stop-color="#4B2A7A"/>
<stop offset="1" stop-color="#08A1A7"/>
</linearGradient>
<linearGradient id="paint1_linear_1_463" x1="39.564" y1="-7.3755" x2="7.94831" y2="54.3948" gradientUnits="userSpaceOnUse">
<stop stop-color="#4B2A7A"/>
<stop offset="1" stop-color="#08A1A7"/>
</linearGradient>
<clipPath id="clip0_1_463">
<rect width="36" height="36" fill="white"/>
</clipPath>
</defs>
</svg>
