<?xml version="1.0" encoding="utf-8"?>
<!-- Generator: Adobe Illustrator 26.0.1, SVG Export Plug-In . SVG Version: 6.00 Build 0)  -->
<svg version="1.1" id="Layer_1" xmlns="http://www.w3.org/2000/svg" xmlns:xlink="http://www.w3.org/1999/xlink" x="0px" y="0px"
	 viewBox="0 0 174.7 174.7" style="enable-background:new 0 0 174.7 174.7;" xml:space="preserve">
<style type="text/css">
	.st0{clip-path:url(#SVGID_00000004527442392578143620000011499168842496171942_);}
	.st1{fill:url(#SVGID_00000100344662155940167440000007004779458942490513_);}
	.st2{fill:url(#SVGID_00000134232703594942904540000006870017813752599982_);}
</style>
<g>
	<defs>
		<rect id="SVGID_1_" width="174.7" height="174.7"/>
	</defs>
	<clipPath id="SVGID_00000057109497937154986890000013606172065763655329_">
		<use xlink:href="#SVGID_1_"  style="overflow:visible;"/>
	</clipPath>
	<g style="clip-path:url(#SVGID_00000057109497937154986890000013606172065763655329_);">
		
			<linearGradient id="SVGID_00000033358984547072174770000004748599917876409777_" gradientUnits="userSpaceOnUse" x1="-530.7848" y1="1328.7496" x2="-538.3556" y2="1286.3177" gradientTransform="matrix(1 0 0 -1 564 1316)">
			<stop  offset="0" style="stop-color:#4B2A7A"/>
			<stop  offset="1" style="stop-color:#08A1A7"/>
		</linearGradient>
		<path style="fill:url(#SVGID_00000033358984547072174770000004748599917876409777_);" d="M52.89,0H5.12C2.29,0,0,2.29,0,5.12
			v11.94h58.01V5.12C58.01,2.29,55.71,0,52.89,0z"/>
		
			<linearGradient id="SVGID_00000163791510343574496830000001964789315492314281_" gradientUnits="userSpaceOnUse" x1="-400.2364" y1="1366.2405" x2="-553.6592" y2="1066.485" gradientTransform="matrix(1 0 0 -1 564 1316)">
			<stop  offset="0" style="stop-color:#4B2A7A"/>
			<stop  offset="1" style="stop-color:#08A1A7"/>
		</linearGradient>
		<path style="fill:url(#SVGID_00000163791510343574496830000001964789315492314281_);" d="M172.13,48.79
			c-1.59-0.91-3.55-0.9-5.13,0.02l-50.64,29.62v-25.2c0-1.83-0.98-3.53-2.57-4.44c-1.59-0.91-3.55-0.9-5.13,0.02L58.01,78.43V27.3H0
			v142.28c0,2.83,2.29,5.12,5.12,5.12h164.46c2.83,0,5.12-2.29,5.12-5.12V53.23C174.7,51.39,173.72,49.7,172.13,48.79z M78.48,138.7
			c0,2.83-2.29,5.12-5.12,5.12H52.89c-2.83,0-5.12-2.29-5.12-5.12v-20.47c0-2.83,2.29-5.12,5.12-5.12h20.47
			c2.83,0,5.12,2.29,5.12,5.12V138.7z M136.82,138.7c0,2.83-2.29,5.12-5.12,5.12h-20.47c-2.83,0-5.12-2.29-5.12-5.12v-20.47
			c0-2.83,2.29-5.12,5.12-5.12h20.47c2.83,0,5.12,2.29,5.12,5.12V138.7z"/>
	</g>
</g>
</svg>
