<svg xmlns="http://www.w3.org/2000/svg" xmlns:xlink="http://www.w3.org/1999/xlink" width="39" height="39" viewBox="0 0 39 39">
  <defs>
    <linearGradient id="linear-gradient" x1="1.099" y1="-0.428" x2="-0.039" y2="1.448" gradientUnits="objectBoundingBox">
      <stop offset="0" stop-color="#4b2a7a"/>
      <stop offset="1" stop-color="#08a1a7"/>
    </linearGradient>
  </defs>
  <g id="md-football" transform="translate(-4.5 -4.5)">
    <path id="Path_3246" data-name="Path 3246" d="M24,4.5A19.5,19.5,0,1,0,43.5,24,19.521,19.521,0,0,0,24,4.5ZM11.906,22.331l3.675,1.678,1.6,6.272-1.463,2.747-5.362-.066A16.374,16.374,0,0,1,7.781,25.9Zm20.372,10.7-1.462-2.747L32.419,24l3.666-1.669L40.209,25.9a16.254,16.254,0,0,1-2.578,7.059l-5.353.066Zm3.038-13.706-4.088,1.837L25.5,16.322V11.9l4.491-3.056a16.717,16.717,0,0,1,7.087,5.419l-1.762,5.063ZM17.934,8.85,22.406,11.9v4.425L16.688,21.15l-4.031-1.838L10.9,14.287A16.236,16.236,0,0,1,17.934,8.85Zm2.541,31.087c-.066-.019-.122-.028-.187-.047l-1.922-5.166,1.378-2.756h8.512l1.406,2.841-1.856,5.053c-.094.019-.187.047-.281.066a23.636,23.636,0,0,1-3.788.384,15.9,15.9,0,0,1-3.263-.375Z" fill="url(#linear-gradient)"/>
  </g>
</svg>
