<svg xmlns="http://www.w3.org/2000/svg" xmlns:xlink="http://www.w3.org/1999/xlink" width="47.998" height="42.424" viewBox="0 0 47.998 42.424">
  <defs>
    <linearGradient id="linear-gradient" x1="1.099" y1="-0.428" x2="-0.039" y2="1.448" gradientUnits="objectBoundingBox">
      <stop offset="0" stop-color="#4b2a7a"/>
      <stop offset="1" stop-color="#08a1a7"/>
    </linearGradient>
  </defs>
  <g id="homeassistant" transform="translate(0 -2.788)">
    <path id="Path_3252" data-name="Path 3252" d="M23.984,2.79a1.408,1.408,0,0,0-1,.42L.324,26.2a1.131,1.131,0,0,0,.808,1.924H5.34v16.15a.939.939,0,0,0,.94.94h15.9V37.846l-6.1-6.11a4.846,4.846,0,1,1,2.566-2.57L22.176,32.7V21.952a4.844,4.844,0,1,1,3.632,0V32.7l3.532-3.536a4.853,4.853,0,1,1,2.57,2.57l-6.1,6.11v7.366H41.7a.94.94,0,0,0,.94-.94V28.12h4.224a1.132,1.132,0,0,0,.808-1.924L42.644,21.05V12.942A.944.944,0,0,0,41.7,12h-3.93a.944.944,0,0,0-.942.946v2.206L25,3.208a1.412,1.412,0,0,0-1.016-.42Zm.008,12.72a1.942,1.942,0,1,0,1.938,1.944,1.94,1.94,0,0,0-1.938-1.944ZM14.18,25.334a1.936,1.936,0,1,0,1.37.566,1.936,1.936,0,0,0-1.37-.566Zm19.624,0a1.936,1.936,0,1,0,1.372.566A1.94,1.94,0,0,0,33.8,25.334Z" fill="url(#linear-gradient)"/>
  </g>
</svg>
